<svg xmlns="http://www.w3.org/2000/svg" viewBox="0 0 257.95 26.84"><defs><style>.cls-1{fill:#de4575;}</style></defs><path class="cls-1" d="M17.69,25.88H16.44a10.68,10.68,0,0,0,.08-1.14V22c0-.79,0-1.58,0-2.68v-.28c0-.53.12-1.46.17-2.54-.53,1-1.2,2.23-1.85,3.44l-.24.44-.11.21a.75.75,0,0,0-.07.12l-.13.22c-.35.69-.74,1.36-1.07,2l-.74-1c.55-.87,1.38-2.32,2.2-3.78l.14-.24.12-.24c.69-1.27,1.37-2.49,1.75-3.28,0-.26,0-.55.07-.81l0-.24c.05-.6.12-1.2.17-1.73-.55.1-1.53.24-2.51.41l-.26,0-1.13.21L13,11.05A9.38,9.38,0,0,0,14,11a18.76,18.76,0,0,0,2-.34l.27,0a4.8,4.8,0,0,0,.64-.12C17,9.23,17,8.27,17,8V7.67a7.08,7.08,0,0,0-.1-1.19l1.39.07c-.09.53-.22,1.91-.36,3.73l.22-.07.52.58c-.24.45-.62,1.05-.88,1.6,0,.69-.19,1.41-.19,2.11,2.2-2.42,4.3-3.33,6.15-3.33,2.51,0,4.81,2.13,4.83,5.77,0,4.78-2.94,7-6.8,8l-.45-1.1c3.18-.55,6.2-2.56,6.15-6.89,0-1.84-.93-4.74-3.83-4.74-2.32,0-4.24,1.56-6,3.74-.05,1.17-.1,2.32-.1,3.27v1.58c0,1.39,0,2.4.08,3.95C17.64,25.12,17.69,25.5,17.69,25.88Z"/><path class="cls-1" d="M40.24,26.41c-.31-.45-.72-.91-1.13-1.41-.83-1-2-2.49-3.27-3.88l-.17-.21c-.91-1-1.82-2-2.56-2.8-1.77-1.8-1.51-2.61.09-4.31.68-.69,1.66-1.74,2.66-2.82l.19-.19a1.82,1.82,0,0,1,.27-.29l.16-.22c.91-1,1.75-1.93,2.32-2.65a8.6,8.6,0,0,0,.89-1.27l1.08.93c-.29.34-.94.91-1.15,1.17-1.37,1.54-4.09,4.46-5.58,6-1.22,1.31-1.29,1.82.05,3.2,1.13,1.13,2.66,2.73,4.16,4.38l.17.19c.1.1.17.2.27.29l.16.19.1.1.16.19c.75.86,1.49,1.72,2.11,2.51Z"/><path class="cls-1" d="M50.09,25.88H48.84a10.68,10.68,0,0,0,.08-1.14V22c0-.79,0-1.58,0-2.68v-.28c0-.53.12-1.46.17-2.54-.53,1-1.2,2.23-1.85,3.44l-.24.44-.12.21a.75.75,0,0,1-.07.12l-.12.22c-.36.69-.74,1.36-1.07,2l-.74-1c.55-.87,1.38-2.32,2.2-3.78l.14-.24.12-.24c.69-1.27,1.36-2.49,1.75-3.28,0-.26,0-.55.07-.81l0-.24c0-.6.12-1.2.17-1.73-.55.1-1.53.24-2.51.41l-.27,0-1.12.21-.1-1.22a9.38,9.38,0,0,0,1.06,0,19.2,19.2,0,0,0,2-.34l.27,0a4.8,4.8,0,0,0,.64-.12c0-1.29.1-2.25.1-2.51V7.67a7.08,7.08,0,0,0-.1-1.19l1.39.07c-.1.53-.22,1.91-.36,3.73l.22-.07.52.58c-.24.45-.62,1.05-.88,1.6-.05.69-.19,1.41-.19,2.11,2.2-2.42,4.3-3.33,6.15-3.33,2.51,0,4.81,2.13,4.83,5.77,0,4.78-2.94,7-6.8,8l-.45-1.1c3.18-.55,6.2-2.56,6.15-6.89,0-1.84-.94-4.74-3.83-4.74-2.32,0-4.24,1.56-6,3.74,0,1.17-.1,2.32-.1,3.27v1.58c0,1.39,0,2.4.08,3.95C50,25.12,50.09,25.5,50.09,25.88Z"/><path class="cls-1" d="M72.64,26.41c-.32-.45-.72-.91-1.13-1.41-.84-1-2-2.49-3.28-3.88l-.17-.21c-.9-1-1.81-2-2.55-2.8-1.78-1.8-1.51-2.61.09-4.31.67-.69,1.65-1.74,2.66-2.82l.19-.19a1.75,1.75,0,0,1,.26-.29l.17-.22c.91-1,1.75-1.93,2.32-2.65a8.52,8.52,0,0,0,.88-1.27l1.08.93c-.29.34-.93.91-1.15,1.17-1.36,1.54-4.09,4.46-5.57,6-1.22,1.31-1.29,1.82,0,3.2,1.12,1.13,2.65,2.73,4.16,4.38l.17.19a3.58,3.58,0,0,0,.26.29l.17.19.09.1.17.19c.74.86,1.49,1.72,2.11,2.51Z"/><path class="cls-1" d="M89.73,19.11a27.46,27.46,0,0,0-4.4-.59l.1-.94c.28,0,.57.05.88.1l.26,0c.84.07,1.65.14,2.18.22a34.6,34.6,0,0,1-2.51-6.13,36.73,36.73,0,0,1-7.83,0l0-1.15a31.84,31.84,0,0,0,7.59.2,26,26,0,0,1-.74-2.56c-.12-.51-.24-1.11-.41-1.66L86,6.43a41.42,41.42,0,0,0,.86,4.24,16.13,16.13,0,0,0,4.4-1.18l.13,1.18a31.43,31.43,0,0,1-4.15,1,28.59,28.59,0,0,0,2.33,5.55,7,7,0,0,0,.81,1Zm-5.19,6.8C81.09,25.86,79,24.43,79,21.29a10.43,10.43,0,0,1,.89-3.64l1.12.27A7.92,7.92,0,0,0,80,21.24c0,2.44,1.58,3.57,4.57,3.62a16.71,16.71,0,0,0,4.76-.6l-.05,1.15A20.15,20.15,0,0,1,84.54,25.91Z"/><path class="cls-1" d="M102.57,25.31c-4.09,0-4.33-1.19-4.43-4.81V14.26l-2.34.35L94,14.9l-.12-1.27c.65,0,1.25,0,1.77-.07s1.35-.24,2.47-.38V9.11A7.09,7.09,0,0,0,98,7.75h1.22c0,.4-.07,1-.07,1.55v.36c0,.93,0,2.18,0,3.5l1.1-.15.22,0,.21,0,.12,0,.24,0,1.39-.19.21,0c.29,0,.58-.07.84-.12l.24,0,.48-.07.26,0,.72-.07.27,0s.07,0,.11,0c0-.41,0-.84,0-1.29V8.49A9.84,9.84,0,0,0,105.39,7h1.24a10.15,10.15,0,0,0-.09,1.48c0,1.15-.1,2.64-.1,3.83.89-.09,1.66-.16,2.42-.21L110.2,12v1.17a11.8,11.8,0,0,0-1.34,0c-.67,0-1.46.05-2.44.14,0,.65,0,1.39,0,2.11l0,.26a23.16,23.16,0,0,1-.16,2.8,1.2,1.2,0,0,1-1.39,1.2,16.09,16.09,0,0,1-2.28-.29l0-1a8.24,8.24,0,0,0,2,.34c.53,0,.65-.15.72-.77a40.43,40.43,0,0,0,.28-4.57l-.59.07-.24,0a.22.22,0,0,1-.12,0l-.22,0a.72.72,0,0,1-.24,0l-.24.05-.26,0-.6.07-.24,0c-.72.07-1.46.16-2.15.24l-.24,0-1.27.15v.76c0,.65,0,1.32,0,1.92v2.05c0,.67,0,1.2,0,1.49.12,2.7-.09,3.9,3.42,3.9a29.33,29.33,0,0,0,5.65-.53l0,1.17A46,46,0,0,1,102.57,25.31Z"/><path class="cls-1" d="M120.12,26c-2.59,0-3.9-1.31-3.9-3.06a2.64,2.64,0,0,1,2.68-2.71c2.29,0,3.44,2.06,3.71,4.29a4.58,4.58,0,0,0,2.7-4.6A4.17,4.17,0,0,0,121,15.5c-3.35,0-4.72,1.46-7.35,4.67l-.84-.82c.53-.55,1.13-1.19,1.73-1.84l.28-.29A1.08,1.08,0,0,0,115,17l.19-.19c1.15-1.22,2.27-2.39,2.92-3.09.53-.52,1.39-1.5,2.25-2.46l.29-.31.19-.22c.72-.81,1.41-1.58,1.84-2L116.36,9c-.38.05-.77.07-1.17.12l0-1.2a10.29,10.29,0,0,0,1.2,0c.45,0,1.77,0,3.14-.1l.28,0c1.37,0,2.71-.14,3.19-.19a4,4,0,0,0,.74-.14l.79.86c-.29.26-.63.55-1,.88l-3.3,3.62-.19.19-1.9,2.05a7.14,7.14,0,0,1,3-.57,5.06,5.06,0,0,1,5.24,5.34C126.41,23.8,123.83,26,120.12,26Zm-2.87-3.09,0,.17c.12,1.2,1.12,1.92,2.73,1.92a6.7,6.7,0,0,0,1.67-.24c-.19-2.11-1.12-3.64-2.8-3.64a1.66,1.66,0,0,0-1.62,1.75Z"/><path class="cls-1" d="M133,25.88l-.93-.93a14.84,14.84,0,0,0,7.4-6,22.85,22.85,0,0,0,3.15-8.09h-6.79a19.83,19.83,0,0,1-4.76,5.94l-.94-.74a18,18,0,0,0,5.91-8.28,3.92,3.92,0,0,0,.43-1.51l1.3.48c-.24.45-.48,1-.65,1.46s-.43,1-.69,1.58h5.74a2.23,2.23,0,0,0,1-.15l.89.58a9.11,9.11,0,0,0-.29,1,25,25,0,0,1-3.37,8.38A16.67,16.67,0,0,1,133,25.88Z"/><path class="cls-1" d="M150.07,18.68h-1.29a12.27,12.27,0,0,0,.1-1.65V9.11c0-.41,0-1.2-.1-1.6h1.29c0,.4,0,1.15,0,1.6v8C150,17.65,150.05,18.32,150.07,18.68Zm2.3,7.2-.86-.95a8.65,8.65,0,0,0,4.45-3.3c1.36-2,1.53-4.1,1.53-8.93V9.16c0-.7-.07-1.27-.09-1.8h1.31c-.05.53-.05,1.1-.05,1.8v3.37c0,6.1-.5,7.78-1.86,9.89A9.22,9.22,0,0,1,152.37,25.88Z"/><path class="cls-1" d="M178.15,23.9a10.35,10.35,0,0,0-1.41-.07h-12.4c-.48,0-1.05,0-1.6.07V22.58a7.81,7.81,0,0,0,1.51.12h5.55V10.86h-4.5c-.31,0-1.05,0-1.48.07V9.66a13.57,13.57,0,0,0,1.55.1h10.27a14.56,14.56,0,0,0,1.6-.1v1.27a13.49,13.49,0,0,0-1.48-.07h-4.89V22.7h5.77a14.22,14.22,0,0,0,1.51-.12Z"/><path class="cls-1" d="M190.12,25.67h-1.36c0-.38.12-1.34.12-2.13V14A30.56,30.56,0,0,1,181.56,18L181,17a28.05,28.05,0,0,0,8.11-4.52,24.57,24.57,0,0,0,5.1-5.51l.91.84A32,32,0,0,1,190,13.16V23.54A15.77,15.77,0,0,0,190.12,25.67Z"/><path class="cls-1" d="M201.12,26l-1-.81a8.75,8.75,0,0,0,3.62-3.78,15.51,15.51,0,0,0,1.1-6.42h-6.08a12.1,12.1,0,0,0-1.37.05v-1.2A15.46,15.46,0,0,0,199,14h12.15c.41,0,1,0,1.42-.08v1.2c-.39,0-1-.05-1.42-.05h-5.38a18,18,0,0,1-1,6.82A10.48,10.48,0,0,1,201.12,26Zm9.33-16.87c-.53-.05-1.2-.07-1.68-.07h-7.51a14.56,14.56,0,0,0-1.63.07V7.91a14,14,0,0,0,1.58.13h7.56a12.11,12.11,0,0,0,1.68-.13Z"/><path class="cls-1" d="M221.44,26.84h-1.29a12.79,12.79,0,0,0,.12-1.72v-8a27,27,0,0,1-6.08,3.39l-.5-1.1a24.09,24.09,0,0,0,6.73-3.71A20.9,20.9,0,0,0,224.77,11l.86.84a25,25,0,0,1-4.26,4.52v8.76C221.37,25.77,221.42,26.56,221.44,26.84Z"/><path class="cls-1" d="M231.55,25.67l-.89-1.05a12.41,12.41,0,0,0,7.25-5.86,22.16,22.16,0,0,0,2.59-8.45h-9.93c-.7,0-1.25,0-1.72,0V9.06a11,11,0,0,0,1.74.12h9.67A1.28,1.28,0,0,0,241,9l.86.69a2.86,2.86,0,0,0-.22.88,27.58,27.58,0,0,1-2.8,8.83A14.27,14.27,0,0,1,231.55,25.67ZM241,9a20,20,0,0,0-1.58-3.14l.86-.38c.39.79,1.18,2.2,1.56,3.11Zm2.27-.65a22.89,22.89,0,0,0-1.58-3.09l.87-.38c.43.77,1.15,2.15,1.58,3.11Z"/><path class="cls-1" d="M0,7.59A6.52,6.52,0,0,1,3,1.92l.62.73C2,4,1.18,5.24,1.18,7.32a.73.73,0,0,1,.31,0A1.24,1.24,0,0,1,2.8,8.56,1.2,1.2,0,0,1,1.49,9.87C.59,9.87,0,9.08,0,7.59Zm4.94,0A6.61,6.61,0,0,1,8,1.92l.63.73C7,4,6.16,5.24,6.16,7.32a.57.57,0,0,1,.27,0A1.24,1.24,0,0,1,7.75,8.56,1.22,1.22,0,0,1,6.43,9.87C5.57,9.87,4.94,9.08,4.94,7.59Z"/><path class="cls-1" d="M249.37,9.39c1.63-1.38,2.46-2.6,2.46-4.7a1.09,1.09,0,0,1-.31,0,1.23,1.23,0,0,1-1.32-1.24,1.2,1.2,0,0,1,1.32-1.32c.86,0,1.49.76,1.49,2.25a6.61,6.61,0,0,1-3,5.71Zm4.95,0c1.63-1.38,2.46-2.6,2.46-4.7a1.16,1.16,0,0,1-.32,0,1.23,1.23,0,0,1-1.31-1.24,1.22,1.22,0,0,1,1.31-1.32c.87,0,1.49.76,1.49,2.25a6.59,6.59,0,0,1-3,5.71Z"/></svg>
