<svg xmlns="http://www.w3.org/2000/svg" viewBox="0 0 1920 1080"><defs><style>.cls-1{fill:#ea98b9;}.cls-2{fill:#d8828e;}.cls-3{fill:#bf5564;}.cls-4{fill:#cc7583;}.cls-10,.cls-14,.cls-17,.cls-5{fill:none;stroke-linecap:round;stroke-miterlimit:10;stroke-width:5.1px;}.cls-5{stroke:#900;}.cls-6{fill:#eb973b;}.cls-7{fill:#79bca9;}.cls-8{fill:#f4ad67;}.cls-9{fill:#bc7415;}.cls-10{stroke:#6b4a00;}.cls-11{fill:#eddc62;}.cls-12{fill:#aefcf2;}.cls-13{fill:#5c937f;}.cls-14{stroke:#006b4c;}.cls-15{fill:#f7e579;}.cls-16{fill:#afaf46;}.cls-17{stroke:#776900;}</style></defs><g id="umb"><path class="cls-1" d="M1841.7,972.18c1.38.74,2.47.35,3.62-1a130.61,130.61,0,0,0,26-48.9,146.42,146.42,0,0,0,5.87-36c0-1.11-.65-3.28,1.94-2.72,5.5,4,9.77,9.3,13.77,14.83,20.28,28,34,59.52,38.26,95.88a90,90,0,0,1-1.15,30.29c-.14.64.62,2.67-1.48,1.84-4.81-3.48-8-8.57-12-13-11.32-12.63-24.18-23.2-39.3-30.62-9.08-4.45-18.8-7.26-29.32-7.23a20.69,20.69,0,0,1-4.39-.25C1842.06,975,1840.85,974.29,1841.7,972.18Z"/><path class="cls-1" d="M1822.24,431.34q-40,23.69-61.35,66.34c-1.42,2.84-2.51,5.84-3.75,8.76-2.67,1.11-3.37-1.16-4.27-2.7a63.67,63.67,0,0,0-13.78-15.86c-10.82-9.29-23.57-15.05-37.09-19.37a150.46,150.46,0,0,0-27.43-6c-2.37-.3-4.42-1.48-6.77-1.76-1.85-1.34.21-1.91.78-2.44,7.37-6.78,15.81-11.47,24.63-15.35,19.37-8.53,39.34-13.08,59.62-15.29,20.57-2.25,40.94-2.39,60.92,1.05C1816.71,429.19,1819.74,429.55,1822.24,431.34Z"/><path class="cls-2" d="M1867,524a147.68,147.68,0,0,0,12.06-45c.45-4.3.52-8.58,1.06-12.87a3.7,3.7,0,0,0-1.78-1.55c-4.35-7.53-13.45-16-25.34-22.87-11.18-6.42-22.42-10-31-10.38h0a8.24,8.24,0,0,0-5.34,1.5,166.78,166.78,0,0,0-23.24,18c-13.7,12.51-24.15,27.58-32.86,44-2,3.71-3.76,7.43-4.18,11.6.17,2.32,1.93,2.49,3.59,2.75,14.93,2.33,29.28,6.25,42.57,13.13a35.21,35.21,0,0,0,3.42,2,141.45,141.45,0,0,1,12.42,8.8c8.57,6.88,16,15,23.4,23.17,3.86,1.27,6-1.76,8.13-4.4A126.26,126.26,0,0,0,1867,524Z"/><path class="cls-3" d="M1842.7,554.75c1.38.73,2.47.35,3.62-1a130.65,130.65,0,0,0,26-48.91,146.35,146.35,0,0,0,5.87-36c0-1.1-.65-3.28,1.94-2.71,5.5,4,9.77,9.3,13.77,14.83,20.28,28,34,59.51,38.26,95.87a90,90,0,0,1-1.15,30.3c-.14.64.62,2.66-1.48,1.83-4.81-3.47-8-8.57-12-13-11.32-12.63-24.18-23.19-39.3-30.61-9.08-4.45-18.8-7.26-29.32-7.23a20.06,20.06,0,0,1-4.39-.26C1843.06,557.57,1841.85,556.86,1842.7,554.75Z"/><path class="cls-4" d="M1926.84,604.31a145.67,145.67,0,0,0-31.07-30.42c-14.66-10.4-30.38-18-49.37-17.55-1.47,0-3,.15-3.7-1.59-2.36-2.68-4.63-5.44-7.09-8-8.5-8.88-17.29-17.41-28.09-23.33h0l-4.69-2.69h0c-9.53-5.75-20.24-8.57-31-11.25-4.84-1.2-10-1.28-14.65-3a17.64,17.64,0,0,1-2.11-2.55c-6.52-11.5-16.06-19.65-27-26.07-14.1-8.28-29.62-13.21-45.88-16.07-4.67-.82-9.34-2.14-14.35-1,2.75,2.4,5.6,4.68,8.21,7.24,9.43,9.25,18,19.21,20.72,33.39.32,1.64,1.53,1.73,2.7,2a71.48,71.48,0,0,1,23.23,10.39c12,7.86,20.5,18.54,22.41,34.22.26,2.13,1.39,2.11,3,2.13,11.94.14,23.81.64,34.58,5.72l4.55,2.61,0,0a56.29,56.29,0,0,1,5.63,4c7.37,6.49,13,14.56,18.06,23.14.95,1.61,1.67,2.58,3.93,1.59,11.86-5.17,23.33-4.64,34.56-.64a75.7,75.7,0,0,1,26.93,17.09c1,1,1.88,1.84,3.72,1.13,5.91-2.28,11.93-2.7,18-2.49,11,.38,21.4,3.16,31.55,6.74A12.53,12.53,0,0,0,1926.84,604.31Z"/><line class="cls-5" x1="1803.08" y1="526.56" x2="1718.97" y2="670.63"/><path class="cls-1" d="M1822.24,13.05q-40,23.69-61.35,66.34c-1.42,2.84-2.51,5.84-3.75,8.77-2.67,1.1-3.37-1.17-4.27-2.71a63.67,63.67,0,0,0-13.78-15.86c-10.82-9.29-23.57-15.05-37.09-19.37a151.3,151.3,0,0,0-27.43-6c-2.37-.3-4.42-1.48-6.77-1.76-1.85-1.34.21-1.91.78-2.44,7.37-6.78,15.81-11.47,24.63-15.35,19.37-8.53,39.34-13.08,59.62-15.29,20.57-2.25,40.94-2.39,60.92,1.05C1816.71,10.9,1819.74,11.26,1822.24,13.05Z"/><path class="cls-2" d="M1867,105.67a147.68,147.68,0,0,0,12.06-45c.45-4.3.52-8.58,1.06-12.87a3.7,3.7,0,0,0-1.78-1.55c-4.35-7.53-13.45-16-25.34-22.87-11.18-6.42-22.42-10-31-10.38h0a8.24,8.24,0,0,0-5.34,1.5,166.78,166.78,0,0,0-23.24,18c-13.7,12.51-24.15,27.58-32.86,44-2,3.71-3.76,7.43-4.18,11.6.17,2.33,1.93,2.49,3.59,2.75,14.93,2.33,29.28,6.25,42.57,13.13a35.21,35.21,0,0,0,3.42,2,141.45,141.45,0,0,1,12.42,8.8c8.57,6.88,16,15,23.4,23.17,3.86,1.27,6-1.76,8.13-4.4A126.26,126.26,0,0,0,1867,105.67Z"/><path class="cls-6" d="M1842.7,136.46c1.38.73,2.47.35,3.62-1a130.65,130.65,0,0,0,26-48.91,146.35,146.35,0,0,0,5.87-36c0-1.1-.65-3.28,1.94-2.71,5.5,4,9.77,9.3,13.77,14.83,20.28,28,34,59.51,38.26,95.87a90,90,0,0,1-1.15,30.3c-.14.64.62,2.66-1.48,1.83-4.81-3.47-8-8.57-12-12.95-11.32-12.63-24.18-23.19-39.3-30.61-9.08-4.45-18.8-7.26-29.32-7.23a20.69,20.69,0,0,1-4.39-.25C1843.06,139.28,1841.85,138.57,1842.7,136.46Z"/><path class="cls-4" d="M1926.84,186a145.67,145.67,0,0,0-31.07-30.42c-14.66-10.4-30.38-18-49.37-17.55-1.47,0-3,.15-3.7-1.59-2.36-2.68-4.63-5.44-7.09-8-8.5-8.88-17.29-17.41-28.09-23.33h0l-4.69-2.69h0c-9.53-5.75-20.24-8.57-31-11.25-4.84-1.2-10-1.28-14.65-3A17.64,17.64,0,0,1,1755,85.6C1748.51,74.1,1739,66,1728,59.53c-14.1-8.28-29.62-13.21-45.88-16.07-4.67-.82-9.34-2.14-14.35-1,2.75,2.4,5.6,4.68,8.21,7.24,9.43,9.25,18,19.21,20.72,33.39.32,1.64,1.53,1.73,2.7,2a71.48,71.48,0,0,1,23.23,10.39c12,7.86,20.5,18.54,22.41,34.22.26,2.13,1.39,2.11,3,2.13,11.94.14,23.81.64,34.58,5.72l4.55,2.61,0,0a56.29,56.29,0,0,1,5.63,4c7.37,6.49,13,14.56,18.06,23.14.95,1.61,1.67,2.58,3.93,1.59,11.86-5.17,23.33-4.64,34.56-.64a75.7,75.7,0,0,1,26.93,17.09c1,1,1.88,1.84,3.72,1.13,5.91-2.28,11.93-2.7,18-2.49,11,.38,21.4,3.16,31.55,6.74A12.53,12.53,0,0,0,1926.84,186Z"/><line class="cls-5" x1="1803.08" y1="108.27" x2="1718.97" y2="252.34"/><path class="cls-3" d="M1822.24,431.34q-40,23.69-61.35,66.34c-1.42,2.84-2.51,5.84-3.75,8.76-2.67,1.11-3.37-1.16-4.27-2.7a63.67,63.67,0,0,0-13.78-15.86c-10.82-9.29-23.57-15.05-37.09-19.37a150.46,150.46,0,0,0-27.43-6c-2.37-.3-4.42-1.48-6.77-1.76-1.85-1.34.21-1.91.78-2.44,7.37-6.78,15.81-11.47,24.63-15.35,19.37-8.53,39.34-13.08,59.62-15.29,20.57-2.25,40.94-2.39,60.92,1.05C1816.71,429.19,1819.74,429.55,1822.24,431.34Z"/><path class="cls-2" d="M1867,524a147.68,147.68,0,0,0,12.06-45c.45-4.3.52-8.58,1.06-12.87a3.7,3.7,0,0,0-1.78-1.55c-4.35-7.53-13.45-16-25.34-22.87-11.18-6.42-22.42-10-31-10.38h0a8.24,8.24,0,0,0-5.34,1.5,166.78,166.78,0,0,0-23.24,18c-13.7,12.51-24.15,27.58-32.86,44-2,3.71-3.76,7.43-4.18,11.6.17,2.32,1.93,2.49,3.59,2.75,14.93,2.33,29.28,6.25,42.57,13.13a35.21,35.21,0,0,0,3.42,2,141.45,141.45,0,0,1,12.42,8.8c8.57,6.88,16,15,23.4,23.17,3.86,1.27,6-1.76,8.13-4.4A126.26,126.26,0,0,0,1867,524Z"/><path class="cls-4" d="M1926.84,604.31a145.67,145.67,0,0,0-31.07-30.42c-14.66-10.4-30.38-18-49.37-17.55-1.47,0-3,.15-3.7-1.59-2.36-2.68-4.63-5.44-7.09-8-8.5-8.88-17.29-17.41-28.09-23.33h0l-4.69-2.69h0c-9.53-5.75-20.24-8.57-31-11.25-4.84-1.2-10-1.28-14.65-3a17.64,17.64,0,0,1-2.11-2.55c-6.52-11.5-16.06-19.65-27-26.07-14.1-8.28-29.62-13.21-45.88-16.07-4.67-.82-9.34-2.14-14.35-1,2.75,2.4,5.6,4.68,8.21,7.24,9.43,9.25,18,19.21,20.72,33.39.32,1.64,1.53,1.73,2.7,2a71.48,71.48,0,0,1,23.23,10.39c12,7.86,20.5,18.54,22.41,34.22.26,2.13,1.39,2.11,3,2.13,11.94.14,23.81.64,34.58,5.72l4.55,2.61,0,0a56.29,56.29,0,0,1,5.63,4c7.37,6.49,13,14.56,18.06,23.14.95,1.61,1.67,2.58,3.93,1.59,11.86-5.17,23.33-4.64,34.56-.64a75.7,75.7,0,0,1,26.93,17.09c1,1,1.88,1.84,3.72,1.13,5.91-2.28,11.93-2.7,18-2.49,11,.38,21.4,3.16,31.55,6.74A12.53,12.53,0,0,0,1926.84,604.31Z"/><line class="cls-5" x1="1803.08" y1="526.56" x2="1718.97" y2="670.63"/><path class="cls-7" d="M1372.24,640.49q-40,23.68-61.35,66.33c-1.42,2.84-2.51,5.84-3.75,8.77-2.67,1.1-3.37-1.17-4.27-2.71A63.85,63.85,0,0,0,1289.09,697c-10.82-9.28-23.57-15-37.09-19.37a151.3,151.3,0,0,0-27.43-6c-2.37-.29-4.42-1.47-6.77-1.76-1.85-1.33.21-1.9.78-2.43,7.37-6.78,15.81-11.48,24.63-15.36,19.37-8.52,39.34-13.07,59.62-15.29,20.57-2.25,40.94-2.39,60.92,1.05C1366.71,638.33,1369.74,638.69,1372.24,640.49Z"/><path class="cls-2" d="M1417,733.1a147.61,147.61,0,0,0,12.06-45c.45-4.29.52-8.58,1.06-12.87a3.68,3.68,0,0,0-1.78-1.54c-4.35-7.54-13.45-16-25.34-22.87-11.18-6.42-22.42-10-31-10.38h0a8.29,8.29,0,0,0-5.34,1.5,167.54,167.54,0,0,0-23.24,18c-13.7,12.52-24.15,27.59-32.86,44-2,3.7-3.76,7.43-4.18,11.6.17,2.32,1.93,2.48,3.59,2.74,14.93,2.33,29.28,6.26,42.57,13.14a35.12,35.12,0,0,0,3.42,2,139.48,139.48,0,0,1,12.42,8.81c8.57,6.87,16,15,23.4,23.16,3.86,1.28,6-1.75,8.13-4.4A126,126,0,0,0,1417,733.1Z"/><path class="cls-1" d="M1392.7,763.89c1.38.74,2.47.35,3.62-1a130.61,130.61,0,0,0,26-48.9,146.42,146.42,0,0,0,5.87-36c0-1.11-.65-3.28,1.94-2.72,5.5,4,9.77,9.3,13.77,14.83,20.28,28,34,59.52,38.26,95.88a90,90,0,0,1-1.15,30.29c-.14.64.62,2.67-1.48,1.84-4.81-3.48-8-8.57-12-13-11.32-12.63-24.18-23.2-39.3-30.62-9.08-4.45-18.8-7.26-29.32-7.23a20.69,20.69,0,0,1-4.39-.25C1393.06,766.71,1391.85,766,1392.7,763.89Z"/><path class="cls-4" d="M1476.84,813.45A146.15,146.15,0,0,0,1445.77,783c-14.66-10.39-30.38-18-49.37-17.55-1.47,0-3,.16-3.7-1.59-2.36-2.67-4.63-5.44-7.09-8-8.5-8.88-17.29-17.41-28.09-23.34h0l-4.69-2.69h0c-9.53-5.75-20.24-8.56-31-11.24-4.84-1.2-10-1.28-14.65-3A18.19,18.19,0,0,1,1305,713c-6.52-11.51-16.06-19.66-27-26.08-14.1-8.28-29.62-13.21-45.88-16.06-4.67-.83-9.34-2.14-14.35-1,2.75,2.41,5.6,4.69,8.21,7.25,9.43,9.24,18,19.2,20.72,33.38.32,1.64,1.53,1.74,2.7,2a71.46,71.46,0,0,1,23.23,10.38c12,7.87,20.5,18.54,22.41,34.23.26,2.12,1.39,2.11,3,2.12,11.94.15,23.81.64,34.58,5.72l4.55,2.62,0,0a59.71,59.71,0,0,1,5.63,4c7.37,6.5,13,14.56,18.06,23.14.95,1.62,1.67,2.59,3.93,1.6,11.86-5.18,23.33-4.65,34.56-.64a75.67,75.67,0,0,1,26.93,17.08c1,1,1.88,1.84,3.72,1.13,5.91-2.27,11.93-2.7,18-2.49,11,.39,21.4,3.16,31.55,6.75A12.57,12.57,0,0,0,1476.84,813.45Z"/><line class="cls-5" x1="1353.08" y1="735.71" x2="1268.97" y2="879.78"/><path class="cls-1" d="M922.24,431.34q-40,23.69-61.35,66.34c-1.42,2.84-2.51,5.84-3.75,8.76-2.67,1.11-3.37-1.16-4.27-2.7a63.67,63.67,0,0,0-13.78-15.86c-10.82-9.29-23.57-15.05-37.09-19.37a150.46,150.46,0,0,0-27.43-6c-2.37-.3-4.42-1.48-6.77-1.76-1.85-1.34.21-1.91.78-2.44,7.37-6.78,15.81-11.47,24.63-15.35,19.37-8.53,39.34-13.08,59.62-15.29,20.57-2.25,40.94-2.39,60.92,1.05C916.71,429.19,919.74,429.55,922.24,431.34Z"/><path class="cls-2" d="M967,524a147.68,147.68,0,0,0,12.06-45c.45-4.3.52-8.58,1.06-12.87a3.7,3.7,0,0,0-1.78-1.55C974,457,964.93,448.53,953,441.7c-11.18-6.42-22.42-10-31-10.38h0a8.24,8.24,0,0,0-5.34,1.5,166.78,166.78,0,0,0-23.24,18c-13.7,12.51-24.15,27.58-32.86,44-2,3.71-3.76,7.43-4.18,11.6.17,2.32,1.93,2.49,3.59,2.75,14.93,2.33,29.28,6.25,42.57,13.13a35.21,35.21,0,0,0,3.42,2,141.45,141.45,0,0,1,12.42,8.8c8.57,6.88,16,15,23.4,23.17,3.86,1.27,6-1.76,8.13-4.4A126.26,126.26,0,0,0,967,524Z"/><path class="cls-6" d="M942.7,554.75c1.38.73,2.47.35,3.62-1a130.65,130.65,0,0,0,26-48.91,146.35,146.35,0,0,0,5.87-36c0-1.1-.65-3.28,1.94-2.71,5.5,4,9.77,9.3,13.77,14.83,20.28,28,34,59.51,38.26,95.87a90,90,0,0,1-1.15,30.3c-.14.64.62,2.66-1.48,1.83-4.81-3.47-8-8.57-12-13-11.32-12.63-24.18-23.19-39.3-30.61-9.08-4.45-18.8-7.26-29.32-7.23a20.06,20.06,0,0,1-4.39-.26C943.06,557.57,941.85,556.86,942.7,554.75Z"/><path class="cls-4" d="M1026.84,604.31a145.67,145.67,0,0,0-31.07-30.42c-14.66-10.4-30.38-18-49.37-17.55-1.47,0-3,.15-3.7-1.59-2.36-2.68-4.63-5.44-7.09-8-8.5-8.88-17.29-17.41-28.09-23.33h0l-4.69-2.69h0c-9.53-5.75-20.24-8.57-31-11.25-4.84-1.2-10-1.28-14.65-3a17.64,17.64,0,0,1-2.11-2.55c-6.52-11.5-16.06-19.65-27-26.07-14.1-8.28-29.62-13.21-45.88-16.07-4.67-.82-9.34-2.14-14.35-1,2.75,2.4,5.6,4.68,8.21,7.24,9.43,9.25,18,19.21,20.72,33.39.32,1.64,1.53,1.73,2.7,2a71.48,71.48,0,0,1,23.23,10.39c12,7.86,20.5,18.54,22.41,34.22.26,2.13,1.39,2.11,3,2.13,11.94.14,23.81.64,34.58,5.72l4.55,2.61,0,0a56.29,56.29,0,0,1,5.63,4c7.37,6.49,13,14.56,18.06,23.14,1,1.61,1.67,2.58,3.93,1.59,11.86-5.17,23.33-4.64,34.56-.64a75.7,75.7,0,0,1,26.93,17.09c1,1,1.88,1.84,3.72,1.13,5.91-2.28,11.93-2.7,18-2.49,11,.38,21.4,3.16,31.55,6.74A12.53,12.53,0,0,0,1026.84,604.31Z"/><line class="cls-5" x1="903.08" y1="526.56" x2="818.97" y2="670.63"/><path class="cls-6" d="M1822.24,13.05q-40,23.69-61.35,66.34c-1.42,2.84-2.51,5.84-3.75,8.77-2.67,1.1-3.37-1.17-4.27-2.71a63.67,63.67,0,0,0-13.78-15.86c-10.82-9.29-23.57-15.05-37.09-19.37a151.3,151.3,0,0,0-27.43-6c-2.37-.3-4.42-1.48-6.77-1.76-1.85-1.34.21-1.91.78-2.44,7.37-6.78,15.81-11.47,24.63-15.35,19.37-8.53,39.34-13.08,59.62-15.29,20.57-2.25,40.94-2.39,60.92,1.05C1816.71,10.9,1819.74,11.26,1822.24,13.05Z"/><path class="cls-8" d="M1867,105.67a147.68,147.68,0,0,0,12.06-45c.45-4.3.52-8.58,1.06-12.87a3.7,3.7,0,0,0-1.78-1.55c-4.35-7.53-13.45-16-25.34-22.87-11.18-6.42-22.42-10-31-10.38h0a8.24,8.24,0,0,0-5.34,1.5,166.78,166.78,0,0,0-23.24,18c-13.7,12.51-24.15,27.58-32.86,44-2,3.71-3.76,7.43-4.18,11.6.17,2.33,1.93,2.49,3.59,2.75,14.93,2.33,29.28,6.25,42.57,13.13a35.21,35.21,0,0,0,3.42,2,141.45,141.45,0,0,1,12.42,8.8c8.57,6.88,16,15,23.4,23.17,3.86,1.27,6-1.76,8.13-4.4A126.26,126.26,0,0,0,1867,105.67Z"/><path class="cls-9" d="M1926.84,186a145.67,145.67,0,0,0-31.07-30.42c-14.66-10.4-30.38-18-49.37-17.55-1.47,0-3,.15-3.7-1.59-2.36-2.68-4.63-5.44-7.09-8-8.5-8.88-17.29-17.41-28.09-23.33h0l-4.69-2.69h0c-9.53-5.75-20.24-8.57-31-11.25-4.84-1.2-10-1.28-14.65-3A17.64,17.64,0,0,1,1755,85.6C1748.51,74.1,1739,66,1728,59.53c-14.1-8.28-29.62-13.21-45.88-16.07-4.67-.82-9.34-2.14-14.35-1,2.75,2.4,5.6,4.68,8.21,7.24,9.43,9.25,18,19.21,20.72,33.39.32,1.64,1.53,1.73,2.7,2a71.48,71.48,0,0,1,23.23,10.39c12,7.86,20.5,18.54,22.41,34.22.26,2.13,1.39,2.11,3,2.13,11.94.14,23.81.64,34.58,5.72l4.55,2.61,0,0a56.29,56.29,0,0,1,5.63,4c7.37,6.49,13,14.56,18.06,23.14.95,1.61,1.67,2.58,3.93,1.59,11.86-5.17,23.33-4.64,34.56-.64a75.7,75.7,0,0,1,26.93,17.09c1,1,1.88,1.84,3.72,1.13,5.91-2.28,11.93-2.7,18-2.49,11,.38,21.4,3.16,31.55,6.74A12.53,12.53,0,0,0,1926.84,186Z"/><line class="cls-10" x1="1803.08" y1="108.27" x2="1718.97" y2="252.34"/><path class="cls-1" d="M1372.24,222.2q-40,23.69-61.35,66.33c-1.42,2.84-2.51,5.84-3.75,8.77-2.67,1.1-3.37-1.17-4.27-2.71a63.85,63.85,0,0,0-13.78-15.86c-10.82-9.28-23.57-15-37.09-19.37a151.3,151.3,0,0,0-27.43-6c-2.37-.29-4.42-1.47-6.77-1.76-1.85-1.33.21-1.9.78-2.43,7.37-6.78,15.81-11.48,24.63-15.36,19.37-8.52,39.34-13.07,59.62-15.29,20.57-2.25,40.94-2.39,60.92,1.05C1366.71,220,1369.74,220.4,1372.24,222.2Z"/><path class="cls-2" d="M1417,314.81a147.61,147.61,0,0,0,12.06-45c.45-4.29.52-8.58,1.06-12.87a3.68,3.68,0,0,0-1.78-1.54c-4.35-7.54-13.45-16-25.34-22.87-11.18-6.42-22.42-10-31-10.38h0a8.29,8.29,0,0,0-5.34,1.5,167.54,167.54,0,0,0-23.24,18c-13.7,12.52-24.15,27.59-32.86,44-2,3.7-3.76,7.43-4.18,11.6.17,2.32,1.93,2.48,3.59,2.74,14.93,2.33,29.28,6.26,42.57,13.14a35.12,35.12,0,0,0,3.42,2,139.48,139.48,0,0,1,12.42,8.81c8.57,6.87,16,15,23.4,23.16,3.86,1.28,6-1.75,8.13-4.4A126,126,0,0,0,1417,314.81Z"/><path class="cls-1" d="M1392.7,345.6c1.38.74,2.47.35,3.62-1a130.61,130.61,0,0,0,26-48.9,146.42,146.42,0,0,0,5.87-36c0-1.11-.65-3.28,1.94-2.72,5.5,4,9.77,9.3,13.77,14.83,20.28,28,34,59.52,38.26,95.88a90,90,0,0,1-1.15,30.29c-.14.64.62,2.67-1.48,1.84-4.81-3.48-8-8.57-12-12.95-11.32-12.63-24.18-23.2-39.3-30.62-9.08-4.45-18.8-7.26-29.32-7.23a20.69,20.69,0,0,1-4.39-.25C1393.06,348.42,1391.85,347.71,1392.7,345.6Z"/><path class="cls-4" d="M1476.84,395.16a146.15,146.15,0,0,0-31.07-30.42c-14.66-10.39-30.38-18-49.37-17.55-1.47,0-3,.16-3.7-1.59-2.36-2.67-4.63-5.44-7.09-8-8.5-8.88-17.29-17.41-28.09-23.34h0l-4.69-2.69h0c-9.53-5.75-20.24-8.56-31-11.24-4.84-1.2-10-1.28-14.65-3a18.19,18.19,0,0,1-2.11-2.55c-6.52-11.51-16.06-19.66-27-26.08-14.1-8.28-29.62-13.21-45.88-16.06-4.67-.83-9.34-2.14-14.35-1.05,2.75,2.41,5.6,4.69,8.21,7.25,9.43,9.24,18,19.2,20.72,33.38.32,1.64,1.53,1.74,2.7,2a71.46,71.46,0,0,1,23.23,10.38c12,7.87,20.5,18.54,22.41,34.23.26,2.12,1.39,2.11,3,2.12,11.94.15,23.81.64,34.58,5.72l4.55,2.62,0,0a59.71,59.71,0,0,1,5.63,4c7.37,6.5,13,14.56,18.06,23.14.95,1.62,1.67,2.59,3.93,1.6,11.86-5.18,23.33-4.65,34.56-.64a75.67,75.67,0,0,1,26.93,17.08c1,1,1.88,1.84,3.72,1.13,5.91-2.27,11.93-2.7,18-2.49,11,.39,21.4,3.16,31.55,6.75A12.57,12.57,0,0,0,1476.84,395.16Z"/><line class="cls-5" x1="1353.08" y1="317.42" x2="1268.97" y2="461.49"/><path class="cls-1" d="M922.24,13.05q-40,23.69-61.35,66.34c-1.42,2.84-2.51,5.84-3.75,8.77-2.67,1.1-3.37-1.17-4.27-2.71a63.67,63.67,0,0,0-13.78-15.86C828.27,60.3,815.52,54.54,802,50.22a151.3,151.3,0,0,0-27.43-6c-2.37-.3-4.42-1.48-6.77-1.76-1.85-1.34.21-1.91.78-2.44,7.37-6.78,15.81-11.47,24.63-15.35,19.37-8.53,39.34-13.08,59.62-15.29C873.4,7.09,893.77,7,913.75,10.39,916.71,10.9,919.74,11.26,922.24,13.05Z"/><path class="cls-2" d="M967,105.67a147.68,147.68,0,0,0,12.06-45c.45-4.3.52-8.58,1.06-12.87a3.7,3.7,0,0,0-1.78-1.55c-4.35-7.53-13.45-16-25.34-22.87-11.18-6.42-22.42-10-31-10.38h0a8.24,8.24,0,0,0-5.34,1.5,166.78,166.78,0,0,0-23.24,18c-13.7,12.51-24.15,27.58-32.86,44-2,3.71-3.76,7.43-4.18,11.6.17,2.33,1.93,2.49,3.59,2.75,14.93,2.33,29.28,6.25,42.57,13.13a35.21,35.21,0,0,0,3.42,2,141.45,141.45,0,0,1,12.42,8.8c8.57,6.88,16,15,23.4,23.17,3.86,1.27,6-1.76,8.13-4.4A126.26,126.26,0,0,0,967,105.67Z"/><path class="cls-3" d="M942.7,136.46c1.38.73,2.47.35,3.62-1a130.65,130.65,0,0,0,26-48.91,146.35,146.35,0,0,0,5.87-36c0-1.1-.65-3.28,1.94-2.71,5.5,4,9.77,9.3,13.77,14.83,20.28,28,34,59.51,38.26,95.87a90,90,0,0,1-1.15,30.3c-.14.64.62,2.66-1.48,1.83-4.81-3.47-8-8.57-12-12.95-11.32-12.63-24.18-23.19-39.3-30.61-9.08-4.45-18.8-7.26-29.32-7.23a20.69,20.69,0,0,1-4.39-.25C943.06,139.28,941.85,138.57,942.7,136.46Z"/><path class="cls-4" d="M1026.84,186a145.67,145.67,0,0,0-31.07-30.42c-14.66-10.4-30.38-18-49.37-17.55-1.47,0-3,.15-3.7-1.59-2.36-2.68-4.63-5.44-7.09-8-8.5-8.88-17.29-17.41-28.09-23.33h0l-4.69-2.69h0c-9.53-5.75-20.24-8.57-31-11.25-4.84-1.2-10-1.28-14.65-3A17.64,17.64,0,0,1,855,85.6C848.51,74.1,839,66,828,59.53c-14.1-8.28-29.62-13.21-45.88-16.07-4.67-.82-9.34-2.14-14.35-1,2.75,2.4,5.6,4.68,8.21,7.24,9.43,9.25,18,19.21,20.72,33.39.32,1.64,1.53,1.73,2.7,2a71.48,71.48,0,0,1,23.23,10.39c12,7.86,20.5,18.54,22.41,34.22.26,2.13,1.39,2.11,3,2.13,11.94.14,23.81.64,34.58,5.72l4.55,2.61,0,0a56.29,56.29,0,0,1,5.63,4c7.37,6.49,13,14.56,18.06,23.14,1,1.61,1.67,2.58,3.93,1.59,11.86-5.17,23.33-4.64,34.56-.64a75.7,75.7,0,0,1,26.93,17.09c1,1,1.88,1.84,3.72,1.13,5.91-2.28,11.93-2.7,18-2.49,11,.38,21.4,3.16,31.55,6.74A12.53,12.53,0,0,0,1026.84,186Z"/><line class="cls-5" x1="903.08" y1="108.27" x2="818.97" y2="252.34"/><path class="cls-1" d="M1822.24,849.63q-40,23.68-61.35,66.34c-1.42,2.84-2.51,5.84-3.75,8.76-2.67,1.11-3.37-1.16-4.27-2.7a63.67,63.67,0,0,0-13.78-15.86c-10.82-9.29-23.57-15-37.09-19.37a150.46,150.46,0,0,0-27.43-6c-2.37-.3-4.42-1.48-6.77-1.76-1.85-1.34.21-1.91.78-2.44,7.37-6.78,15.81-11.47,24.63-15.35,19.37-8.53,39.34-13.08,59.62-15.29,20.57-2.25,40.94-2.39,60.92,1.05C1816.71,847.48,1819.74,847.84,1822.24,849.63Z"/><path class="cls-2" d="M1867,942.25a147.68,147.68,0,0,0,12.06-45c.45-4.3.52-8.58,1.06-12.87a3.7,3.7,0,0,0-1.78-1.55c-4.35-7.53-13.45-16-25.34-22.87-11.18-6.42-22.42-10-31-10.38h0a8.24,8.24,0,0,0-5.34,1.5,167.47,167.47,0,0,0-23.24,18c-13.7,12.52-24.15,27.59-32.86,44-2,3.7-3.76,7.43-4.18,11.6.17,2.32,1.93,2.49,3.59,2.75,14.93,2.33,29.28,6.25,42.57,13.13a35.21,35.21,0,0,0,3.42,2,141.45,141.45,0,0,1,12.42,8.8c8.57,6.88,16,15,23.4,23.17,3.86,1.27,6-1.76,8.13-4.4A126.26,126.26,0,0,0,1867,942.25Z"/><path class="cls-4" d="M1926.84,1022.6a145.67,145.67,0,0,0-31.07-30.42c-14.66-10.4-30.38-18-49.37-17.55-1.47,0-3,.15-3.7-1.59-2.36-2.68-4.63-5.44-7.09-8-8.5-8.88-17.29-17.41-28.09-23.33h0l-4.69-2.69h0c-9.53-5.75-20.24-8.57-31-11.25-4.84-1.2-10-1.28-14.65-3a17.64,17.64,0,0,1-2.11-2.55c-6.52-11.5-16.06-19.65-27-26.07-14.1-8.28-29.62-13.21-45.88-16.07-4.67-.82-9.34-2.14-14.35-1,2.75,2.4,5.6,4.68,8.21,7.24,9.43,9.25,18,19.21,20.72,33.39.32,1.64,1.53,1.73,2.7,2A71.48,71.48,0,0,1,1722.66,932c12,7.86,20.5,18.54,22.41,34.22.26,2.13,1.39,2.11,3,2.13,11.94.14,23.81.64,34.58,5.72l4.55,2.61,0,0a57.86,57.86,0,0,1,5.63,4c7.37,6.5,13,14.57,18.06,23.15.95,1.61,1.67,2.58,3.93,1.59,11.86-5.17,23.33-4.64,34.56-.64a75.7,75.7,0,0,1,26.93,17.09c1,1,1.88,1.84,3.72,1.13,5.91-2.28,11.93-2.7,18-2.49,11,.38,21.4,3.16,31.55,6.74A12.53,12.53,0,0,0,1926.84,1022.6Z"/><line class="cls-5" x1="1803.08" y1="944.85" x2="1718.97" y2="1088.92"/><path class="cls-1" d="M1372.24,1058.78q-40,23.68-61.35,66.33c-1.42,2.84-2.51,5.84-3.75,8.77-2.67,1.1-3.37-1.17-4.27-2.71a63.85,63.85,0,0,0-13.78-15.86c-10.82-9.28-23.57-15-37.09-19.37a151.3,151.3,0,0,0-27.43-6c-2.37-.29-4.42-1.47-6.77-1.76-1.85-1.33.21-1.9.78-2.43,7.37-6.78,15.81-11.48,24.63-15.36,19.37-8.52,39.34-13.07,59.62-15.29,20.57-2.25,40.94-2.39,60.92,1C1366.71,1056.62,1369.74,1057,1372.24,1058.78Z"/><path class="cls-2" d="M1417,1151.39a147.61,147.61,0,0,0,12.06-45c.45-4.29.52-8.58,1.06-12.87a3.68,3.68,0,0,0-1.78-1.54c-4.35-7.54-13.45-16-25.34-22.87-11.18-6.42-22.42-10-31-10.38h0a8.29,8.29,0,0,0-5.34,1.5,167.54,167.54,0,0,0-23.24,18c-13.7,12.52-24.15,27.59-32.86,44-2,3.7-3.76,7.43-4.18,11.6.17,2.32,1.93,2.48,3.59,2.74,14.93,2.33,29.28,6.26,42.57,13.14a35.12,35.12,0,0,0,3.42,2,139.48,139.48,0,0,1,12.42,8.81c8.57,6.87,16,15,23.4,23.16,3.86,1.28,6-1.75,8.13-4.4A126,126,0,0,0,1417,1151.39Z"/><path class="cls-1" d="M922.24,849.63q-40,23.68-61.35,66.34c-1.42,2.84-2.51,5.84-3.75,8.76-2.67,1.11-3.37-1.16-4.27-2.7a63.67,63.67,0,0,0-13.78-15.86c-10.82-9.29-23.57-15-37.09-19.37a150.46,150.46,0,0,0-27.43-6c-2.37-.3-4.42-1.48-6.77-1.76-1.85-1.34.21-1.91.78-2.44,7.37-6.78,15.81-11.47,24.63-15.35,19.37-8.53,39.34-13.08,59.62-15.29,20.57-2.25,40.94-2.39,60.92,1.05C916.71,847.48,919.74,847.84,922.24,849.63Z"/><path class="cls-2" d="M967,942.25a147.68,147.68,0,0,0,12.06-45c.45-4.3.52-8.58,1.06-12.87a3.7,3.7,0,0,0-1.78-1.55c-4.35-7.53-13.45-16-25.34-22.87-11.18-6.42-22.42-10-31-10.38h0a8.24,8.24,0,0,0-5.34,1.5,167.47,167.47,0,0,0-23.24,18c-13.7,12.52-24.15,27.59-32.86,44-2,3.7-3.76,7.43-4.18,11.6.17,2.32,1.93,2.49,3.59,2.75,14.93,2.33,29.28,6.25,42.57,13.13a35.21,35.21,0,0,0,3.42,2,141.45,141.45,0,0,1,12.42,8.8c8.57,6.88,16,15,23.4,23.17,3.86,1.27,6-1.76,8.13-4.4A126.26,126.26,0,0,0,967,942.25Z"/><path class="cls-11" d="M942.7,973c1.38.73,2.47.35,3.62-1a130.65,130.65,0,0,0,26-48.91,146.35,146.35,0,0,0,5.87-36c0-1.1-.65-3.28,1.94-2.71,5.5,4,9.77,9.3,13.77,14.83,20.28,28,34,59.51,38.26,95.87a90,90,0,0,1-1.15,30.3c-.14.64.62,2.66-1.48,1.83-4.81-3.47-8-8.57-12-13-11.32-12.63-24.18-23.19-39.3-30.61-9.08-4.45-18.8-7.26-29.32-7.23a20.06,20.06,0,0,1-4.39-.26C943.06,975.86,941.85,975.15,942.7,973Z"/><path class="cls-4" d="M1026.84,1022.6a145.67,145.67,0,0,0-31.07-30.42c-14.66-10.4-30.38-18-49.37-17.55-1.47,0-3,.15-3.7-1.59-2.36-2.68-4.63-5.44-7.09-8-8.5-8.88-17.29-17.41-28.09-23.33h0L902.83,939h0c-9.53-5.75-20.24-8.57-31-11.25-4.84-1.2-10-1.28-14.65-3a17.64,17.64,0,0,1-2.11-2.55c-6.52-11.5-16.06-19.65-27-26.07-14.1-8.28-29.62-13.21-45.88-16.07-4.67-.82-9.34-2.14-14.35-1,2.75,2.4,5.6,4.68,8.21,7.24,9.43,9.25,18,19.21,20.72,33.39.32,1.64,1.53,1.73,2.7,2A71.48,71.48,0,0,1,822.66,932c12,7.86,20.5,18.54,22.41,34.22.26,2.13,1.39,2.11,3,2.13,11.94.14,23.81.64,34.58,5.72l4.55,2.61,0,0a57.86,57.86,0,0,1,5.63,4c7.37,6.5,13,14.57,18.06,23.15,1,1.61,1.67,2.58,3.93,1.59,11.86-5.17,23.33-4.64,34.56-.64a75.7,75.7,0,0,1,26.93,17.09c1,1,1.88,1.84,3.72,1.13,5.91-2.28,11.93-2.7,18-2.49,11,.38,21.4,3.16,31.55,6.74A12.53,12.53,0,0,0,1026.84,1022.6Z"/><line class="cls-5" x1="903.08" y1="944.85" x2="818.97" y2="1088.92"/><path class="cls-12" d="M1417,733.1a147.61,147.61,0,0,0,12.06-45c.45-4.29.52-8.58,1.06-12.87a3.68,3.68,0,0,0-1.78-1.54c-4.35-7.54-13.45-16-25.34-22.87-11.18-6.42-22.42-10-31-10.38h0a8.29,8.29,0,0,0-5.34,1.5,167.54,167.54,0,0,0-23.24,18c-13.7,12.52-24.15,27.59-32.86,44-2,3.7-3.76,7.43-4.18,11.6.17,2.32,1.93,2.48,3.59,2.74,14.93,2.33,29.28,6.26,42.57,13.14a35.12,35.12,0,0,0,3.42,2,139.48,139.48,0,0,1,12.42,8.81c8.57,6.87,16,15,23.4,23.16,3.86,1.28,6-1.75,8.13-4.4A126,126,0,0,0,1417,733.1Z"/><path class="cls-7" d="M1392.7,763.89c1.38.74,2.47.35,3.62-1a130.61,130.61,0,0,0,26-48.9,146.42,146.42,0,0,0,5.87-36c0-1.11-.65-3.28,1.94-2.72,5.5,4,9.77,9.3,13.77,14.83,20.28,28,34,59.52,38.26,95.88a90,90,0,0,1-1.15,30.29c-.14.64.62,2.67-1.48,1.84-4.81-3.48-8-8.57-12-13-11.32-12.63-24.18-23.2-39.3-30.62-9.08-4.45-18.8-7.26-29.32-7.23a20.69,20.69,0,0,1-4.39-.25C1393.06,766.71,1391.85,766,1392.7,763.89Z"/><path class="cls-13" d="M1476.84,813.45A146.15,146.15,0,0,0,1445.77,783c-14.66-10.39-30.38-18-49.37-17.55-1.47,0-3,.16-3.7-1.59-2.36-2.67-4.63-5.44-7.09-8-8.5-8.88-17.29-17.41-28.09-23.34h0l-4.69-2.69h0c-9.53-5.75-20.24-8.56-31-11.24-4.84-1.2-10-1.28-14.65-3A18.19,18.19,0,0,1,1305,713c-6.52-11.51-16.06-19.66-27-26.08-14.1-8.28-29.62-13.21-45.88-16.06-4.67-.83-9.34-2.14-14.35-1,2.75,2.41,5.6,4.69,8.21,7.25,9.43,9.24,18,19.2,20.72,33.38.32,1.64,1.53,1.74,2.7,2a71.46,71.46,0,0,1,23.23,10.38c12,7.87,20.5,18.54,22.41,34.23.26,2.12,1.39,2.11,3,2.12,11.94.15,23.81.64,34.58,5.72l4.55,2.62,0,0a59.71,59.71,0,0,1,5.63,4c7.37,6.5,13,14.56,18.06,23.14.95,1.62,1.67,2.59,3.93,1.6,11.86-5.18,23.33-4.65,34.56-.64a75.67,75.67,0,0,1,26.93,17.08c1,1,1.88,1.84,3.72,1.13,5.91-2.27,11.93-2.7,18-2.49,11,.39,21.4,3.16,31.55,6.75A12.57,12.57,0,0,0,1476.84,813.45Z"/><line class="cls-14" x1="1353.08" y1="735.71" x2="1268.97" y2="879.78"/><path class="cls-6" d="M922.24,431.34q-40,23.69-61.35,66.34c-1.42,2.84-2.51,5.84-3.75,8.76-2.67,1.11-3.37-1.16-4.27-2.7a63.67,63.67,0,0,0-13.78-15.86c-10.82-9.29-23.57-15.05-37.09-19.37a150.46,150.46,0,0,0-27.43-6c-2.37-.3-4.42-1.48-6.77-1.76-1.85-1.34.21-1.91.78-2.44,7.37-6.78,15.81-11.47,24.63-15.35,19.37-8.53,39.34-13.08,59.62-15.29,20.57-2.25,40.94-2.39,60.92,1.05C916.71,429.19,919.74,429.55,922.24,431.34Z"/><path class="cls-8" d="M967,524a147.68,147.68,0,0,0,12.06-45c.45-4.3.52-8.58,1.06-12.87a3.7,3.7,0,0,0-1.78-1.55C974,457,964.93,448.53,953,441.7c-11.18-6.42-22.42-10-31-10.38h0a8.24,8.24,0,0,0-5.34,1.5,166.78,166.78,0,0,0-23.24,18c-13.7,12.51-24.15,27.58-32.86,44-2,3.71-3.76,7.43-4.18,11.6.17,2.32,1.93,2.49,3.59,2.75,14.93,2.33,29.28,6.25,42.57,13.13a35.21,35.21,0,0,0,3.42,2,141.45,141.45,0,0,1,12.42,8.8c8.57,6.88,16,15,23.4,23.17,3.86,1.27,6-1.76,8.13-4.4A126.26,126.26,0,0,0,967,524Z"/><path class="cls-9" d="M1026.84,604.31a145.67,145.67,0,0,0-31.07-30.42c-14.66-10.4-30.38-18-49.37-17.55-1.47,0-3,.15-3.7-1.59-2.36-2.68-4.63-5.44-7.09-8-8.5-8.88-17.29-17.41-28.09-23.33h0l-4.69-2.69h0c-9.53-5.75-20.24-8.57-31-11.25-4.84-1.2-10-1.28-14.65-3a17.64,17.64,0,0,1-2.11-2.55c-6.52-11.5-16.06-19.65-27-26.07-14.1-8.28-29.62-13.21-45.88-16.07-4.67-.82-9.34-2.14-14.35-1,2.75,2.4,5.6,4.68,8.21,7.24,9.43,9.25,18,19.21,20.72,33.39.32,1.64,1.53,1.73,2.7,2a71.48,71.48,0,0,1,23.23,10.39c12,7.86,20.5,18.54,22.41,34.22.26,2.13,1.39,2.11,3,2.13,11.94.14,23.81.64,34.58,5.72l4.55,2.61,0,0a56.29,56.29,0,0,1,5.63,4c7.37,6.49,13,14.56,18.06,23.14,1,1.61,1.67,2.58,3.93,1.59,11.86-5.17,23.33-4.64,34.56-.64a75.7,75.7,0,0,1,26.93,17.09c1,1,1.88,1.84,3.72,1.13,5.91-2.28,11.93-2.7,18-2.49,11,.38,21.4,3.16,31.55,6.74A12.53,12.53,0,0,0,1026.84,604.31Z"/><line class="cls-10" x1="903.08" y1="526.56" x2="818.97" y2="670.63"/><path class="cls-1" d="M472.24,640.49q-40,23.68-61.35,66.33c-1.42,2.84-2.51,5.84-3.75,8.77-2.67,1.1-3.37-1.17-4.27-2.71A63.85,63.85,0,0,0,389.09,697c-10.82-9.28-23.57-15-37.09-19.37a151.3,151.3,0,0,0-27.43-6c-2.37-.29-4.42-1.47-6.77-1.76-1.85-1.33.21-1.9.78-2.43,7.37-6.78,15.81-11.48,24.63-15.36,19.37-8.52,39.34-13.07,59.62-15.29,20.57-2.25,40.94-2.39,60.92,1.05C466.71,638.33,469.74,638.69,472.24,640.49Z"/><path class="cls-2" d="M517,733.1a147.61,147.61,0,0,0,12.06-45c.45-4.29.52-8.58,1.06-12.87a3.68,3.68,0,0,0-1.78-1.54c-4.35-7.54-13.45-16-25.34-22.87-11.18-6.42-22.42-10-31-10.38h0a8.29,8.29,0,0,0-5.34,1.5,167.54,167.54,0,0,0-23.24,18c-13.7,12.52-24.15,27.59-32.86,44-2,3.7-3.76,7.43-4.18,11.6.17,2.32,1.93,2.48,3.59,2.74,14.93,2.33,29.28,6.26,42.57,13.14a35.12,35.12,0,0,0,3.42,2,139.48,139.48,0,0,1,12.42,8.81c8.57,6.87,16,15,23.4,23.16,3.86,1.28,6-1.75,8.13-4.4A126,126,0,0,0,517,733.1Z"/><path class="cls-1" d="M492.7,763.89c1.38.74,2.47.35,3.62-1a130.61,130.61,0,0,0,26-48.9,146.42,146.42,0,0,0,5.87-36c0-1.11-.65-3.28,1.94-2.72,5.5,4,9.77,9.3,13.77,14.83,20.28,28,34,59.52,38.26,95.88a90,90,0,0,1-1.15,30.29c-.14.64.62,2.67-1.48,1.84-4.81-3.48-8.05-8.57-12-13-11.32-12.63-24.18-23.2-39.3-30.62-9.08-4.45-18.8-7.26-29.32-7.23a20.69,20.69,0,0,1-4.39-.25C493.06,766.71,491.85,766,492.7,763.89Z"/><path class="cls-4" d="M576.84,813.45A146.15,146.15,0,0,0,545.77,783c-14.66-10.39-30.38-18-49.37-17.55-1.47,0-3,.16-3.7-1.59-2.36-2.67-4.63-5.44-7.09-8-8.5-8.88-17.29-17.41-28.09-23.34h0l-4.69-2.69h0c-9.53-5.75-20.24-8.56-31-11.24-4.84-1.2-10-1.28-14.65-3A18.19,18.19,0,0,1,405,713C398.51,701.53,389,693.38,378,687c-14.1-8.28-29.62-13.21-45.88-16.06-4.67-.83-9.34-2.14-14.35-1,2.75,2.41,5.6,4.69,8.21,7.25,9.43,9.24,17.95,19.2,20.72,33.38.32,1.64,1.53,1.74,2.7,2a71.46,71.46,0,0,1,23.23,10.38c12,7.87,20.5,18.54,22.41,34.23.26,2.12,1.39,2.11,3,2.12,11.94.15,23.81.64,34.58,5.72l4.55,2.62,0,0a59.71,59.71,0,0,1,5.63,4c7.37,6.5,13,14.56,18.06,23.14.95,1.62,1.67,2.59,3.93,1.6,11.86-5.18,23.33-4.65,34.56-.64a75.67,75.67,0,0,1,26.93,17.08c1,1,1.88,1.84,3.72,1.13,5.91-2.27,11.93-2.7,18-2.49,11,.39,21.4,3.16,31.55,6.75A12.57,12.57,0,0,0,576.84,813.45Z"/><line class="cls-5" x1="453.08" y1="735.71" x2="368.97" y2="879.78"/><path class="cls-3" d="M22.24,431.34q-40,23.69-61.35,66.34c-1.42,2.84-2.51,5.84-3.75,8.76-2.67,1.11-3.37-1.16-4.27-2.7a63.67,63.67,0,0,0-13.78-15.86c-10.82-9.29-23.57-15.05-37.09-19.37a150.46,150.46,0,0,0-27.43-6c-2.37-.3-4.42-1.48-6.77-1.76-1.85-1.34.21-1.91.78-2.44,7.37-6.78,15.81-11.47,24.63-15.35,19.37-8.53,39.34-13.08,59.62-15.29,20.57-2.25,40.94-2.39,60.92,1.05C16.71,429.19,19.74,429.55,22.24,431.34Z"/><path class="cls-2" d="M67,524A147.68,147.68,0,0,0,79.1,479c.45-4.3.52-8.58,1.06-12.87a3.7,3.7,0,0,0-1.78-1.55C74,457,64.93,448.53,53,441.7c-11.18-6.42-22.42-10-31-10.38h0a8.24,8.24,0,0,0-5.34,1.5,166.78,166.78,0,0,0-23.24,18c-13.7,12.51-24.15,27.58-32.86,44-2,3.71-3.76,7.43-4.18,11.6.17,2.32,1.93,2.49,3.59,2.75,14.93,2.33,29.28,6.25,42.57,13.13a35.21,35.21,0,0,0,3.42,2,141.45,141.45,0,0,1,12.42,8.8c8.57,6.88,16,15,23.4,23.17,3.86,1.27,6-1.76,8.13-4.4A126.26,126.26,0,0,0,67,524Z"/><path class="cls-3" d="M42.7,554.75c1.38.73,2.47.35,3.62-1a130.65,130.65,0,0,0,26-48.91,146.35,146.35,0,0,0,5.87-36c0-1.1-.65-3.28,1.94-2.71,5.5,4,9.77,9.3,13.77,14.83,20.28,28,34,59.51,38.26,95.87a90,90,0,0,1-1.15,30.3c-.14.64.62,2.66-1.48,1.83-4.81-3.47-8-8.57-12-13-11.32-12.63-24.18-23.19-39.3-30.61-9.08-4.45-18.8-7.26-29.32-7.23a20.06,20.06,0,0,1-4.39-.26C43.06,557.57,41.85,556.86,42.7,554.75Z"/><path class="cls-4" d="M126.84,604.31a145.67,145.67,0,0,0-31.07-30.42c-14.66-10.4-30.38-18-49.37-17.55-1.47,0-3,.15-3.7-1.59-2.36-2.68-4.63-5.44-7.09-8-8.5-8.88-17.29-17.41-28.09-23.33h0l-4.69-2.69h0c-9.53-5.75-20.24-8.57-31-11.25-4.84-1.2-10-1.28-14.65-3A17.64,17.64,0,0,1-45,503.89c-6.52-11.5-16.06-19.65-27-26.07-14.1-8.28-29.62-13.21-45.88-16.07-4.67-.82-9.34-2.14-14.35-1,2.75,2.4,5.6,4.68,8.21,7.24,9.43,9.25,17.95,19.21,20.72,33.39.32,1.64,1.53,1.73,2.7,2a71.48,71.48,0,0,1,23.23,10.39c12,7.86,20.5,18.54,22.41,34.22.26,2.13,1.39,2.11,3,2.13,11.94.14,23.81.64,34.58,5.72l4.55,2.61,0,0a56.29,56.29,0,0,1,5.63,4c7.37,6.49,13,14.56,18.06,23.14.95,1.61,1.67,2.58,3.93,1.59,11.86-5.17,23.33-4.64,34.56-.64a75.7,75.7,0,0,1,26.93,17.09c1,1,1.88,1.84,3.72,1.13C86,602.42,92,602,98,602.21c11,.38,21.4,3.16,31.55,6.74A12.53,12.53,0,0,0,126.84,604.31Z"/><line class="cls-5" x1="3.08" y1="526.56" x2="-81.03" y2="670.63"/><path class="cls-3" d="M922.24,13.05q-40,23.69-61.35,66.34c-1.42,2.84-2.51,5.84-3.75,8.77-2.67,1.1-3.37-1.17-4.27-2.71a63.67,63.67,0,0,0-13.78-15.86C828.27,60.3,815.52,54.54,802,50.22a151.3,151.3,0,0,0-27.43-6c-2.37-.3-4.42-1.48-6.77-1.76-1.85-1.34.21-1.91.78-2.44,7.37-6.78,15.81-11.47,24.63-15.35,19.37-8.53,39.34-13.08,59.62-15.29C873.4,7.09,893.77,7,913.75,10.39,916.71,10.9,919.74,11.26,922.24,13.05Z"/><path class="cls-2" d="M967,105.67a147.68,147.68,0,0,0,12.06-45c.45-4.3.52-8.58,1.06-12.87a3.7,3.7,0,0,0-1.78-1.55c-4.35-7.53-13.45-16-25.34-22.87-11.18-6.42-22.42-10-31-10.38h0a8.24,8.24,0,0,0-5.34,1.5,166.78,166.78,0,0,0-23.24,18c-13.7,12.51-24.15,27.58-32.86,44-2,3.71-3.76,7.43-4.18,11.6.17,2.33,1.93,2.49,3.59,2.75,14.93,2.33,29.28,6.25,42.57,13.13a35.21,35.21,0,0,0,3.42,2,141.45,141.45,0,0,1,12.42,8.8c8.57,6.88,16,15,23.4,23.17,3.86,1.27,6-1.76,8.13-4.4A126.26,126.26,0,0,0,967,105.67Z"/><path class="cls-4" d="M1026.84,186a145.67,145.67,0,0,0-31.07-30.42c-14.66-10.4-30.38-18-49.37-17.55-1.47,0-3,.15-3.7-1.59-2.36-2.68-4.63-5.44-7.09-8-8.5-8.88-17.29-17.41-28.09-23.33h0l-4.69-2.69h0c-9.53-5.75-20.24-8.57-31-11.25-4.84-1.2-10-1.28-14.65-3A17.64,17.64,0,0,1,855,85.6C848.51,74.1,839,66,828,59.53c-14.1-8.28-29.62-13.21-45.88-16.07-4.67-.82-9.34-2.14-14.35-1,2.75,2.4,5.6,4.68,8.21,7.24,9.43,9.25,18,19.21,20.72,33.39.32,1.64,1.53,1.73,2.7,2a71.48,71.48,0,0,1,23.23,10.39c12,7.86,20.5,18.54,22.41,34.22.26,2.13,1.39,2.11,3,2.13,11.94.14,23.81.64,34.58,5.72l4.55,2.61,0,0a56.29,56.29,0,0,1,5.63,4c7.37,6.49,13,14.56,18.06,23.14,1,1.61,1.67,2.58,3.93,1.59,11.86-5.17,23.33-4.64,34.56-.64a75.7,75.7,0,0,1,26.93,17.09c1,1,1.88,1.84,3.72,1.13,5.91-2.28,11.93-2.7,18-2.49,11,.38,21.4,3.16,31.55,6.74A12.53,12.53,0,0,0,1026.84,186Z"/><line class="cls-5" x1="903.08" y1="108.27" x2="818.97" y2="252.34"/><path class="cls-11" d="M472.24,222.2q-40,23.69-61.35,66.33c-1.42,2.84-2.51,5.84-3.75,8.77-2.67,1.1-3.37-1.17-4.27-2.71a63.85,63.85,0,0,0-13.78-15.86c-10.82-9.28-23.57-15-37.09-19.37a151.3,151.3,0,0,0-27.43-6c-2.37-.29-4.42-1.47-6.77-1.76-1.85-1.33.21-1.9.78-2.43,7.37-6.78,15.81-11.48,24.63-15.36,19.37-8.52,39.34-13.07,59.62-15.29,20.57-2.25,40.94-2.39,60.92,1.05C466.71,220,469.74,220.4,472.24,222.2Z"/><path class="cls-15" d="M517,314.81a147.61,147.61,0,0,0,12.06-45c.45-4.29.52-8.58,1.06-12.87a3.68,3.68,0,0,0-1.78-1.54c-4.35-7.54-13.45-16-25.34-22.87-11.18-6.42-22.42-10-31-10.38h0a8.29,8.29,0,0,0-5.34,1.5,167.54,167.54,0,0,0-23.24,18c-13.7,12.52-24.15,27.59-32.86,44-2,3.7-3.76,7.43-4.18,11.6.17,2.32,1.93,2.48,3.59,2.74,14.93,2.33,29.28,6.26,42.57,13.14a35.12,35.12,0,0,0,3.42,2,139.48,139.48,0,0,1,12.42,8.81c8.57,6.87,16,15,23.4,23.16,3.86,1.28,6-1.75,8.13-4.4A126,126,0,0,0,517,314.81Z"/><path class="cls-11" d="M492.7,345.6c1.38.74,2.47.35,3.62-1a130.61,130.61,0,0,0,26-48.9,146.42,146.42,0,0,0,5.87-36c0-1.11-.65-3.28,1.94-2.72,5.5,4,9.77,9.3,13.77,14.83,20.28,28,34,59.52,38.26,95.88A90,90,0,0,1,581.05,398c-.14.64.62,2.67-1.48,1.84-4.81-3.48-8.05-8.57-12-12.95-11.32-12.63-24.18-23.2-39.3-30.62-9.08-4.45-18.8-7.26-29.32-7.23a20.69,20.69,0,0,1-4.39-.25C493.06,348.42,491.85,347.71,492.7,345.6Z"/><path class="cls-16" d="M576.84,395.16a146.15,146.15,0,0,0-31.07-30.42c-14.66-10.39-30.38-18-49.37-17.55-1.47,0-3,.16-3.7-1.59-2.36-2.67-4.63-5.44-7.09-8-8.5-8.88-17.29-17.41-28.09-23.34h0l-4.69-2.69h0c-9.53-5.75-20.24-8.56-31-11.24-4.84-1.2-10-1.28-14.65-3a18.19,18.19,0,0,1-2.11-2.55c-6.52-11.51-16.06-19.66-27-26.08-14.1-8.28-29.62-13.21-45.88-16.06-4.67-.83-9.34-2.14-14.35-1.05,2.75,2.41,5.6,4.69,8.21,7.25,9.43,9.24,17.95,19.2,20.72,33.38.32,1.64,1.53,1.74,2.7,2a71.46,71.46,0,0,1,23.23,10.38c12,7.87,20.5,18.54,22.41,34.23.26,2.12,1.39,2.11,3,2.12,11.94.15,23.81.64,34.58,5.72l4.55,2.62,0,0a59.71,59.71,0,0,1,5.63,4c7.37,6.5,13,14.56,18.06,23.14.95,1.62,1.67,2.59,3.93,1.6,11.86-5.18,23.33-4.65,34.56-.64a75.67,75.67,0,0,1,26.93,17.08c1,1,1.88,1.84,3.72,1.13,5.91-2.27,11.93-2.7,18-2.49,11,.39,21.4,3.16,31.55,6.75A12.57,12.57,0,0,0,576.84,395.16Z"/><line class="cls-17" x1="453.08" y1="317.42" x2="368.97" y2="461.49"/><path class="cls-1" d="M22.24,13.05q-40,23.69-61.35,66.34c-1.42,2.84-2.51,5.84-3.75,8.77-2.67,1.1-3.37-1.17-4.27-2.71A63.67,63.67,0,0,0-60.91,69.59C-71.73,60.3-84.48,54.54-98,50.22a151.3,151.3,0,0,0-27.43-6c-2.37-.3-4.42-1.48-6.77-1.76-1.85-1.34.21-1.91.78-2.44,7.37-6.78,15.81-11.47,24.63-15.35C-87.42,16.1-67.45,11.55-47.17,9.34-26.6,7.09-6.23,7,13.75,10.39,16.71,10.9,19.74,11.26,22.24,13.05Z"/><path class="cls-2" d="M67,105.67a147.68,147.68,0,0,0,12.06-45c.45-4.3.52-8.58,1.06-12.87a3.7,3.7,0,0,0-1.78-1.55C74,38.75,64.93,30.24,53,23.41,41.86,17,30.62,13.42,22.06,13h0a8.24,8.24,0,0,0-5.34,1.5,166.78,166.78,0,0,0-23.24,18c-13.7,12.51-24.15,27.58-32.86,44-2,3.71-3.76,7.43-4.18,11.6.17,2.33,1.93,2.49,3.59,2.75C-25.08,93.2-10.73,97.12,2.56,104A35.21,35.21,0,0,0,6,106a141.45,141.45,0,0,1,12.42,8.8c8.57,6.88,16,15,23.4,23.17,3.86,1.27,6-1.76,8.13-4.4A126.26,126.26,0,0,0,67,105.67Z"/><path class="cls-1" d="M42.7,136.46c1.38.73,2.47.35,3.62-1a130.65,130.65,0,0,0,26-48.91,146.35,146.35,0,0,0,5.87-36c0-1.1-.65-3.28,1.94-2.71,5.5,4,9.77,9.3,13.77,14.83,20.28,28,34,59.51,38.26,95.87a90,90,0,0,1-1.15,30.3c-.14.64.62,2.66-1.48,1.83-4.81-3.47-8-8.57-12-12.95-11.32-12.63-24.18-23.19-39.3-30.61-9.08-4.45-18.8-7.26-29.32-7.23a20.69,20.69,0,0,1-4.39-.25C43.06,139.28,41.85,138.57,42.7,136.46Z"/><path class="cls-4" d="M126.84,186A145.67,145.67,0,0,0,95.77,155.6c-14.66-10.4-30.38-18-49.37-17.55-1.47,0-3,.15-3.7-1.59-2.36-2.68-4.63-5.44-7.09-8-8.5-8.88-17.29-17.41-28.09-23.33h0l-4.69-2.69h0c-9.53-5.75-20.24-8.57-31-11.25-4.84-1.2-10-1.28-14.65-3A17.64,17.64,0,0,1-45,85.6C-51.49,74.1-61,66-72,59.53c-14.1-8.28-29.62-13.21-45.88-16.07-4.67-.82-9.34-2.14-14.35-1,2.75,2.4,5.6,4.68,8.21,7.24,9.43,9.25,17.95,19.21,20.72,33.39.32,1.64,1.53,1.73,2.7,2A71.48,71.48,0,0,1-77.34,95.44c12,7.86,20.5,18.54,22.41,34.22.26,2.13,1.39,2.11,3,2.13,11.94.14,23.81.64,34.58,5.72l4.55,2.61,0,0a56.29,56.29,0,0,1,5.63,4c7.37,6.49,13,14.56,18.06,23.14.95,1.61,1.67,2.58,3.93,1.59,11.86-5.17,23.33-4.64,34.56-.64a75.7,75.7,0,0,1,26.93,17.09c1,1,1.88,1.84,3.72,1.13,5.91-2.28,11.93-2.7,18-2.49,11,.38,21.4,3.16,31.55,6.74A12.53,12.53,0,0,0,126.84,186Z"/><line class="cls-5" x1="3.08" y1="108.27" x2="-81.03" y2="252.34"/><path class="cls-11" d="M922.24,849.63q-40,23.68-61.35,66.34c-1.42,2.84-2.51,5.84-3.75,8.76-2.67,1.11-3.37-1.16-4.27-2.7a63.67,63.67,0,0,0-13.78-15.86c-10.82-9.29-23.57-15-37.09-19.37a150.46,150.46,0,0,0-27.43-6c-2.37-.3-4.42-1.48-6.77-1.76-1.85-1.34.21-1.91.78-2.44,7.37-6.78,15.81-11.47,24.63-15.35,19.37-8.53,39.34-13.08,59.62-15.29,20.57-2.25,40.94-2.39,60.92,1.05C916.71,847.48,919.74,847.84,922.24,849.63Z"/><path class="cls-15" d="M967,942.25a147.68,147.68,0,0,0,12.06-45c.45-4.3.52-8.58,1.06-12.87a3.7,3.7,0,0,0-1.78-1.55c-4.35-7.53-13.45-16-25.34-22.87-11.18-6.42-22.42-10-31-10.38h0a8.24,8.24,0,0,0-5.34,1.5,167.47,167.47,0,0,0-23.24,18c-13.7,12.52-24.15,27.59-32.86,44-2,3.7-3.76,7.43-4.18,11.6.17,2.32,1.93,2.49,3.59,2.75,14.93,2.33,29.28,6.25,42.57,13.13a35.21,35.21,0,0,0,3.42,2,141.45,141.45,0,0,1,12.42,8.8c8.57,6.88,16,15,23.4,23.17,3.86,1.27,6-1.76,8.13-4.4A126.26,126.26,0,0,0,967,942.25Z"/><path class="cls-16" d="M1026.84,1022.6a145.67,145.67,0,0,0-31.07-30.42c-14.66-10.4-30.38-18-49.37-17.55-1.47,0-3,.15-3.7-1.59-2.36-2.68-4.63-5.44-7.09-8-8.5-8.88-17.29-17.41-28.09-23.33h0L902.83,939h0c-9.53-5.75-20.24-8.57-31-11.25-4.84-1.2-10-1.28-14.65-3a17.64,17.64,0,0,1-2.11-2.55c-6.52-11.5-16.06-19.65-27-26.07-14.1-8.28-29.62-13.21-45.88-16.07-4.67-.82-9.34-2.14-14.35-1,2.75,2.4,5.6,4.68,8.21,7.24,9.43,9.25,18,19.21,20.72,33.39.32,1.64,1.53,1.73,2.7,2A71.48,71.48,0,0,1,822.66,932c12,7.86,20.5,18.54,22.41,34.22.26,2.13,1.39,2.11,3,2.13,11.94.14,23.81.64,34.58,5.72l4.55,2.61,0,0a57.86,57.86,0,0,1,5.63,4c7.37,6.5,13,14.57,18.06,23.15,1,1.61,1.67,2.58,3.93,1.59,11.86-5.17,23.33-4.64,34.56-.64a75.7,75.7,0,0,1,26.93,17.09c1,1,1.88,1.84,3.72,1.13,5.91-2.28,11.93-2.7,18-2.49,11,.38,21.4,3.16,31.55,6.74A12.53,12.53,0,0,0,1026.84,1022.6Z"/><line class="cls-17" x1="903.08" y1="944.85" x2="818.97" y2="1088.92"/><path class="cls-1" d="M472.24,1058.78q-40,23.68-61.35,66.33c-1.42,2.84-2.51,5.84-3.75,8.77-2.67,1.1-3.37-1.17-4.27-2.71a63.85,63.85,0,0,0-13.78-15.86c-10.82-9.28-23.57-15-37.09-19.37a151.3,151.3,0,0,0-27.43-6c-2.37-.29-4.42-1.47-6.77-1.76-1.85-1.33.21-1.9.78-2.43,7.37-6.78,15.81-11.48,24.63-15.36,19.37-8.52,39.34-13.07,59.62-15.29,20.57-2.25,40.94-2.39,60.92,1C466.71,1056.62,469.74,1057,472.24,1058.78Z"/><path class="cls-2" d="M517,1151.39a147.61,147.61,0,0,0,12.06-45c.45-4.29.52-8.58,1.06-12.87a3.68,3.68,0,0,0-1.78-1.54c-4.35-7.54-13.45-16-25.34-22.87-11.18-6.42-22.42-10-31-10.38h0a8.29,8.29,0,0,0-5.34,1.5,167.54,167.54,0,0,0-23.24,18c-13.7,12.52-24.15,27.59-32.86,44-2,3.7-3.76,7.43-4.18,11.6.17,2.32,1.93,2.48,3.59,2.74,14.93,2.33,29.28,6.26,42.57,13.14a35.12,35.12,0,0,0,3.42,2,139.48,139.48,0,0,1,12.42,8.81c8.57,6.87,16,15,23.4,23.16,3.86,1.28,6-1.75,8.13-4.4A126,126,0,0,0,517,1151.39Z"/><path class="cls-6" d="M22.24,849.63q-40,23.68-61.35,66.34c-1.42,2.84-2.51,5.84-3.75,8.76-2.67,1.11-3.37-1.16-4.27-2.7a63.67,63.67,0,0,0-13.78-15.86c-10.82-9.29-23.57-15-37.09-19.37a150.46,150.46,0,0,0-27.43-6c-2.37-.3-4.42-1.48-6.77-1.76-1.85-1.34.21-1.91.78-2.44,7.37-6.78,15.81-11.47,24.63-15.35,19.37-8.53,39.34-13.08,59.62-15.29,20.57-2.25,40.94-2.39,60.92,1.05C16.71,847.48,19.74,847.84,22.24,849.63Z"/><path class="cls-8" d="M67,942.25a147.68,147.68,0,0,0,12.06-45c.45-4.3.52-8.58,1.06-12.87a3.7,3.7,0,0,0-1.78-1.55C74,875.33,64.93,866.82,53,860c-11.18-6.42-22.42-10-31-10.38h0a8.24,8.24,0,0,0-5.34,1.5,167.47,167.47,0,0,0-23.24,18c-13.7,12.52-24.15,27.59-32.86,44-2,3.7-3.76,7.43-4.18,11.6.17,2.32,1.93,2.49,3.59,2.75,14.93,2.33,29.28,6.25,42.57,13.13a35.21,35.21,0,0,0,3.42,2,141.45,141.45,0,0,1,12.42,8.8c8.57,6.88,16,15,23.4,23.17,3.86,1.27,6-1.76,8.13-4.4A126.26,126.26,0,0,0,67,942.25Z"/><path class="cls-6" d="M42.7,973c1.38.73,2.47.35,3.62-1a130.65,130.65,0,0,0,26-48.91,146.35,146.35,0,0,0,5.87-36c0-1.1-.65-3.28,1.94-2.71,5.5,4,9.77,9.3,13.77,14.83,20.28,28,34,59.51,38.26,95.87a90,90,0,0,1-1.15,30.3c-.14.64.62,2.66-1.48,1.83-4.81-3.47-8-8.57-12-13-11.32-12.63-24.18-23.19-39.3-30.61-9.08-4.45-18.8-7.26-29.32-7.23a20.06,20.06,0,0,1-4.39-.26C43.06,975.86,41.85,975.15,42.7,973Z"/><path class="cls-9" d="M126.84,1022.6a145.67,145.67,0,0,0-31.07-30.42c-14.66-10.4-30.38-18-49.37-17.55-1.47,0-3,.15-3.7-1.59-2.36-2.68-4.63-5.44-7.09-8-8.5-8.88-17.29-17.41-28.09-23.33h0L2.83,939h0c-9.53-5.75-20.24-8.57-31-11.25-4.84-1.2-10-1.28-14.65-3A17.64,17.64,0,0,1-45,922.18c-6.52-11.5-16.06-19.65-27-26.07-14.1-8.28-29.62-13.21-45.88-16.07-4.67-.82-9.34-2.14-14.35-1,2.75,2.4,5.6,4.68,8.21,7.24,9.43,9.25,17.95,19.21,20.72,33.39.32,1.64,1.53,1.73,2.7,2A71.48,71.48,0,0,1-77.34,932c12,7.86,20.5,18.54,22.41,34.22.26,2.13,1.39,2.11,3,2.13,11.94.14,23.81.64,34.58,5.72l4.55,2.61,0,0a57.86,57.86,0,0,1,5.63,4c7.37,6.5,13,14.57,18.06,23.15.95,1.61,1.67,2.58,3.93,1.59,11.86-5.17,23.33-4.64,34.56-.64a75.7,75.7,0,0,1,26.93,17.09c1,1,1.88,1.84,3.72,1.13,5.91-2.28,11.93-2.7,18-2.49,11,.38,21.4,3.16,31.55,6.74A12.53,12.53,0,0,0,126.84,1022.6Z"/><line class="cls-10" x1="3.08" y1="944.85" x2="-81.03" y2="1088.92"/><path class="cls-2" d="M517,733.1a147.61,147.61,0,0,0,12.06-45c.45-4.29.52-8.58,1.06-12.87a3.68,3.68,0,0,0-1.78-1.54c-4.35-7.54-13.45-16-25.34-22.87-11.18-6.42-22.42-10-31-10.38h0a8.29,8.29,0,0,0-5.34,1.5,167.54,167.54,0,0,0-23.24,18c-13.7,12.52-24.15,27.59-32.86,44-2,3.7-3.76,7.43-4.18,11.6.17,2.32,1.93,2.48,3.59,2.74,14.93,2.33,29.28,6.26,42.57,13.14a35.12,35.12,0,0,0,3.42,2,139.48,139.48,0,0,1,12.42,8.81c8.57,6.87,16,15,23.4,23.16,3.86,1.28,6-1.75,8.13-4.4A126,126,0,0,0,517,733.1Z"/><path class="cls-1" d="M492.7,763.89c1.38.74,2.47.35,3.62-1a130.61,130.61,0,0,0,26-48.9,146.42,146.42,0,0,0,5.87-36c0-1.11-.65-3.28,1.94-2.72,5.5,4,9.77,9.3,13.77,14.83,20.28,28,34,59.52,38.26,95.88a90,90,0,0,1-1.15,30.29c-.14.64.62,2.67-1.48,1.84-4.81-3.48-8.05-8.57-12-13-11.32-12.63-24.18-23.2-39.3-30.62-9.08-4.45-18.8-7.26-29.32-7.23a20.69,20.69,0,0,1-4.39-.25C493.06,766.71,491.85,766,492.7,763.89Z"/><path class="cls-4" d="M576.84,813.45A146.15,146.15,0,0,0,545.77,783c-14.66-10.39-30.38-18-49.37-17.55-1.47,0-3,.16-3.7-1.59-2.36-2.67-4.63-5.44-7.09-8-8.5-8.88-17.29-17.41-28.09-23.34h0l-4.69-2.69h0c-9.53-5.75-20.24-8.56-31-11.24-4.84-1.2-10-1.28-14.65-3A18.19,18.19,0,0,1,405,713C398.51,701.53,389,693.38,378,687c-14.1-8.28-29.62-13.21-45.88-16.06-4.67-.83-9.34-2.14-14.35-1,2.75,2.41,5.6,4.69,8.21,7.25,9.43,9.24,17.95,19.2,20.72,33.38.32,1.64,1.53,1.74,2.7,2a71.46,71.46,0,0,1,23.23,10.38c12,7.87,20.5,18.54,22.41,34.23.26,2.12,1.39,2.11,3,2.12,11.94.15,23.81.64,34.58,5.72l4.55,2.62,0,0a59.71,59.71,0,0,1,5.63,4c7.37,6.5,13,14.56,18.06,23.14.95,1.62,1.67,2.59,3.93,1.6,11.86-5.18,23.33-4.65,34.56-.64a75.67,75.67,0,0,1,26.93,17.08c1,1,1.88,1.84,3.72,1.13,5.91-2.27,11.93-2.7,18-2.49,11,.39,21.4,3.16,31.55,6.75A12.57,12.57,0,0,0,576.84,813.45Z"/><line class="cls-5" x1="453.08" y1="735.71" x2="368.97" y2="879.78"/></g></svg>