<svg xmlns="http://www.w3.org/2000/svg" viewBox="0 0 1158 1080"><defs><style>.cls-1{fill:#8e80a5;}.cls-2{fill:#3f3f3f;}.cls-3{fill:#404040;}.cls-4{fill:gray;}.cls-5{fill:#7e7e7e;}.cls-6{fill:#564177;}.cls-7{fill:#bdbdbd;}.cls-8{fill:#bebebe;}.cls-9{fill:#c5bed1;}.cls-10{fill:#ffebf3;stroke:#de4575;stroke-miterlimit:10;stroke-width:11.34px;}</style></defs><g id="レイヤー_7" data-name="レイヤー 7"><path class="cls-1" d="M809.13,617l-.11,0-.11,0v-5c.06-.12.13-.14.21,0Z"/><path class="cls-2" d="M543.25,328.35c-1.51.52-3.06.13-4.59.21-.06-.06-.08-.11,0-.15s0-.06.08-.06Z"/><path class="cls-3" d="M553.59,328.55c-1.45-.05-2.92.3-4.35-.2h4.32c.07,0,.1.07.08.12S553.61,328.55,553.59,328.55Z"/><path class="cls-1" d="M808.92,609.32V606c.08-.1.15-.1.21,0v3.36C809.05,609.45,809,609.45,808.92,609.32Z"/><path class="cls-4" d="M538.69,328.35a.76.76,0,0,1,0,.21l-2.63,0c-.07-.05-.08-.09-.06-.13s0-.06.08-.06Z"/><path class="cls-5" d="M553.59,328.55a.64.64,0,0,0,0-.2h2.64c.08,0,.1.08.08.13s0,.07-.06.07Z"/><path class="cls-6" d="M808.92,609.32a.75.75,0,0,0,.21,0V612l-.21,0Z"/><path class="cls-7" d="M536.05,328.35a1.23,1.23,0,0,0,0,.19h-2.16a1.5,1.5,0,0,0,0-.2Z"/><path class="cls-8" d="M556.22,328.55a1.36,1.36,0,0,1,0-.2h1.92a.31.31,0,0,1,0,.19Z"/><path class="cls-9" d="M809.13,606h-.21l0-1.68a.31.31,0,0,1,.19,0Z"/><path class="cls-10" d="M526.6,2.8c16.74.64,33.46,1.59,50.14,3.1q31.63,2.85,62.94,8.21c8.49,1.46,17.05,2.61,25.18,5.68a38.91,38.91,0,0,1,10.58,5.55c-2,1.33-4.31.55-6.46.84-8.25,1.11-15.13,5.17-21.9,9.6a747.28,747.28,0,0,0-67.6,50.09A679,679,0,0,0,520,141.39a610.77,610.77,0,0,0-53.21,65.1,791.78,791.78,0,0,0-45,70.72c-8.8,15.58-17.79,31.08-24.58,47.7a114.49,114.49,0,0,0-6.31,20.75c-.25,1.26-.19,2.65-1.55,3.41-3.13-1.38-4.82-4.22-6.37-6.95a270,270,0,0,0-28.62-41,298.32,298.32,0,0,0-36.17-35.8c-28.2-23.61-59.58-42.16-92.7-57.84-31.46-14.89-64.22-26.23-97.83-35.25-28.23-7.58-57-12.64-85.64-17.94a116.07,116.07,0,0,0-21-2,113.05,113.05,0,0,0-12.61,1.06c-1.57.18-3.15.81-4.76.16s-2.25-2.3-3.6-3.2v-2.41a8.58,8.58,0,0,1,2-2.64c10-7.26,18.85-16,28.88-23.26a391.46,391.46,0,0,1,48.67-30.2c29.22-15.28,59.62-27.78,90.7-38.67a846.76,846.76,0,0,1,123-32.57q36-6.81,72.48-11Q389.27,6.78,412.87,5C426.8,4,440.72,3,454.7,2.87c3.71,0,7.43-.18,11.15-.23h11.8c3.82-.18,7.66.38,11.47-.31h15.1c3.6.69,7.23.13,10.85.31h6.59A31.35,31.35,0,0,1,526.6,2.8Z"/><path class="cls-10" d="M922.1,176.93c3.47-.84,6.33.1,9.19,2.31,18.78,14.53,34.3,32.13,48.44,51a953.83,953.83,0,0,1,93.1,151.37A847.72,847.72,0,0,1,1140.12,573a883.32,883.32,0,0,1,14.87,88.8c1.35,11.57,2.2,23.2,2.65,34.84.38,1.45.09,2.92.18,4.37v27.43c.09,20.06-2.49,39.82-6.64,59.41a35.53,35.53,0,0,0-.61,7.48c0,2.09-.65,3.74-2.7,4.59h-3c-.27-.88-1.35-.59-1.8-1.22-1.31-1.36-1.61-3.22-2.37-4.85-3.68-7.84-9.5-14.19-14.72-20.93q-15-19.46-31.6-37.65c-9.93-11-20-21.76-30.68-32a604.17,604.17,0,0,0-93.63-73.87c-25.78-16.43-52.64-30.73-81.46-41.11a291.49,291.49,0,0,0-66.76-15.94c-8.49-.93-17-1.48-25.52-1.85a146.08,146.08,0,0,0-17.13.12c-1.34.1-2.85.4-4-.81a1.32,1.32,0,0,1,.83-1.16c6.48-3,11.14-8.16,15.55-13.57a600.41,600.41,0,0,0,49.26-69.68,560.47,560.47,0,0,0,37.4-75.33c9.74-23.64,18.5-47.62,25.27-72.31a538.84,538.84,0,0,0,14.12-68.21c1.65-11.85,3-23.72,4.09-35.63A325.62,325.62,0,0,0,923,193.54a107.27,107.27,0,0,0-1.29-13.49C921.5,179,921.1,177.85,922.1,176.93Z"/><path class="cls-10" d="M504.78,568.37c-18.81-9.37-38.79-15.14-59.5-19-21.69-4-43.63-5.53-65.66-6.23-9.65-.3-19.3-.36-28.95-.54-7.38-.14-9.84-2.4-10.76-9.74-5.36-42.62-22.31-79.78-52-111-19.54-20.55-42.45-36.56-66.88-50.59-26-14.94-53.4-26.52-82.88-32.73-5.6-1.18-8-4.61-9.13-10.1C122.26,294.88,107.42,265,86.82,238c-21-27.57-45.15-52.1-71.61-74.41-3.91-3.3-7.71-6.74-11.56-10.11,13.71-3.16,27.4-2,41,.51,25.38,4.67,50.79,9.16,75.82,15.56,40.47,10.34,79.67,24.13,117,42.94,33.5,16.89,65,36.82,92.71,62.36a273.69,273.69,0,0,1,52.93,66.1,32.13,32.13,0,0,0,6.36,7.95c9.8,7.31,21.66,8.24,33.06,9.91A538.3,538.3,0,0,1,485,372.16c15.64,4.22,31.17,8.78,46.47,14.1,20.85,7.25,41,16.06,60,27.42,12.68,7.58,25.78,14.45,38.28,22.37a394.41,394.41,0,0,1,44.49,33.1c15.64,13.29,30.54,27.37,44.89,42s28.56,29.69,41.67,45.61a88.52,88.52,0,0,1,6.53,8.27,7.44,7.44,0,0,0,5.45,3.42,3.56,3.56,0,0,1,2.69,1.16c9,.08,18.08-.19,27.11.27,37.26,1.87,72.77,10.93,106.85,25.9,39.18,17.2,74.72,40.35,108.39,66.53a579.21,579.21,0,0,1,60.82,55,731,731,0,0,1,57.29,67.23c3.23,4.26,6.06,8.76,7.11,14.13-12.53-4-24.92-8.36-37.56-12-24.93-7.23-50.21-12.87-76.06-15.5-27-2.75-54-3.24-80.69,2.79a153,153,0,0,0-21,6.37c-5.07,1.94-9.64,1.4-13.68-2.4a445.72,445.72,0,0,0-34-29.4C848,723.88,812.88,705.29,773.72,694.7a200,200,0,0,0-64.47-6.94,188.35,188.35,0,0,0-63.83,15.4c-.83.36-1.66.72-2.5,1.06-6.95,2.77-10.86,1.55-14.81-4.78-5.84-9.39-11.46-18.92-17.43-28.21a396,396,0,0,0-48-61.14c-11.57-12-24.67-21.84-38.66-30.67"/><path class="cls-10" d="M775.48,569.64a11.09,11.09,0,0,1-10.39-6.4c-1.35-2.51-3.63-4.52-5.51-6.74a816.24,816.24,0,0,0-82.39-83.84C653.85,452.11,628,435.35,601,419.9c-25.42-14.58-51.51-27.38-79.49-36.21-25.57-8.07-51.36-15.28-77.66-20.55-13-2.61-26.27-3.68-39.15-6.95-2.72-.69-5.37-1.66-8.1-2.28a11.07,11.07,0,0,1-7.12-5c4.17-24.63,17-45.55,28.82-66.86,23.91-43.09,51.29-83.8,83.36-121.3,24.18-28.28,51.11-53.73,79.75-77.41a705.85,705.85,0,0,1,69.06-50.55c7.66-4.9,15.75-7.94,25-7.41a281.59,281.59,0,0,1,28.94,3.86c27,5.48,52.67,14.8,77.45,26.69,33.78,16.2,65.06,36.23,93.11,61.15,15.37,13.66,29.36,28.57,40.81,45.76,2.92,4.38,5.49,8.86,6.35,14.13a200.78,200.78,0,0,1,1.51,38.51A562.23,562.23,0,0,1,884.9,395.76c-15.82,40-34.56,78.48-58.75,114.17-11.34,16.74-23.4,32.95-36.35,48.49C785.84,563.17,781.29,567.23,775.48,569.64Z"/><path class="cls-10" d="M226.32,1078.48a11.12,11.12,0,0,1-9.59-16.71L582.9,434.57a11.11,11.11,0,0,1,19.19,11.2L235.92,1073A11.09,11.09,0,0,1,226.32,1078.48Z"/></g></svg>