<svg xmlns="http://www.w3.org/2000/svg" viewBox="0 0 1125 2436"><defs><style>.cls-1{fill:#ea98b9;}.cls-2{fill:#d8828e;}.cls-3{fill:#cc7583;}.cls-12,.cls-16,.cls-4,.cls-8{fill:none;stroke-linecap:round;stroke-miterlimit:10;stroke-width:5.39px;}.cls-4{stroke:#900;}.cls-5{fill:#79bca9;}.cls-6{fill:#aefcf2;}.cls-7{fill:#5c937f;}.cls-8{stroke:#006b4c;}.cls-9{fill:#eb973b;}.cls-10{fill:#f4ad67;}.cls-11{fill:#bc7415;}.cls-12{stroke:#6b4a00;}.cls-13{fill:#eddc62;}.cls-14{fill:#f7e579;}.cls-15{fill:#afaf46;}.cls-16{stroke:#776900;}.cls-17{fill:#bf5564;}</style></defs><g id="umb"><path class="cls-1" d="M1069.7,22.34q-42.2,25-64.72,70c-1.5,3-2.65,6.16-4,9.25-2.82,1.16-3.55-1.24-4.51-2.86A67,67,0,0,0,982,82c-11.42-9.8-24.87-15.87-39.13-20.44a159.94,159.94,0,0,0-28.94-6.37c-2.5-.31-4.66-1.55-7.14-1.86-1.95-1.4.22-2,.83-2.56,7.76-7.16,16.67-12.11,26-16.2,20.44-9,41.51-13.8,62.9-16.13,21.7-2.38,43.2-2.53,64.27,1.1C1063.87,20.06,1067.07,20.44,1069.7,22.34Z"/><path class="cls-2" d="M1117,120a156.19,156.19,0,0,0,12.72-47.44c.47-4.53.55-9,1.12-13.58a3.92,3.92,0,0,0-1.89-1.63c-4.58-8-14.19-16.92-26.73-24.13-11.79-6.77-23.65-10.54-32.68-10.94,0,0,0,0,0,0a8.68,8.68,0,0,0-5.63,1.58,176.27,176.27,0,0,0-24.52,19c-14.45,13.2-25.48,29.1-34.67,46.43-2.07,3.91-4,7.84-4.41,12.24.18,2.45,2,2.62,3.79,2.9,15.75,2.46,30.89,6.6,44.91,13.86a39,39,0,0,0,3.6,2.07,147.87,147.87,0,0,1,13.11,9.29c9,7.25,16.91,15.8,24.69,24.44,4.07,1.34,6.34-1.86,8.57-4.65A133.14,133.14,0,0,0,1117,120Z"/><path class="cls-1" d="M1091.28,152.52c1.46.78,2.61.37,3.82-1a138,138,0,0,0,27.48-51.6,154.69,154.69,0,0,0,6.19-38c0-1.16-.69-3.46,2-2.86,5.8,4.23,10.31,9.81,14.53,15.65,21.4,29.57,35.86,62.78,40.36,101.14a95.15,95.15,0,0,1-1.2,32c-.15.68.65,2.82-1.57,1.94-5.08-3.67-8.49-9-12.63-13.66-12-13.33-25.52-24.47-41.47-32.3-9.58-4.69-19.83-7.66-30.93-7.63a21.64,21.64,0,0,1-4.63-.27C1091.66,155.5,1090.38,154.75,1091.28,152.52Z"/><path class="cls-3" d="M1180.05,204.81a154.57,154.57,0,0,0-32.77-32.1c-15.47-11-32.06-19-52.09-18.51-1.56,0-3.2.16-3.91-1.68-2.49-2.82-4.89-5.73-7.48-8.44-9-9.37-18.24-18.37-29.63-24.62h0l-5-2.84h0c-10.06-6.06-21.36-9-32.74-11.86-5.11-1.27-10.52-1.35-15.46-3.19a19.74,19.74,0,0,1-2.23-2.7c-6.87-12.13-16.94-20.73-28.48-27.51-14.87-8.73-31.24-13.93-48.4-17-4.93-.86-9.86-2.25-15.14-1.1,2.9,2.54,5.91,4.95,8.66,7.65,10,9.75,18.94,20.26,21.86,35.22.33,1.73,1.61,1.83,2.85,2.11a75.56,75.56,0,0,1,24.51,11c12.66,8.3,21.63,19.56,23.64,36.1.27,2.25,1.47,2.23,3.17,2.25,12.6.15,25.12.67,36.48,6l4.8,2.76,0,0a62.65,62.65,0,0,1,5.94,4.24c7.77,6.86,13.73,15.36,19,24.41,1,1.71,1.76,2.73,4.15,1.69,12.5-5.46,24.61-4.9,36.46-.68,10.83,3.86,20.12,10.13,28.4,18,1.08,1,2,1.94,3.93,1.19,6.23-2.4,12.59-2.85,18.94-2.63,11.65.41,22.59,3.34,33.29,7.12A13.35,13.35,0,0,0,1180.05,204.81Z"/><line class="cls-4" x1="1049.49" y1="122.79" x2="960.75" y2="274.78"/><path class="cls-1" d="M1069.7,960.47q-42.2,25-64.72,70c-1.5,3-2.65,6.16-4,9.25-2.82,1.16-3.55-1.23-4.51-2.86A67.14,67.14,0,0,0,982,1020.11c-11.42-9.8-24.87-15.87-39.13-20.43a160,160,0,0,0-28.94-6.38c-2.5-.31-4.66-1.55-7.14-1.85-1.95-1.41.22-2,.83-2.57,7.76-7.16,16.67-12.11,26-16.2,20.44-9,41.51-13.79,62.9-16.13,21.7-2.37,43.2-2.52,64.27,1.11C1063.87,958.19,1067.07,958.57,1069.7,960.47Z"/><path class="cls-2" d="M1117,1058.17a156.19,156.19,0,0,0,12.72-47.44c.47-4.53.55-9.05,1.12-13.58a4,4,0,0,0-1.89-1.62c-4.58-7.95-14.19-16.93-26.73-24.13-11.79-6.78-23.65-10.54-32.68-10.95h0a8.74,8.74,0,0,0-5.63,1.58,176.27,176.27,0,0,0-24.52,19c-14.45,13.21-25.48,29.1-34.67,46.44-2.07,3.9-4,7.84-4.41,12.24.18,2.44,2,2.62,3.79,2.89,15.75,2.46,30.89,6.6,44.91,13.86a39,39,0,0,0,3.6,2.07,147.87,147.87,0,0,1,13.11,9.29c9,7.26,16.91,15.8,24.69,24.44,4.07,1.34,6.34-1.85,8.57-4.64A133.21,133.21,0,0,0,1117,1058.17Z"/><path class="cls-1" d="M1091.28,1090.65c1.46.78,2.61.37,3.82-1a138,138,0,0,0,27.48-51.59,154.77,154.77,0,0,0,6.19-38c0-1.17-.69-3.46,2-2.86,5.8,4.22,10.31,9.81,14.53,15.64,21.4,29.57,35.86,62.79,40.36,101.15a95.17,95.17,0,0,1-1.2,32c-.15.67.65,2.81-1.57,1.93-5.08-3.66-8.49-9-12.63-13.66-12-13.33-25.52-24.47-41.47-32.3-9.58-4.69-19.83-7.66-30.93-7.63a21,21,0,0,1-4.63-.26C1091.66,1093.63,1090.38,1092.88,1091.28,1090.65Z"/><path class="cls-3" d="M1180.05,1142.94a154.53,154.53,0,0,0-32.77-32.09c-15.47-11-32.06-19-52.09-18.51-1.56,0-3.2.16-3.91-1.69-2.49-2.82-4.89-5.73-7.48-8.44-9-9.37-18.24-18.36-29.63-24.61h0l-5-2.85h0c-10.06-6.07-21.36-9-32.74-11.87-5.11-1.26-10.52-1.35-15.46-3.19a19.15,19.15,0,0,1-2.23-2.7c-6.87-12.13-16.94-20.73-28.48-27.5-14.87-8.74-31.24-13.94-48.4-17-4.93-.87-9.86-2.26-15.14-1.1,2.9,2.54,5.91,4.94,8.66,7.64,10,9.76,18.94,20.26,21.86,35.22.33,1.73,1.61,1.83,2.85,2.11a75.56,75.56,0,0,1,24.51,11c12.66,8.3,21.63,19.56,23.64,36.11.27,2.24,1.47,2.22,3.17,2.24,12.6.15,25.12.68,36.48,6l4.8,2.76,0,0a62.55,62.55,0,0,1,5.94,4.23c7.77,6.86,13.73,15.37,19,24.42,1,1.7,1.76,2.73,4.15,1.68,12.5-5.46,24.61-4.9,36.46-.68a80,80,0,0,1,28.4,18c1.08,1,2,1.94,3.93,1.19,6.23-2.4,12.59-2.84,18.94-2.62,11.65.4,22.59,3.33,33.29,7.11A13.35,13.35,0,0,0,1180.05,1142.94Z"/><line class="cls-4" x1="1049.49" y1="1060.92" x2="960.75" y2="1212.91"/><path class="cls-5" d="M1069.7,491.4q-42.2,25-64.72,70c-1.5,3-2.65,6.17-4,9.25-2.82,1.17-3.55-1.23-4.51-2.85A67,67,0,0,0,982,551.05c-11.42-9.8-24.87-15.88-39.13-20.44a159.1,159.1,0,0,0-28.94-6.37c-2.5-.31-4.66-1.56-7.14-1.86-1.95-1.41.22-2,.83-2.57,7.76-7.15,16.67-12.11,26-16.2,20.44-9,41.51-13.79,62.9-16.13,21.7-2.37,43.2-2.52,64.27,1.11C1063.87,489.13,1067.07,489.51,1069.7,491.4Z"/><path class="cls-2" d="M1117,589.11a156.25,156.25,0,0,0,12.72-47.45c.47-4.53.55-9,1.12-13.57a3.92,3.92,0,0,0-1.89-1.63c-4.58-8-14.19-16.92-26.73-24.13-11.79-6.77-23.65-10.54-32.68-10.95h0a8.75,8.75,0,0,0-5.63,1.59,176.2,176.2,0,0,0-24.52,18.95c-14.45,13.21-25.48,29.11-34.67,46.44-2.07,3.91-4,7.84-4.41,12.24.18,2.45,2,2.62,3.79,2.89,15.75,2.46,30.89,6.6,44.91,13.86a39.07,39.07,0,0,0,3.6,2.08,143.84,143.84,0,0,1,13.11,9.29c9,7.25,16.91,15.79,24.69,24.43,4.07,1.34,6.34-1.85,8.57-4.64A133.37,133.37,0,0,0,1117,589.11Z"/><path class="cls-1" d="M1091.28,621.59c1.46.77,2.61.37,3.82-1a138,138,0,0,0,27.48-51.6,154.77,154.77,0,0,0,6.19-38c0-1.16-.69-3.46,2-2.86,5.8,4.22,10.31,9.81,14.53,15.64,21.4,29.57,35.86,62.79,40.36,101.15a95.15,95.15,0,0,1-1.2,32c-.15.67.65,2.81-1.57,1.93-5.08-3.66-8.49-9-12.63-13.66-12-13.32-25.52-24.47-41.47-32.29-9.58-4.7-19.83-7.66-30.93-7.63a21.64,21.64,0,0,1-4.63-.27C1091.66,624.57,1090.38,623.82,1091.28,621.59Z"/><path class="cls-3" d="M1180.05,673.88a154.34,154.34,0,0,0-32.77-32.1c-15.47-11-32.06-19-52.09-18.51-1.56,0-3.2.16-3.91-1.68-2.49-2.82-4.89-5.74-7.48-8.45-9-9.36-18.24-18.36-29.63-24.61h0l-5-2.84h0c-10.06-6.06-21.36-9-32.74-11.86-5.11-1.27-10.52-1.35-15.46-3.2a19.66,19.66,0,0,1-2.23-2.69c-6.87-12.14-16.94-20.73-28.48-27.51-14.87-8.73-31.24-13.94-48.4-16.95-4.93-.86-9.86-2.26-15.14-1.1,2.9,2.54,5.91,4.94,8.66,7.64,10,9.76,18.94,20.27,21.86,35.23.33,1.72,1.61,1.82,2.85,2.11,8.93,2,17,6,24.51,10.95,12.66,8.3,21.63,19.57,23.64,36.11.27,2.24,1.47,2.23,3.17,2.25,12.6.14,25.12.67,36.48,6l4.8,2.76,0-.05a60.9,60.9,0,0,1,5.94,4.24c7.77,6.85,13.73,15.36,19,24.41,1,1.71,1.76,2.73,4.15,1.69,12.5-5.47,24.61-4.91,36.46-.68a79.72,79.72,0,0,1,28.4,18c1.08,1,2,1.94,3.93,1.19,6.23-2.41,12.59-2.85,18.94-2.63,11.65.4,22.59,3.34,33.29,7.11A13.23,13.23,0,0,0,1180.05,673.88Z"/><line class="cls-4" x1="1049.49" y1="591.86" x2="960.75" y2="743.84"/><path class="cls-6" d="M1117,589.11a156.25,156.25,0,0,0,12.72-47.45c.47-4.53.55-9,1.12-13.57a3.92,3.92,0,0,0-1.89-1.63c-4.58-8-14.19-16.92-26.73-24.13-11.79-6.77-23.65-10.54-32.68-10.95h0a8.75,8.75,0,0,0-5.63,1.59,176.2,176.2,0,0,0-24.52,18.95c-14.45,13.21-25.48,29.11-34.67,46.44-2.07,3.91-4,7.84-4.41,12.24.18,2.45,2,2.62,3.79,2.89,15.75,2.46,30.89,6.6,44.91,13.86a39.07,39.07,0,0,0,3.6,2.08,143.84,143.84,0,0,1,13.11,9.29c9,7.25,16.91,15.79,24.69,24.43,4.07,1.34,6.34-1.85,8.57-4.64A133.37,133.37,0,0,0,1117,589.11Z"/><path class="cls-5" d="M1091.28,621.59c1.46.77,2.61.37,3.82-1a138,138,0,0,0,27.48-51.6,154.77,154.77,0,0,0,6.19-38c0-1.16-.69-3.46,2-2.86,5.8,4.22,10.31,9.81,14.53,15.64,21.4,29.57,35.86,62.79,40.36,101.15a95.15,95.15,0,0,1-1.2,32c-.15.67.65,2.81-1.57,1.93-5.08-3.66-8.49-9-12.63-13.66-12-13.32-25.52-24.47-41.47-32.29-9.58-4.7-19.83-7.66-30.93-7.63a21.64,21.64,0,0,1-4.63-.27C1091.66,624.57,1090.38,623.82,1091.28,621.59Z"/><path class="cls-7" d="M1180.05,673.88a154.34,154.34,0,0,0-32.77-32.1c-15.47-11-32.06-19-52.09-18.51-1.56,0-3.2.16-3.91-1.68-2.49-2.82-4.89-5.74-7.48-8.45-9-9.36-18.24-18.36-29.63-24.61h0l-5-2.84h0c-10.06-6.06-21.36-9-32.74-11.86-5.11-1.27-10.52-1.35-15.46-3.2a19.66,19.66,0,0,1-2.23-2.69c-6.87-12.14-16.94-20.73-28.48-27.51-14.87-8.73-31.24-13.94-48.4-16.95-4.93-.86-9.86-2.26-15.14-1.1,2.9,2.54,5.91,4.94,8.66,7.64,10,9.76,18.94,20.27,21.86,35.23.33,1.72,1.61,1.82,2.85,2.11,8.93,2,17,6,24.51,10.95,12.66,8.3,21.63,19.57,23.64,36.11.27,2.24,1.47,2.23,3.17,2.25,12.6.14,25.12.67,36.48,6l4.8,2.76,0-.05a60.9,60.9,0,0,1,5.94,4.24c7.77,6.85,13.73,15.36,19,24.41,1,1.71,1.76,2.73,4.15,1.69,12.5-5.47,24.61-4.91,36.46-.68a79.72,79.72,0,0,1,28.4,18c1.08,1,2,1.94,3.93,1.19,6.23-2.41,12.59-2.85,18.94-2.63,11.65.4,22.59,3.34,33.29,7.11A13.23,13.23,0,0,0,1180.05,673.88Z"/><line class="cls-8" x1="1049.49" y1="591.86" x2="960.75" y2="743.84"/><path class="cls-1" d="M595,270.76q-42.21,25-64.73,70c-1.5,3-2.65,6.16-4,9.25-2.82,1.17-3.55-1.23-4.51-2.86a67.14,67.14,0,0,0-14.53-16.73c-11.41-9.79-24.87-15.87-39.13-20.43a159.78,159.78,0,0,0-28.94-6.38c-2.5-.31-4.66-1.55-7.13-1.85-2-1.41.21-2,.82-2.57,7.77-7.15,16.67-12.11,26-16.2,20.43-9,41.51-13.79,62.9-16.13,21.7-2.37,43.19-2.52,64.26,1.11C589.13,268.49,592.33,268.86,595,270.76Z"/><path class="cls-2" d="M642.23,368.46A155.9,155.9,0,0,0,655,321c.47-4.53.55-9,1.12-13.57a3.89,3.89,0,0,0-1.88-1.63c-4.59-7.95-14.19-16.93-26.74-24.13-11.79-6.78-23.65-10.54-32.68-10.95h0a8.69,8.69,0,0,0-5.63,1.59,175.44,175.44,0,0,0-24.52,18.95c-14.45,13.21-25.47,29.1-34.67,46.44-2.07,3.9-4,7.84-4.41,12.24.18,2.45,2,2.62,3.79,2.89,15.75,2.46,30.89,6.6,44.91,13.86a35.83,35.83,0,0,0,3.61,2.07,147.72,147.72,0,0,1,13.1,9.29c9,7.26,16.91,15.8,24.69,24.44,4.07,1.34,6.34-1.85,8.58-4.64A133.17,133.17,0,0,0,642.23,368.46Z"/><path class="cls-9" d="M616.55,401c1.45.77,2.61.37,3.81-1.05a137.77,137.77,0,0,0,27.48-51.59,154.29,154.29,0,0,0,6.19-38c0-1.17-.69-3.46,2-2.86,5.8,4.22,10.31,9.81,14.53,15.64C692,352.66,706.47,385.88,711,424.24a95.15,95.15,0,0,1-1.21,32c-.15.67.65,2.81-1.57,1.93-5.07-3.66-8.49-9-12.63-13.66C683.62,431.15,670,420,654.09,412.18c-9.58-4.7-19.83-7.66-30.93-7.64a20.88,20.88,0,0,1-4.62-.26C616.93,403.93,615.65,403.17,616.55,401Z"/><path class="cls-3" d="M705.32,453.23a154.57,154.57,0,0,0-32.78-32.09c-15.47-11-32-19-52.09-18.51-1.55,0-3.19.16-3.9-1.68-2.49-2.82-4.89-5.74-7.49-8.45-9-9.37-18.23-18.36-29.63-24.61h0l-4.95-2.84h0c-10.05-6.07-21.36-9-32.74-11.87-5.1-1.26-10.52-1.35-15.46-3.19a19.66,19.66,0,0,1-2.23-2.69c-6.87-12.14-16.94-20.74-28.48-27.51-14.87-8.74-31.24-13.94-48.4-17-4.93-.87-9.85-2.26-15.13-1.1,2.89,2.54,5.9,4.94,8.65,7.64,9.95,9.76,18.94,20.26,21.86,35.22.34,1.73,1.61,1.83,2.86,2.12a75.27,75.27,0,0,1,24.5,10.95c12.66,8.3,21.63,19.56,23.64,36.11.28,2.24,1.47,2.22,3.17,2.24,12.6.15,25.12.68,36.48,6l4.8,2.75,0,0A60.9,60.9,0,0,1,564,409c7.77,6.85,13.73,15.36,19,24.41,1,1.7,1.76,2.73,4.15,1.69,12.51-5.47,24.61-4.91,36.46-.68a79.74,79.74,0,0,1,28.4,18c1.08,1,2,1.94,3.93,1.2,6.23-2.41,12.59-2.85,18.95-2.63,11.64.4,22.58,3.33,33.28,7.11A13.33,13.33,0,0,0,705.32,453.23Z"/><line class="cls-4" x1="574.75" y1="371.22" x2="486.02" y2="523.2"/><path class="cls-9" d="M595,270.76q-42.21,25-64.73,70c-1.5,3-2.65,6.16-4,9.25-2.82,1.17-3.55-1.23-4.51-2.86a67.14,67.14,0,0,0-14.53-16.73c-11.41-9.79-24.87-15.87-39.13-20.43a159.78,159.78,0,0,0-28.94-6.38c-2.5-.31-4.66-1.55-7.13-1.85-2-1.41.21-2,.82-2.57,7.77-7.15,16.67-12.11,26-16.2,20.43-9,41.51-13.79,62.9-16.13,21.7-2.37,43.19-2.52,64.26,1.11C589.13,268.49,592.33,268.86,595,270.76Z"/><path class="cls-10" d="M642.23,368.46A155.9,155.9,0,0,0,655,321c.47-4.53.55-9,1.12-13.57a3.89,3.89,0,0,0-1.88-1.63c-4.59-7.95-14.19-16.93-26.74-24.13-11.79-6.78-23.65-10.54-32.68-10.95h0a8.69,8.69,0,0,0-5.63,1.59,175.44,175.44,0,0,0-24.52,18.95c-14.45,13.21-25.47,29.1-34.67,46.44-2.07,3.9-4,7.84-4.41,12.24.18,2.45,2,2.62,3.79,2.89,15.75,2.46,30.89,6.6,44.91,13.86a35.83,35.83,0,0,0,3.61,2.07,147.72,147.72,0,0,1,13.1,9.29c9,7.26,16.91,15.8,24.69,24.44,4.07,1.34,6.34-1.85,8.58-4.64A133.17,133.17,0,0,0,642.23,368.46Z"/><path class="cls-11" d="M705.32,453.23a154.57,154.57,0,0,0-32.78-32.09c-15.47-11-32-19-52.09-18.51-1.55,0-3.19.16-3.9-1.68-2.49-2.82-4.89-5.74-7.49-8.45-9-9.37-18.23-18.36-29.63-24.61h0l-4.95-2.84h0c-10.05-6.07-21.36-9-32.74-11.87-5.1-1.26-10.52-1.35-15.46-3.19a19.66,19.66,0,0,1-2.23-2.69c-6.87-12.14-16.94-20.74-28.48-27.51-14.87-8.74-31.24-13.94-48.4-17-4.93-.87-9.85-2.26-15.13-1.1,2.89,2.54,5.9,4.94,8.65,7.64,9.95,9.76,18.94,20.26,21.86,35.22.34,1.73,1.61,1.83,2.86,2.12a75.27,75.27,0,0,1,24.5,10.95c12.66,8.3,21.63,19.56,23.64,36.11.28,2.24,1.47,2.22,3.17,2.24,12.6.15,25.12.68,36.48,6l4.8,2.75,0,0A60.9,60.9,0,0,1,564,409c7.77,6.85,13.73,15.36,19,24.41,1,1.7,1.76,2.73,4.15,1.69,12.51-5.47,24.61-4.91,36.46-.68a79.74,79.74,0,0,1,28.4,18c1.08,1,2,1.94,3.93,1.2,6.23-2.41,12.59-2.85,18.95-2.63,11.64.4,22.58,3.33,33.28,7.11A13.33,13.33,0,0,0,705.32,453.23Z"/><line class="cls-12" x1="574.75" y1="371.22" x2="486.02" y2="523.2"/><line class="cls-4" x1="574.75" y1="-97.85" x2="486.02" y2="54.13"/><line class="cls-4" x1="574.75" y1="-97.85" x2="486.02" y2="54.13"/><path class="cls-13" d="M120.23,22.34q-42.2,25-64.72,70c-1.5,3-2.65,6.16-4,9.25-2.81,1.16-3.55-1.24-4.5-2.86A67.16,67.16,0,0,0,32.51,82C21.09,72.18,7.64,66.11-6.62,61.54a160.13,160.13,0,0,0-28.94-6.37c-2.5-.31-4.66-1.55-7.14-1.86-2-1.4.22-2,.82-2.56,7.77-7.16,16.68-12.11,26-16.2,20.44-9,41.51-13.8,62.9-16.13,21.7-2.38,43.19-2.53,64.27,1.1C114.39,20.06,117.59,20.44,120.23,22.34Z"/><path class="cls-14" d="M167.49,120A156.21,156.21,0,0,0,180.22,72.6c.46-4.53.54-9,1.11-13.58a3.89,3.89,0,0,0-1.88-1.63c-4.59-8-14.19-16.92-26.73-24.13C140.93,26.49,129.06,22.72,120,22.32c0,0,0,0,0,0a8.69,8.69,0,0,0-5.63,1.58,176.27,176.27,0,0,0-24.52,19C75.39,56.06,64.37,72,55.18,89.29c-2.07,3.91-4,7.84-4.41,12.24.17,2.45,2,2.62,3.78,2.9,15.75,2.46,30.89,6.6,44.92,13.86a36.51,36.51,0,0,0,3.6,2.07,147.87,147.87,0,0,1,13.11,9.29c9,7.25,16.9,15.8,24.68,24.44,4.07,1.34,6.34-1.86,8.58-4.65A132.73,132.73,0,0,0,167.49,120Z"/><path class="cls-13" d="M141.81,152.52c1.45.78,2.61.37,3.82-1a137.93,137.93,0,0,0,27.47-51.6,154.23,154.23,0,0,0,6.2-38c0-1.16-.7-3.46,2-2.86,5.8,4.23,10.31,9.81,14.53,15.65,21.4,29.57,35.86,62.78,40.36,101.14a95.15,95.15,0,0,1-1.21,32c-.15.68.65,2.82-1.57,1.94-5.07-3.67-8.49-9-12.63-13.66-11.94-13.33-25.51-24.47-41.47-32.3-9.57-4.69-19.82-7.66-30.92-7.63a21.56,21.56,0,0,1-4.63-.27C142.19,155.5,140.91,154.75,141.81,152.52Z"/><path class="cls-15" d="M230.58,204.81a154.39,154.39,0,0,0-32.78-32.1c-15.47-11-32.05-19-52.08-18.51-1.56,0-3.2.16-3.91-1.68-2.49-2.82-4.89-5.73-7.48-8.44-9-9.37-18.24-18.37-29.64-24.62h0l-4.94-2.84h0c-10-6.06-21.35-9-32.74-11.86-5.1-1.27-10.52-1.35-15.45-3.19a19,19,0,0,1-2.23-2.7C42.45,86.74,32.38,78.14,20.84,71.36,6,62.63-10.41,57.43-27.56,54.41c-4.93-.86-9.86-2.25-15.14-1.1,2.89,2.54,5.91,4.95,8.66,7.65,9.94,9.75,18.93,20.26,21.85,35.22.34,1.73,1.62,1.83,2.86,2.11a75.41,75.41,0,0,1,24.5,11c12.67,8.3,21.63,19.56,23.65,36.1.27,2.25,1.46,2.23,3.17,2.25,12.59.15,25.12.67,36.48,6l4.8,2.76,0,0a61.39,61.39,0,0,1,5.94,4.24c7.77,6.86,13.73,15.36,19,24.41,1,1.71,1.76,2.73,4.15,1.69,12.51-5.46,24.62-4.9,36.46-.68a79.68,79.68,0,0,1,28.4,18c1.09,1,2,1.94,3.93,1.19,6.23-2.4,12.59-2.85,18.95-2.63,11.64.41,22.58,3.34,33.28,7.12A13.19,13.19,0,0,0,230.58,204.81Z"/><line class="cls-16" x1="100.01" y1="122.79" x2="11.28" y2="274.78"/><path class="cls-1" d="M595,739.83q-42.21,25-64.73,70c-1.5,3-2.65,6.16-4,9.25-2.82,1.16-3.55-1.24-4.51-2.86a67.14,67.14,0,0,0-14.53-16.73c-11.41-9.8-24.87-15.87-39.13-20.43a158.94,158.94,0,0,0-28.94-6.38c-2.5-.31-4.66-1.55-7.13-1.85-2-1.41.21-2,.82-2.57,7.77-7.16,16.67-12.11,26-16.2,20.43-9,41.51-13.79,62.9-16.13,21.7-2.38,43.19-2.52,64.26,1.1C589.13,737.55,592.33,737.93,595,739.83Z"/><path class="cls-2" d="M642.23,837.53A155.9,155.9,0,0,0,655,790.09c.47-4.53.55-9.05,1.12-13.58a4,4,0,0,0-1.88-1.63c-4.59-8-14.19-16.92-26.74-24.13-11.79-6.77-23.65-10.54-32.68-10.94h0a8.68,8.68,0,0,0-5.63,1.58,176.27,176.27,0,0,0-24.52,19c-14.45,13.2-25.47,29.1-34.67,46.43-2.07,3.91-4,7.85-4.41,12.24.18,2.45,2,2.63,3.79,2.9,15.75,2.46,30.89,6.6,44.91,13.86a37.86,37.86,0,0,0,3.61,2.07,147.72,147.72,0,0,1,13.1,9.29c9,7.25,16.91,15.8,24.69,24.44,4.07,1.34,6.34-1.85,8.58-4.65A132.87,132.87,0,0,0,642.23,837.53Z"/><path class="cls-13" d="M616.55,870c1.45.78,2.61.37,3.81-1a137.84,137.84,0,0,0,27.48-51.59,154.29,154.29,0,0,0,6.19-38c0-1.17-.69-3.46,2-2.87,5.8,4.23,10.31,9.82,14.53,15.65C692,821.73,706.47,854.94,711,893.3a95.15,95.15,0,0,1-1.21,32c-.15.68.65,2.82-1.57,1.94-5.07-3.66-8.49-9-12.63-13.66-11.94-13.33-25.52-24.47-41.47-32.3-9.58-4.69-19.83-7.66-30.93-7.63a21.5,21.5,0,0,1-4.62-.26C616.93,873,615.65,872.24,616.55,870Z"/><path class="cls-3" d="M705.32,922.3a154.33,154.33,0,0,0-32.78-32.09c-15.47-11-32-19-52.09-18.52-1.55,0-3.19.17-3.9-1.68-2.49-2.82-4.89-5.73-7.49-8.44-9-9.37-18.23-18.36-29.63-24.62h0l-4.95-2.84h0c-10.05-6.07-21.36-9-32.74-11.87-5.1-1.27-10.52-1.35-15.46-3.19a19.74,19.74,0,0,1-2.23-2.7c-6.87-12.13-16.94-20.73-28.48-27.5-14.87-8.74-31.24-13.94-48.4-17-4.93-.87-9.85-2.26-15.13-1.1,2.89,2.53,5.9,4.94,8.65,7.64,9.95,9.75,18.94,20.26,21.86,35.22.34,1.73,1.61,1.83,2.86,2.11a75.51,75.51,0,0,1,24.5,11c12.66,8.3,21.63,19.56,23.64,36.1.28,2.25,1.47,2.23,3.17,2.25,12.6.15,25.12.67,36.48,6l4.8,2.76,0,0a62.55,62.55,0,0,1,5.94,4.23c7.77,6.86,13.73,15.37,19,24.42,1,1.7,1.76,2.73,4.15,1.68,12.51-5.46,24.61-4.9,36.46-.68a79.9,79.9,0,0,1,28.4,18c1.08,1,2,1.94,3.93,1.19,6.23-2.4,12.59-2.85,18.95-2.63,11.64.41,22.58,3.34,33.28,7.12A13.33,13.33,0,0,0,705.32,922.3Z"/><line class="cls-4" x1="574.75" y1="840.28" x2="486.02" y2="992.27"/><path class="cls-13" d="M595,739.83q-42.21,25-64.73,70c-1.5,3-2.65,6.16-4,9.25-2.82,1.16-3.55-1.24-4.51-2.86a67.14,67.14,0,0,0-14.53-16.73c-11.41-9.8-24.87-15.87-39.13-20.43a158.94,158.94,0,0,0-28.94-6.38c-2.5-.31-4.66-1.55-7.13-1.85-2-1.41.21-2,.82-2.57,7.77-7.16,16.67-12.11,26-16.2,20.43-9,41.51-13.79,62.9-16.13,21.7-2.38,43.19-2.52,64.26,1.1C589.13,737.55,592.33,737.93,595,739.83Z"/><path class="cls-14" d="M642.23,837.53A155.9,155.9,0,0,0,655,790.09c.47-4.53.55-9.05,1.12-13.58a4,4,0,0,0-1.88-1.63c-4.59-8-14.19-16.92-26.74-24.13-11.79-6.77-23.65-10.54-32.68-10.94h0a8.68,8.68,0,0,0-5.63,1.58,176.27,176.27,0,0,0-24.52,19c-14.45,13.2-25.47,29.1-34.67,46.43-2.07,3.91-4,7.85-4.41,12.24.18,2.45,2,2.63,3.79,2.9,15.75,2.46,30.89,6.6,44.91,13.86a37.86,37.86,0,0,0,3.61,2.07,147.72,147.72,0,0,1,13.1,9.29c9,7.25,16.91,15.8,24.69,24.44,4.07,1.34,6.34-1.85,8.58-4.65A132.87,132.87,0,0,0,642.23,837.53Z"/><path class="cls-15" d="M705.32,922.3a154.33,154.33,0,0,0-32.78-32.09c-15.47-11-32-19-52.09-18.52-1.55,0-3.19.17-3.9-1.68-2.49-2.82-4.89-5.73-7.49-8.44-9-9.37-18.23-18.36-29.63-24.62h0l-4.95-2.84h0c-10.05-6.07-21.36-9-32.74-11.87-5.1-1.27-10.52-1.35-15.46-3.19a19.74,19.74,0,0,1-2.23-2.7c-6.87-12.13-16.94-20.73-28.48-27.5-14.87-8.74-31.24-13.94-48.4-17-4.93-.87-9.85-2.26-15.13-1.1,2.89,2.53,5.9,4.94,8.65,7.64,9.95,9.75,18.94,20.26,21.86,35.22.34,1.73,1.61,1.83,2.86,2.11a75.51,75.51,0,0,1,24.5,11c12.66,8.3,21.63,19.56,23.64,36.1.28,2.25,1.47,2.23,3.17,2.25,12.6.15,25.12.67,36.48,6l4.8,2.76,0,0a62.55,62.55,0,0,1,5.94,4.23c7.77,6.86,13.73,15.37,19,24.42,1,1.7,1.76,2.73,4.15,1.68,12.51-5.46,24.61-4.9,36.46-.68a79.9,79.9,0,0,1,28.4,18c1.08,1,2,1.94,3.93,1.19,6.23-2.4,12.59-2.85,18.95-2.63,11.64.41,22.58,3.34,33.28,7.12A13.33,13.33,0,0,0,705.32,922.3Z"/><line class="cls-16" x1="574.75" y1="840.28" x2="486.02" y2="992.27"/><path class="cls-1" d="M120.23,960.47q-42.2,25-64.72,70c-1.5,3-2.65,6.16-4,9.25-2.81,1.16-3.55-1.23-4.5-2.86a67.34,67.34,0,0,0-14.53-16.73c-11.42-9.8-24.87-15.87-39.13-20.43a160.15,160.15,0,0,0-28.94-6.38c-2.5-.31-4.66-1.55-7.14-1.85-2-1.41.22-2,.82-2.57,7.77-7.16,16.68-12.11,26-16.2,20.44-9,41.51-13.79,62.9-16.13,21.7-2.37,43.19-2.52,64.27,1.11C114.39,958.19,117.59,958.57,120.23,960.47Z"/><path class="cls-2" d="M167.49,1058.17a156.21,156.21,0,0,0,12.73-47.44c.46-4.53.54-9.05,1.11-13.58a3.92,3.92,0,0,0-1.88-1.62c-4.59-7.95-14.19-16.93-26.73-24.13-11.79-6.78-23.66-10.54-32.69-10.95h0a8.75,8.75,0,0,0-5.63,1.58,176.27,176.27,0,0,0-24.52,19c-14.45,13.21-25.47,29.1-34.66,46.44-2.07,3.9-4,7.84-4.41,12.24.17,2.44,2,2.62,3.78,2.89,15.75,2.46,30.89,6.6,44.92,13.86a36.51,36.51,0,0,0,3.6,2.07,147.87,147.87,0,0,1,13.11,9.29c9,7.26,16.9,15.8,24.68,24.44,4.07,1.34,6.34-1.85,8.58-4.64A132.79,132.79,0,0,0,167.49,1058.17Z"/><path class="cls-1" d="M141.81,1090.65c1.45.78,2.61.37,3.82-1A138,138,0,0,0,173.1,1038a154.31,154.31,0,0,0,6.2-38c0-1.17-.7-3.46,2-2.86,5.8,4.22,10.31,9.81,14.53,15.64,21.4,29.57,35.86,62.79,40.36,101.15a95.17,95.17,0,0,1-1.21,32c-.15.67.65,2.81-1.57,1.93-5.07-3.66-8.49-9-12.63-13.66-11.94-13.33-25.51-24.47-41.47-32.3-9.57-4.69-19.82-7.66-30.92-7.63a20.94,20.94,0,0,1-4.63-.26C142.19,1093.63,140.91,1092.88,141.81,1090.65Z"/><path class="cls-3" d="M230.58,1142.94a154.34,154.34,0,0,0-32.78-32.09c-15.47-11-32.05-19-52.08-18.51-1.56,0-3.2.16-3.91-1.69-2.49-2.82-4.89-5.73-7.48-8.44-9-9.37-18.24-18.36-29.64-24.61h0l-4.94-2.85h0c-10-6.07-21.35-9-32.74-11.87-5.1-1.26-10.52-1.35-15.45-3.19a18.49,18.49,0,0,1-2.23-2.7c-6.87-12.13-16.94-20.73-28.48-27.5-14.88-8.74-31.25-13.94-48.4-17-4.93-.87-9.86-2.26-15.14-1.1,2.89,2.54,5.91,4.94,8.66,7.64,9.94,9.76,18.93,20.26,21.85,35.22.34,1.73,1.62,1.83,2.86,2.11a75.41,75.41,0,0,1,24.5,11c12.67,8.3,21.63,19.56,23.65,36.11.27,2.24,1.46,2.22,3.17,2.24,12.59.15,25.12.68,36.48,6l4.8,2.76,0,0a61.3,61.3,0,0,1,5.94,4.23c7.77,6.86,13.73,15.37,19,24.42,1,1.7,1.76,2.73,4.15,1.68,12.51-5.46,24.62-4.9,36.46-.68a79.82,79.82,0,0,1,28.4,18c1.09,1,2,1.94,3.93,1.19,6.23-2.4,12.59-2.84,18.95-2.62,11.64.4,22.58,3.33,33.28,7.11A13.19,13.19,0,0,0,230.58,1142.94Z"/><line class="cls-4" x1="100.01" y1="1060.92" x2="11.28" y2="1212.91"/><path class="cls-17" d="M120.23,491.4q-42.2,25-64.72,70c-1.5,3-2.65,6.17-4,9.25-2.81,1.17-3.55-1.23-4.5-2.85a67.16,67.16,0,0,0-14.53-16.73c-11.42-9.8-24.87-15.88-39.13-20.44a159.29,159.29,0,0,0-28.94-6.37c-2.5-.31-4.66-1.56-7.14-1.86-2-1.41.22-2,.82-2.57,7.77-7.15,16.68-12.11,26-16.2,20.44-9,41.51-13.79,62.9-16.13,21.7-2.37,43.19-2.52,64.27,1.11C114.39,489.13,117.59,489.51,120.23,491.4Z"/><path class="cls-2" d="M167.49,589.11a156.27,156.27,0,0,0,12.73-47.45c.46-4.53.54-9,1.11-13.57a3.89,3.89,0,0,0-1.88-1.63c-4.59-8-14.19-16.92-26.73-24.13-11.79-6.77-23.66-10.54-32.69-10.95h0a8.76,8.76,0,0,0-5.63,1.59,176.2,176.2,0,0,0-24.52,18.95C75.39,525.13,64.37,541,55.18,558.36c-2.07,3.91-4,7.84-4.41,12.24.17,2.45,2,2.62,3.78,2.89,15.75,2.46,30.89,6.6,44.92,13.86a36.59,36.59,0,0,0,3.6,2.08,143.84,143.84,0,0,1,13.11,9.29c9,7.25,16.9,15.79,24.68,24.43,4.07,1.34,6.34-1.85,8.58-4.64A133,133,0,0,0,167.49,589.11Z"/><path class="cls-1" d="M141.81,621.59c1.45.77,2.61.37,3.82-1A137.93,137.93,0,0,0,173.1,569a154.31,154.31,0,0,0,6.2-38c0-1.16-.7-3.46,2-2.86,5.8,4.22,10.31,9.81,14.53,15.64,21.4,29.57,35.86,62.79,40.36,101.15a95.15,95.15,0,0,1-1.21,32c-.15.67.65,2.81-1.57,1.93-5.07-3.66-8.49-9-12.63-13.66-11.94-13.32-25.51-24.47-41.47-32.29-9.57-4.7-19.82-7.66-30.92-7.63a21.56,21.56,0,0,1-4.63-.27C142.19,624.57,140.91,623.82,141.81,621.59Z"/><path class="cls-3" d="M230.58,673.88a154.15,154.15,0,0,0-32.78-32.1c-15.47-11-32.05-19-52.08-18.51-1.56,0-3.2.16-3.91-1.68-2.49-2.82-4.89-5.74-7.48-8.45-9-9.36-18.24-18.36-29.64-24.61h0l-4.94-2.84h0c-10-6.06-21.35-9-32.74-11.86-5.1-1.27-10.52-1.35-15.45-3.2a19,19,0,0,1-2.23-2.69c-6.87-12.14-16.94-20.73-28.48-27.51C6,531.7-10.41,526.49-27.56,523.48c-4.93-.86-9.86-2.26-15.14-1.1,2.89,2.54,5.91,4.94,8.66,7.64,9.94,9.76,18.93,20.27,21.85,35.23.34,1.72,1.62,1.82,2.86,2.11a75.39,75.39,0,0,1,24.5,10.95c12.67,8.3,21.63,19.57,23.65,36.11.27,2.24,1.46,2.23,3.17,2.25,12.59.14,25.12.67,36.48,6l4.8,2.76,0-.05a59.71,59.71,0,0,1,5.94,4.24C97,636.5,103,645,108.28,654.06c1,1.71,1.76,2.73,4.15,1.69,12.51-5.47,24.62-4.91,36.46-.68a79.54,79.54,0,0,1,28.4,18c1.09,1,2,1.94,3.93,1.19,6.23-2.41,12.59-2.85,18.95-2.63,11.64.4,22.58,3.34,33.28,7.11A13.07,13.07,0,0,0,230.58,673.88Z"/><line class="cls-4" x1="100.01" y1="591.86" x2="11.28" y2="743.84"/><path class="cls-2" d="M167.49,589.11a156.27,156.27,0,0,0,12.73-47.45c.46-4.53.54-9,1.11-13.57a3.89,3.89,0,0,0-1.88-1.63c-4.59-8-14.19-16.92-26.73-24.13-11.79-6.77-23.66-10.54-32.69-10.95h0a8.76,8.76,0,0,0-5.63,1.59,176.2,176.2,0,0,0-24.52,18.95C75.39,525.13,64.37,541,55.18,558.36c-2.07,3.91-4,7.84-4.41,12.24.17,2.45,2,2.62,3.78,2.89,15.75,2.46,30.89,6.6,44.92,13.86a36.59,36.59,0,0,0,3.6,2.08,143.84,143.84,0,0,1,13.11,9.29c9,7.25,16.9,15.79,24.68,24.43,4.07,1.34,6.34-1.85,8.58-4.64A133,133,0,0,0,167.49,589.11Z"/><path class="cls-17" d="M141.81,621.59c1.45.77,2.61.37,3.82-1A137.93,137.93,0,0,0,173.1,569a154.31,154.31,0,0,0,6.2-38c0-1.16-.7-3.46,2-2.86,5.8,4.22,10.31,9.81,14.53,15.64,21.4,29.57,35.86,62.79,40.36,101.15a95.15,95.15,0,0,1-1.21,32c-.15.67.65,2.81-1.57,1.93-5.07-3.66-8.49-9-12.63-13.66-11.94-13.32-25.51-24.47-41.47-32.29-9.57-4.7-19.82-7.66-30.92-7.63a21.56,21.56,0,0,1-4.63-.27C142.19,624.57,140.91,623.82,141.81,621.59Z"/><path class="cls-3" d="M230.58,673.88a154.15,154.15,0,0,0-32.78-32.1c-15.47-11-32.05-19-52.08-18.51-1.56,0-3.2.16-3.91-1.68-2.49-2.82-4.89-5.74-7.48-8.45-9-9.36-18.24-18.36-29.64-24.61h0l-4.94-2.84h0c-10-6.06-21.35-9-32.74-11.86-5.1-1.27-10.52-1.35-15.45-3.2a19,19,0,0,1-2.23-2.69c-6.87-12.14-16.94-20.73-28.48-27.51C6,531.7-10.41,526.49-27.56,523.48c-4.93-.86-9.86-2.26-15.14-1.1,2.89,2.54,5.91,4.94,8.66,7.64,9.94,9.76,18.93,20.27,21.85,35.23.34,1.72,1.62,1.82,2.86,2.11a75.39,75.39,0,0,1,24.5,10.95c12.67,8.3,21.63,19.57,23.65,36.11.27,2.24,1.46,2.23,3.17,2.25,12.59.14,25.12.67,36.48,6l4.8,2.76,0-.05a59.71,59.71,0,0,1,5.94,4.24C97,636.5,103,645,108.28,654.06c1,1.71,1.76,2.73,4.15,1.69,12.51-5.47,24.62-4.91,36.46-.68a79.54,79.54,0,0,1,28.4,18c1.09,1,2,1.94,3.93,1.19,6.23-2.41,12.59-2.85,18.95-2.63,11.64.4,22.58,3.34,33.28,7.11A13.07,13.07,0,0,0,230.58,673.88Z"/><line class="cls-4" x1="100.01" y1="591.86" x2="11.28" y2="743.84"/><path class="cls-1" d="M1069.7,1429.54q-42.2,25-64.72,70c-1.5,3-2.65,6.16-4,9.25-2.82,1.16-3.55-1.24-4.51-2.86A67,67,0,0,0,982,1489.18c-11.42-9.8-24.87-15.87-39.13-20.44a159.94,159.94,0,0,0-28.94-6.37c-2.5-.31-4.66-1.55-7.14-1.86-1.95-1.4.22-2,.83-2.56,7.76-7.16,16.67-12.11,26-16.2,20.44-9,41.51-13.8,62.9-16.13,21.7-2.38,43.2-2.53,64.27,1.1C1063.87,1427.26,1067.07,1427.64,1069.7,1429.54Z"/><path class="cls-2" d="M1117,1527.24a156.19,156.19,0,0,0,12.72-47.44c.47-4.53.55-9,1.12-13.58a3.92,3.92,0,0,0-1.89-1.63c-4.58-7.95-14.19-16.92-26.73-24.13-11.79-6.77-23.65-10.54-32.68-10.94h0a8.68,8.68,0,0,0-5.63,1.58,176.27,176.27,0,0,0-24.52,19c-14.45,13.2-25.48,29.1-34.67,46.43-2.07,3.91-4,7.84-4.41,12.24.18,2.45,2,2.62,3.79,2.9,15.75,2.46,30.89,6.6,44.91,13.86a39,39,0,0,0,3.6,2.07,147.87,147.87,0,0,1,13.11,9.29c9,7.25,16.91,15.8,24.69,24.44,4.07,1.34,6.34-1.86,8.57-4.65A133.14,133.14,0,0,0,1117,1527.24Z"/><path class="cls-1" d="M1091.28,1559.72c1.46.78,2.61.37,3.82-1a138,138,0,0,0,27.48-51.6,154.69,154.69,0,0,0,6.19-38c0-1.16-.69-3.46,2-2.86,5.8,4.23,10.31,9.81,14.53,15.65,21.4,29.57,35.86,62.78,40.36,101.14a95.15,95.15,0,0,1-1.2,32c-.15.68.65,2.82-1.57,1.94-5.08-3.67-8.49-9-12.63-13.66-12-13.33-25.52-24.47-41.47-32.3-9.58-4.69-19.83-7.66-30.93-7.63a21.64,21.64,0,0,1-4.63-.27C1091.66,1562.7,1090.38,1562,1091.28,1559.72Z"/><path class="cls-3" d="M1180.05,1612a154.57,154.57,0,0,0-32.77-32.1c-15.47-11-32.06-19-52.09-18.51-1.56,0-3.2.16-3.91-1.68-2.49-2.82-4.89-5.73-7.48-8.44-9-9.37-18.24-18.37-29.63-24.62h0l-5-2.84h0c-10.06-6.06-21.36-9-32.74-11.86-5.11-1.27-10.52-1.35-15.46-3.19a19.74,19.74,0,0,1-2.23-2.7c-6.87-12.13-16.94-20.73-28.48-27.51-14.87-8.73-31.24-13.93-48.4-17-4.93-.86-9.86-2.25-15.14-1.1,2.9,2.54,5.91,5,8.66,7.65,10,9.75,18.94,20.26,21.86,35.22.33,1.73,1.61,1.83,2.85,2.11a75.56,75.56,0,0,1,24.51,11c12.66,8.3,21.63,19.56,23.64,36.1.27,2.25,1.47,2.23,3.17,2.25,12.6.15,25.12.67,36.48,6l4.8,2.76,0,0a62.65,62.65,0,0,1,5.94,4.24c7.77,6.86,13.73,15.36,19,24.41,1,1.71,1.76,2.73,4.15,1.69,12.5-5.46,24.61-4.9,36.46-.68,10.83,3.86,20.12,10.13,28.4,18,1.08,1,2,1.94,3.93,1.19,6.23-2.4,12.59-2.85,18.94-2.63,11.65.41,22.59,3.34,33.29,7.12A13.35,13.35,0,0,0,1180.05,1612Z"/><line class="cls-4" x1="1049.49" y1="1529.99" x2="960.75" y2="1681.98"/><path class="cls-1" d="M1069.7,2367.67q-42.2,25-64.72,70c-1.5,3-2.65,6.16-4,9.25-2.82,1.16-3.55-1.23-4.51-2.86A67.14,67.14,0,0,0,982,2427.31c-11.42-9.8-24.87-15.87-39.13-20.43a160,160,0,0,0-28.94-6.38c-2.5-.31-4.66-1.55-7.14-1.85-1.95-1.41.22-2,.83-2.57,7.76-7.16,16.67-12.11,26-16.2,20.44-9,41.51-13.79,62.9-16.13,21.7-2.37,43.2-2.52,64.27,1.11C1063.87,2365.39,1067.07,2365.77,1069.7,2367.67Z"/><path class="cls-2" d="M1117,2465.37a156.19,156.19,0,0,0,12.72-47.44c.47-4.53.55-9,1.12-13.58a4,4,0,0,0-1.89-1.62c-4.58-7.95-14.19-16.93-26.73-24.13-11.79-6.78-23.65-10.54-32.68-10.95h0a8.74,8.74,0,0,0-5.63,1.58,176.27,176.27,0,0,0-24.52,19c-14.45,13.21-25.48,29.1-34.67,46.44-2.07,3.9-4,7.84-4.41,12.24.18,2.44,2,2.62,3.79,2.89,15.75,2.46,30.89,6.6,44.91,13.86a39,39,0,0,0,3.6,2.07,147.87,147.87,0,0,1,13.11,9.29c9,7.26,16.91,15.8,24.69,24.44,4.07,1.34,6.34-1.85,8.57-4.64A133.21,133.21,0,0,0,1117,2465.37Z"/><path class="cls-1" d="M1091.28,2497.85c1.46.78,2.61.37,3.82-1a138,138,0,0,0,27.48-51.59,154.77,154.77,0,0,0,6.19-38c0-1.17-.69-3.46,2-2.86,5.8,4.22,10.31,9.81,14.53,15.64,21.4,29.57,35.86,62.79,40.36,101.15a95.17,95.17,0,0,1-1.2,32c-.15.67.65,2.81-1.57,1.93-5.08-3.66-8.49-9-12.63-13.66-12-13.33-25.52-24.47-41.47-32.3-9.58-4.69-19.83-7.66-30.93-7.63a21,21,0,0,1-4.63-.26C1091.66,2500.83,1090.38,2500.08,1091.28,2497.85Z"/><path class="cls-3" d="M1180.05,2550.14a154.53,154.53,0,0,0-32.77-32.09c-15.47-11-32.06-19-52.09-18.51-1.56,0-3.2.16-3.91-1.69-2.49-2.82-4.89-5.73-7.48-8.44-9-9.37-18.24-18.36-29.63-24.61h0l-5-2.85h0c-10.06-6.07-21.36-9-32.74-11.87-5.11-1.26-10.52-1.35-15.46-3.19a19.15,19.15,0,0,1-2.23-2.7c-6.87-12.13-16.94-20.73-28.48-27.5-14.87-8.74-31.24-13.94-48.4-16.95-4.93-.87-9.86-2.26-15.14-1.1,2.9,2.54,5.91,4.94,8.66,7.64,10,9.76,18.94,20.26,21.86,35.22.33,1.73,1.61,1.83,2.85,2.11a75.56,75.56,0,0,1,24.51,11c12.66,8.3,21.63,19.56,23.64,36.11.27,2.24,1.47,2.22,3.17,2.24,12.6.15,25.12.68,36.48,6l4.8,2.76,0,0a62.55,62.55,0,0,1,5.94,4.23c7.77,6.86,13.73,15.37,19,24.42,1,1.7,1.76,2.73,4.15,1.68,12.5-5.46,24.61-4.9,36.46-.68a80,80,0,0,1,28.4,18c1.08,1,2,1.94,3.93,1.19,6.23-2.4,12.59-2.84,18.94-2.62,11.65.4,22.59,3.33,33.29,7.11A13.35,13.35,0,0,0,1180.05,2550.14Z"/><path class="cls-5" d="M1069.7,1898.6q-42.2,25-64.72,70c-1.5,3-2.65,6.17-4,9.25-2.82,1.17-3.55-1.23-4.51-2.85A67,67,0,0,0,982,1958.25c-11.42-9.8-24.87-15.88-39.13-20.44a159.1,159.1,0,0,0-28.94-6.37c-2.5-.31-4.66-1.56-7.14-1.86-1.95-1.41.22-2,.83-2.57,7.76-7.15,16.67-12.11,26-16.2,20.44-9,41.51-13.79,62.9-16.13,21.7-2.37,43.2-2.52,64.27,1.11C1063.87,1896.33,1067.07,1896.71,1069.7,1898.6Z"/><path class="cls-2" d="M1117,1996.31a156.25,156.25,0,0,0,12.72-47.45c.47-4.53.55-9,1.12-13.57a3.92,3.92,0,0,0-1.89-1.63c-4.58-8-14.19-16.92-26.73-24.13-11.79-6.77-23.65-10.54-32.68-11h0a8.75,8.75,0,0,0-5.63,1.59,176.2,176.2,0,0,0-24.52,18.95c-14.45,13.21-25.48,29.11-34.67,46.44-2.07,3.91-4,7.84-4.41,12.24.18,2.45,2,2.62,3.79,2.89,15.75,2.46,30.89,6.6,44.91,13.86a39.07,39.07,0,0,0,3.6,2.08,143.84,143.84,0,0,1,13.11,9.29c9,7.25,16.91,15.79,24.69,24.43,4.07,1.34,6.34-1.85,8.57-4.64A133.37,133.37,0,0,0,1117,1996.31Z"/><path class="cls-1" d="M1091.28,2028.79c1.46.77,2.61.37,3.82-1a138,138,0,0,0,27.48-51.6,154.77,154.77,0,0,0,6.19-38c0-1.16-.69-3.46,2-2.86,5.8,4.22,10.31,9.81,14.53,15.64,21.4,29.57,35.86,62.79,40.36,101.15a95.15,95.15,0,0,1-1.2,32c-.15.67.65,2.81-1.57,1.93-5.08-3.66-8.49-9-12.63-13.66-12-13.32-25.52-24.47-41.47-32.29-9.58-4.7-19.83-7.66-30.93-7.63a21.64,21.64,0,0,1-4.63-.27C1091.66,2031.77,1090.38,2031,1091.28,2028.79Z"/><path class="cls-3" d="M1180.05,2081.08a154.34,154.34,0,0,0-32.77-32.1c-15.47-11-32.06-19-52.09-18.51-1.56,0-3.2.16-3.91-1.68-2.49-2.82-4.89-5.74-7.48-8.45-9-9.36-18.24-18.36-29.63-24.61h0l-5-2.84h0c-10.06-6.06-21.36-9-32.74-11.86-5.11-1.27-10.52-1.35-15.46-3.2a19.66,19.66,0,0,1-2.23-2.69c-6.87-12.14-16.94-20.73-28.48-27.51-14.87-8.73-31.24-13.94-48.4-17-4.93-.86-9.86-2.26-15.14-1.1,2.9,2.54,5.91,4.94,8.66,7.64,10,9.76,18.94,20.27,21.86,35.23.33,1.72,1.61,1.82,2.85,2.11,8.93,2,17,6,24.51,11,12.66,8.3,21.63,19.57,23.64,36.11.27,2.24,1.47,2.23,3.17,2.25,12.6.14,25.12.67,36.48,6l4.8,2.76,0-.05a60.9,60.9,0,0,1,5.94,4.24c7.77,6.85,13.73,15.36,19,24.41,1,1.71,1.76,2.73,4.15,1.69,12.5-5.47,24.61-4.91,36.46-.68a79.72,79.72,0,0,1,28.4,18c1.08,1,2,1.94,3.93,1.19,6.23-2.41,12.59-2.85,18.94-2.63,11.65.4,22.59,3.34,33.29,7.11A13.23,13.23,0,0,0,1180.05,2081.08Z"/><line class="cls-4" x1="1049.49" y1="1999.06" x2="960.75" y2="2151.04"/><path class="cls-6" d="M1117,1996.31a156.25,156.25,0,0,0,12.72-47.45c.47-4.53.55-9,1.12-13.57a3.92,3.92,0,0,0-1.89-1.63c-4.58-8-14.19-16.92-26.73-24.13-11.79-6.77-23.65-10.54-32.68-11h0a8.75,8.75,0,0,0-5.63,1.59,176.2,176.2,0,0,0-24.52,18.95c-14.45,13.21-25.48,29.11-34.67,46.44-2.07,3.91-4,7.84-4.41,12.24.18,2.45,2,2.62,3.79,2.89,15.75,2.46,30.89,6.6,44.91,13.86a39.07,39.07,0,0,0,3.6,2.08,143.84,143.84,0,0,1,13.11,9.29c9,7.25,16.91,15.79,24.69,24.43,4.07,1.34,6.34-1.85,8.57-4.64A133.37,133.37,0,0,0,1117,1996.31Z"/><path class="cls-5" d="M1091.28,2028.79c1.46.77,2.61.37,3.82-1a138,138,0,0,0,27.48-51.6,154.77,154.77,0,0,0,6.19-38c0-1.16-.69-3.46,2-2.86,5.8,4.22,10.31,9.81,14.53,15.64,21.4,29.57,35.86,62.79,40.36,101.15a95.15,95.15,0,0,1-1.2,32c-.15.67.65,2.81-1.57,1.93-5.08-3.66-8.49-9-12.63-13.66-12-13.32-25.52-24.47-41.47-32.29-9.58-4.7-19.83-7.66-30.93-7.63a21.64,21.64,0,0,1-4.63-.27C1091.66,2031.77,1090.38,2031,1091.28,2028.79Z"/><path class="cls-7" d="M1180.05,2081.08a154.34,154.34,0,0,0-32.77-32.1c-15.47-11-32.06-19-52.09-18.51-1.56,0-3.2.16-3.91-1.68-2.49-2.82-4.89-5.74-7.48-8.45-9-9.36-18.24-18.36-29.63-24.61h0l-5-2.84h0c-10.06-6.06-21.36-9-32.74-11.86-5.11-1.27-10.52-1.35-15.46-3.2a19.66,19.66,0,0,1-2.23-2.69c-6.87-12.14-16.94-20.73-28.48-27.51-14.87-8.73-31.24-13.94-48.4-17-4.93-.86-9.86-2.26-15.14-1.1,2.9,2.54,5.91,4.94,8.66,7.64,10,9.76,18.94,20.27,21.86,35.23.33,1.72,1.61,1.82,2.85,2.11,8.93,2,17,6,24.51,11,12.66,8.3,21.63,19.57,23.64,36.11.27,2.24,1.47,2.23,3.17,2.25,12.6.14,25.12.67,36.48,6l4.8,2.76,0-.05a60.9,60.9,0,0,1,5.94,4.24c7.77,6.85,13.73,15.36,19,24.41,1,1.71,1.76,2.73,4.15,1.69,12.5-5.47,24.61-4.91,36.46-.68a79.72,79.72,0,0,1,28.4,18c1.08,1,2,1.94,3.93,1.19,6.23-2.41,12.59-2.85,18.94-2.63,11.65.4,22.59,3.34,33.29,7.11A13.23,13.23,0,0,0,1180.05,2081.08Z"/><line class="cls-8" x1="1049.49" y1="1999.06" x2="960.75" y2="2151.04"/><path class="cls-1" d="M595,1678q-42.21,25-64.73,70c-1.5,3-2.65,6.16-4,9.25-2.82,1.17-3.55-1.23-4.51-2.86a67.14,67.14,0,0,0-14.53-16.73c-11.41-9.79-24.87-15.87-39.13-20.43a159.78,159.78,0,0,0-28.94-6.38c-2.5-.31-4.66-1.55-7.13-1.85-2-1.41.21-2,.82-2.57,7.77-7.15,16.67-12.11,26-16.2,20.43-9,41.51-13.79,62.9-16.13,21.7-2.37,43.19-2.52,64.26,1.11C589.13,1675.69,592.33,1676.06,595,1678Z"/><path class="cls-2" d="M642.23,1775.66A155.9,155.9,0,0,0,655,1728.22c.47-4.53.55-9,1.12-13.57a3.89,3.89,0,0,0-1.88-1.63c-4.59-8-14.19-16.93-26.74-24.13-11.79-6.78-23.65-10.54-32.68-11h0a8.69,8.69,0,0,0-5.63,1.59,175.44,175.44,0,0,0-24.52,19c-14.45,13.21-25.47,29.1-34.67,46.44-2.07,3.9-4,7.84-4.41,12.24.18,2.45,2,2.62,3.79,2.89,15.75,2.46,30.89,6.6,44.91,13.86a35.83,35.83,0,0,0,3.61,2.07,147.72,147.72,0,0,1,13.1,9.29c9,7.26,16.91,15.8,24.69,24.44,4.07,1.34,6.34-1.85,8.58-4.64A133.17,133.17,0,0,0,642.23,1775.66Z"/><path class="cls-9" d="M616.55,1808.15c1.45.77,2.61.37,3.81-1.05a137.77,137.77,0,0,0,27.48-51.59,154.29,154.29,0,0,0,6.19-38c0-1.17-.69-3.46,2-2.86,5.8,4.22,10.31,9.81,14.53,15.64,21.4,29.57,35.87,62.79,40.37,101.15a95.15,95.15,0,0,1-1.21,32c-.15.67.65,2.81-1.57,1.93-5.07-3.66-8.49-9-12.63-13.66-11.94-13.32-25.52-24.47-41.47-32.29-9.58-4.7-19.83-7.66-30.93-7.64a20.88,20.88,0,0,1-4.62-.26C616.93,1811.13,615.65,1810.37,616.55,1808.15Z"/><path class="cls-3" d="M705.32,1860.43a154.57,154.57,0,0,0-32.78-32.09c-15.47-11-32-19-52.09-18.51-1.55,0-3.19.16-3.9-1.68-2.49-2.82-4.89-5.74-7.49-8.45-9-9.37-18.23-18.36-29.63-24.61h0l-4.95-2.84h0c-10.05-6.07-21.36-9-32.74-11.87-5.1-1.26-10.52-1.35-15.46-3.19a19.66,19.66,0,0,1-2.23-2.69c-6.87-12.14-16.94-20.74-28.48-27.51-14.87-8.74-31.24-13.94-48.4-17-4.93-.87-9.85-2.26-15.13-1.1,2.89,2.54,5.9,4.94,8.65,7.64,9.95,9.76,18.94,20.26,21.86,35.22.34,1.73,1.61,1.83,2.86,2.12a75.27,75.27,0,0,1,24.5,10.95c12.66,8.3,21.63,19.56,23.64,36.11.28,2.24,1.47,2.22,3.17,2.24,12.6.15,25.12.68,36.48,6L558,1812l0,0a60.9,60.9,0,0,1,5.94,4.24c7.77,6.85,13.73,15.36,19,24.41,1,1.7,1.76,2.73,4.15,1.69,12.51-5.47,24.61-4.91,36.46-.68a79.74,79.74,0,0,1,28.4,18c1.08,1,2,1.94,3.93,1.2,6.23-2.41,12.59-2.85,18.95-2.63,11.64.4,22.58,3.33,33.28,7.11A13.33,13.33,0,0,0,705.32,1860.43Z"/><line class="cls-4" x1="574.75" y1="1778.42" x2="486.02" y2="1930.4"/><path class="cls-9" d="M595,1678q-42.21,25-64.73,70c-1.5,3-2.65,6.16-4,9.25-2.82,1.17-3.55-1.23-4.51-2.86a67.14,67.14,0,0,0-14.53-16.73c-11.41-9.79-24.87-15.87-39.13-20.43a159.78,159.78,0,0,0-28.94-6.38c-2.5-.31-4.66-1.55-7.13-1.85-2-1.41.21-2,.82-2.57,7.77-7.15,16.67-12.11,26-16.2,20.43-9,41.51-13.79,62.9-16.13,21.7-2.37,43.19-2.52,64.26,1.11C589.13,1675.69,592.33,1676.06,595,1678Z"/><path class="cls-10" d="M642.23,1775.66A155.9,155.9,0,0,0,655,1728.22c.47-4.53.55-9,1.12-13.57a3.89,3.89,0,0,0-1.88-1.63c-4.59-8-14.19-16.93-26.74-24.13-11.79-6.78-23.65-10.54-32.68-11h0a8.69,8.69,0,0,0-5.63,1.59,175.44,175.44,0,0,0-24.52,19c-14.45,13.21-25.47,29.1-34.67,46.44-2.07,3.9-4,7.84-4.41,12.24.18,2.45,2,2.62,3.79,2.89,15.75,2.46,30.89,6.6,44.91,13.86a35.83,35.83,0,0,0,3.61,2.07,147.72,147.72,0,0,1,13.1,9.29c9,7.26,16.91,15.8,24.69,24.44,4.07,1.34,6.34-1.85,8.58-4.64A133.17,133.17,0,0,0,642.23,1775.66Z"/><path class="cls-11" d="M705.32,1860.43a154.57,154.57,0,0,0-32.78-32.09c-15.47-11-32-19-52.09-18.51-1.55,0-3.19.16-3.9-1.68-2.49-2.82-4.89-5.74-7.49-8.45-9-9.37-18.23-18.36-29.63-24.61h0l-4.95-2.84h0c-10.05-6.07-21.36-9-32.74-11.87-5.1-1.26-10.52-1.35-15.46-3.19a19.66,19.66,0,0,1-2.23-2.69c-6.87-12.14-16.94-20.74-28.48-27.51-14.87-8.74-31.24-13.94-48.4-17-4.93-.87-9.85-2.26-15.13-1.1,2.89,2.54,5.9,4.94,8.65,7.64,9.95,9.76,18.94,20.26,21.86,35.22.34,1.73,1.61,1.83,2.86,2.12a75.27,75.27,0,0,1,24.5,10.95c12.66,8.3,21.63,19.56,23.64,36.11.28,2.24,1.47,2.22,3.17,2.24,12.6.15,25.12.68,36.48,6L558,1812l0,0a60.9,60.9,0,0,1,5.94,4.24c7.77,6.85,13.73,15.36,19,24.41,1,1.7,1.76,2.73,4.15,1.69,12.51-5.47,24.61-4.91,36.46-.68a79.74,79.74,0,0,1,28.4,18c1.08,1,2,1.94,3.93,1.2,6.23-2.41,12.59-2.85,18.95-2.63,11.64.4,22.58,3.33,33.28,7.11A13.33,13.33,0,0,0,705.32,1860.43Z"/><line class="cls-12" x1="574.75" y1="1778.42" x2="486.02" y2="1930.4"/><path class="cls-1" d="M595,1208.89q-42.21,25-64.73,70c-1.5,3-2.65,6.17-4,9.25-2.82,1.17-3.55-1.23-4.51-2.85a67,67,0,0,0-14.53-16.73c-11.41-9.8-24.87-15.88-39.13-20.44a158.92,158.92,0,0,0-28.94-6.37c-2.5-.31-4.66-1.56-7.13-1.86-2-1.41.21-2,.82-2.57,7.77-7.15,16.67-12.1,26-16.2,20.43-9,41.51-13.79,62.9-16.13,21.7-2.37,43.19-2.52,64.26,1.11C589.13,1206.62,592.33,1207,595,1208.89Z"/><path class="cls-2" d="M642.23,1306.6A155.9,155.9,0,0,0,655,1259.16c.47-4.53.55-9.05,1.12-13.58a3.89,3.89,0,0,0-1.88-1.63c-4.59-8-14.19-16.92-26.74-24.13-11.79-6.77-23.65-10.54-32.68-11h0a8.68,8.68,0,0,0-5.63,1.58,177,177,0,0,0-24.52,19c-14.45,13.21-25.47,29.11-34.67,46.44-2.07,3.91-4,7.84-4.41,12.24.18,2.45,2,2.62,3.79,2.89,15.75,2.46,30.89,6.61,44.91,13.86a35.91,35.91,0,0,0,3.61,2.08,145.68,145.68,0,0,1,13.1,9.29c9,7.25,16.91,15.79,24.69,24.43,4.07,1.35,6.34-1.85,8.58-4.64A133.1,133.1,0,0,0,642.23,1306.6Z"/><path class="cls-17" d="M616.55,1339.08c1.45.77,2.61.37,3.81-1a137.81,137.81,0,0,0,27.48-51.6,154.22,154.22,0,0,0,6.19-38c0-1.16-.69-3.46,2-2.86,5.8,4.23,10.31,9.81,14.53,15.65C692,1290.8,706.47,1324,711,1362.37a95.15,95.15,0,0,1-1.21,32c-.15.68.65,2.81-1.57,1.94-5.07-3.67-8.49-9-12.63-13.67-11.94-13.32-25.52-24.47-41.47-32.29-9.58-4.7-19.83-7.66-30.93-7.63a21.5,21.5,0,0,1-4.62-.27C616.93,1342.06,615.65,1341.31,616.55,1339.08Z"/><path class="cls-3" d="M705.32,1391.37a154.38,154.38,0,0,0-32.78-32.1c-15.47-11-32-19-52.09-18.51-1.55,0-3.19.16-3.9-1.68-2.49-2.82-4.89-5.74-7.49-8.45-9-9.36-18.23-18.36-29.63-24.61h0l-4.95-2.84h0c-10.05-6.06-21.36-9-32.74-11.86-5.1-1.27-10.52-1.35-15.46-3.2a19.66,19.66,0,0,1-2.23-2.69c-6.87-12.13-16.94-20.73-28.48-27.51-14.87-8.73-31.24-13.94-48.4-17-4.93-.86-9.85-2.25-15.13-1.1,2.89,2.54,5.9,5,8.65,7.64,9.95,9.76,18.94,20.27,21.86,35.23.34,1.72,1.61,1.82,2.86,2.11a75.51,75.51,0,0,1,24.5,11c12.66,8.29,21.63,19.56,23.64,36.1.28,2.25,1.47,2.23,3.17,2.25,12.6.15,25.12.67,36.48,6L558,1343l0,0a62.65,62.65,0,0,1,5.94,4.24c7.77,6.86,13.73,15.36,19,24.41,1,1.71,1.76,2.73,4.15,1.69,12.51-5.47,24.61-4.91,36.46-.68a79.63,79.63,0,0,1,28.4,18c1.08,1,2,1.94,3.93,1.19,6.23-2.4,12.59-2.85,18.95-2.63,11.64.4,22.58,3.34,33.28,7.11A13.29,13.29,0,0,0,705.32,1391.37Z"/><line class="cls-4" x1="574.75" y1="1309.35" x2="486.02" y2="1461.33"/><path class="cls-17" d="M595,1208.89q-42.21,25-64.73,70c-1.5,3-2.65,6.17-4,9.25-2.82,1.17-3.55-1.23-4.51-2.85a67,67,0,0,0-14.53-16.73c-11.41-9.8-24.87-15.88-39.13-20.44a158.92,158.92,0,0,0-28.94-6.37c-2.5-.31-4.66-1.56-7.13-1.86-2-1.41.21-2,.82-2.57,7.77-7.15,16.67-12.1,26-16.2,20.43-9,41.51-13.79,62.9-16.13,21.7-2.37,43.19-2.52,64.26,1.11C589.13,1206.62,592.33,1207,595,1208.89Z"/><path class="cls-2" d="M642.23,1306.6A155.9,155.9,0,0,0,655,1259.16c.47-4.53.55-9.05,1.12-13.58a3.89,3.89,0,0,0-1.88-1.63c-4.59-8-14.19-16.92-26.74-24.13-11.79-6.77-23.65-10.54-32.68-11h0a8.68,8.68,0,0,0-5.63,1.58,177,177,0,0,0-24.52,19c-14.45,13.21-25.47,29.11-34.67,46.44-2.07,3.91-4,7.84-4.41,12.24.18,2.45,2,2.62,3.79,2.89,15.75,2.46,30.89,6.61,44.91,13.86a35.91,35.91,0,0,0,3.61,2.08,145.68,145.68,0,0,1,13.1,9.29c9,7.25,16.91,15.79,24.69,24.43,4.07,1.35,6.34-1.85,8.58-4.64A133.1,133.1,0,0,0,642.23,1306.6Z"/><path class="cls-3" d="M705.32,1391.37a154.38,154.38,0,0,0-32.78-32.1c-15.47-11-32-19-52.09-18.51-1.55,0-3.19.16-3.9-1.68-2.49-2.82-4.89-5.74-7.49-8.45-9-9.36-18.23-18.36-29.63-24.61h0l-4.95-2.84h0c-10.05-6.06-21.36-9-32.74-11.86-5.1-1.27-10.52-1.35-15.46-3.2a19.66,19.66,0,0,1-2.23-2.69c-6.87-12.13-16.94-20.73-28.48-27.51-14.87-8.73-31.24-13.94-48.4-17-4.93-.86-9.85-2.25-15.13-1.1,2.89,2.54,5.9,5,8.65,7.64,9.95,9.76,18.94,20.27,21.86,35.23.34,1.72,1.61,1.82,2.86,2.11a75.51,75.51,0,0,1,24.5,11c12.66,8.29,21.63,19.56,23.64,36.1.28,2.25,1.47,2.23,3.17,2.25,12.6.15,25.12.67,36.48,6L558,1343l0,0a62.65,62.65,0,0,1,5.94,4.24c7.77,6.86,13.73,15.36,19,24.41,1,1.71,1.76,2.73,4.15,1.69,12.51-5.47,24.61-4.91,36.46-.68a79.63,79.63,0,0,1,28.4,18c1.08,1,2,1.94,3.93,1.19,6.23-2.4,12.59-2.85,18.95-2.63,11.64.4,22.58,3.34,33.28,7.11A13.29,13.29,0,0,0,705.32,1391.37Z"/><line class="cls-4" x1="574.75" y1="1309.35" x2="486.02" y2="1461.33"/><path class="cls-13" d="M120.23,1429.54q-42.2,25-64.72,70c-1.5,3-2.65,6.16-4,9.25-2.81,1.16-3.55-1.24-4.5-2.86a67.16,67.16,0,0,0-14.53-16.73c-11.42-9.8-24.87-15.87-39.13-20.44a160.13,160.13,0,0,0-28.94-6.37c-2.5-.31-4.66-1.55-7.14-1.86-2-1.4.22-2,.82-2.56,7.77-7.16,16.68-12.11,26-16.2,20.44-9,41.51-13.8,62.9-16.13,21.7-2.38,43.19-2.53,64.27,1.1C114.39,1427.26,117.59,1427.64,120.23,1429.54Z"/><path class="cls-14" d="M167.49,1527.24a156.21,156.21,0,0,0,12.73-47.44c.46-4.53.54-9,1.11-13.58a3.89,3.89,0,0,0-1.88-1.63c-4.59-7.95-14.19-16.92-26.73-24.13-11.79-6.77-23.66-10.54-32.69-10.94h0a8.69,8.69,0,0,0-5.63,1.58,176.27,176.27,0,0,0-24.52,19c-14.45,13.2-25.47,29.1-34.66,46.43-2.07,3.91-4,7.84-4.41,12.24.17,2.45,2,2.62,3.78,2.9,15.75,2.46,30.89,6.6,44.92,13.86a36.51,36.51,0,0,0,3.6,2.07,147.87,147.87,0,0,1,13.11,9.29c9,7.25,16.9,15.8,24.68,24.44,4.07,1.34,6.34-1.86,8.58-4.65A132.73,132.73,0,0,0,167.49,1527.24Z"/><path class="cls-13" d="M141.81,1559.72c1.45.78,2.61.37,3.82-1a137.93,137.93,0,0,0,27.47-51.6,154.23,154.23,0,0,0,6.2-38c0-1.16-.7-3.46,2-2.86,5.8,4.23,10.31,9.81,14.53,15.65,21.4,29.57,35.86,62.78,40.36,101.14a95.15,95.15,0,0,1-1.21,32c-.15.68.65,2.82-1.57,1.94-5.07-3.67-8.49-9-12.63-13.66-11.94-13.33-25.51-24.47-41.47-32.3-9.57-4.69-19.82-7.66-30.92-7.63a21.56,21.56,0,0,1-4.63-.27C142.19,1562.7,140.91,1562,141.81,1559.72Z"/><path class="cls-15" d="M230.58,1612a154.39,154.39,0,0,0-32.78-32.1c-15.47-11-32.05-19-52.08-18.51-1.56,0-3.2.16-3.91-1.68-2.49-2.82-4.89-5.73-7.48-8.44-9-9.37-18.24-18.37-29.64-24.62h0l-4.94-2.84h0c-10-6.06-21.35-9-32.74-11.86-5.1-1.27-10.52-1.35-15.45-3.19a19,19,0,0,1-2.23-2.7c-6.87-12.13-16.94-20.73-28.48-27.51-14.88-8.73-31.25-13.93-48.4-17-4.93-.86-9.86-2.25-15.14-1.1,2.89,2.54,5.91,5,8.66,7.65,9.94,9.75,18.93,20.26,21.85,35.22.34,1.73,1.62,1.83,2.86,2.11a75.41,75.41,0,0,1,24.5,11c12.67,8.3,21.63,19.56,23.65,36.1.27,2.25,1.46,2.23,3.17,2.25,12.59.15,25.12.67,36.48,6l4.8,2.76,0,0a61.39,61.39,0,0,1,5.94,4.24c7.77,6.86,13.73,15.36,19,24.41,1,1.71,1.76,2.73,4.15,1.69,12.51-5.46,24.62-4.9,36.46-.68a79.68,79.68,0,0,1,28.4,18c1.09,1,2,1.94,3.93,1.19,6.23-2.4,12.59-2.85,18.95-2.63,11.64.41,22.58,3.34,33.28,7.12A13.19,13.19,0,0,0,230.58,1612Z"/><line class="cls-16" x1="100.01" y1="1529.99" x2="11.28" y2="1681.98"/><path class="cls-1" d="M595,2147q-42.21,25-64.73,70c-1.5,3-2.65,6.16-4,9.25-2.82,1.16-3.55-1.24-4.51-2.86a67.14,67.14,0,0,0-14.53-16.73c-11.41-9.8-24.87-15.87-39.13-20.43a158.94,158.94,0,0,0-28.94-6.38c-2.5-.31-4.66-1.55-7.13-1.85-2-1.41.21-2,.82-2.57,7.77-7.16,16.67-12.11,26-16.2,20.43-9,41.51-13.79,62.9-16.13,21.7-2.38,43.19-2.52,64.26,1.1C589.13,2144.75,592.33,2145.13,595,2147Z"/><path class="cls-2" d="M642.23,2244.73A155.9,155.9,0,0,0,655,2197.29c.47-4.53.55-9.05,1.12-13.58a4,4,0,0,0-1.88-1.63c-4.59-7.95-14.19-16.92-26.74-24.13-11.79-6.77-23.65-10.54-32.68-10.94h0a8.68,8.68,0,0,0-5.63,1.58,176.27,176.27,0,0,0-24.52,19c-14.45,13.2-25.47,29.1-34.67,46.43-2.07,3.91-4,7.85-4.41,12.24.18,2.45,2,2.63,3.79,2.9,15.75,2.46,30.89,6.6,44.91,13.86a37.86,37.86,0,0,0,3.61,2.07,147.72,147.72,0,0,1,13.1,9.29c9,7.25,16.91,15.8,24.69,24.44,4.07,1.34,6.34-1.85,8.58-4.65A132.87,132.87,0,0,0,642.23,2244.73Z"/><path class="cls-13" d="M616.55,2277.21c1.45.78,2.61.37,3.81-1a137.84,137.84,0,0,0,27.48-51.59,154.29,154.29,0,0,0,6.19-38c0-1.17-.69-3.46,2-2.87,5.8,4.23,10.31,9.82,14.53,15.65,21.4,29.57,35.87,62.78,40.37,101.14a95.15,95.15,0,0,1-1.21,32c-.15.68.65,2.82-1.57,1.94-5.07-3.66-8.49-9-12.63-13.66-11.94-13.33-25.52-24.47-41.47-32.3-9.58-4.69-19.83-7.66-30.93-7.63a21.5,21.5,0,0,1-4.62-.26C616.93,2280.19,615.65,2279.44,616.55,2277.21Z"/><path class="cls-3" d="M705.32,2329.5a154.33,154.33,0,0,0-32.78-32.09c-15.47-11-32-19-52.09-18.52-1.55,0-3.19.17-3.9-1.68-2.49-2.82-4.89-5.73-7.49-8.44-9-9.37-18.23-18.36-29.63-24.62h0l-4.95-2.84h0c-10.05-6.07-21.36-9-32.74-11.87-5.1-1.27-10.52-1.35-15.46-3.19a19.74,19.74,0,0,1-2.23-2.7c-6.87-12.13-16.94-20.73-28.48-27.5-14.87-8.74-31.24-13.94-48.4-16.95-4.93-.87-9.85-2.26-15.13-1.1,2.89,2.53,5.9,4.94,8.65,7.64,9.95,9.75,18.94,20.26,21.86,35.22.34,1.73,1.61,1.83,2.86,2.11a75.51,75.51,0,0,1,24.5,11c12.66,8.3,21.63,19.56,23.64,36.1.28,2.25,1.47,2.23,3.17,2.25,12.6.15,25.12.67,36.48,6l4.8,2.76,0,0a62.55,62.55,0,0,1,5.94,4.23c7.77,6.86,13.73,15.37,19,24.42,1,1.7,1.76,2.73,4.15,1.68,12.51-5.46,24.61-4.9,36.46-.68a79.9,79.9,0,0,1,28.4,18c1.08,1,2,1.94,3.93,1.19,6.23-2.4,12.59-2.85,18.95-2.63,11.64.41,22.58,3.34,33.28,7.12A13.33,13.33,0,0,0,705.32,2329.5Z"/><line class="cls-4" x1="574.75" y1="2247.48" x2="486.02" y2="2399.47"/><path class="cls-13" d="M595,2147q-42.21,25-64.73,70c-1.5,3-2.65,6.16-4,9.25-2.82,1.16-3.55-1.24-4.51-2.86a67.14,67.14,0,0,0-14.53-16.73c-11.41-9.8-24.87-15.87-39.13-20.43a158.94,158.94,0,0,0-28.94-6.38c-2.5-.31-4.66-1.55-7.13-1.85-2-1.41.21-2,.82-2.57,7.77-7.16,16.67-12.11,26-16.2,20.43-9,41.51-13.79,62.9-16.13,21.7-2.38,43.19-2.52,64.26,1.1C589.13,2144.75,592.33,2145.13,595,2147Z"/><path class="cls-14" d="M642.23,2244.73A155.9,155.9,0,0,0,655,2197.29c.47-4.53.55-9.05,1.12-13.58a4,4,0,0,0-1.88-1.63c-4.59-7.95-14.19-16.92-26.74-24.13-11.79-6.77-23.65-10.54-32.68-10.94h0a8.68,8.68,0,0,0-5.63,1.58,176.27,176.27,0,0,0-24.52,19c-14.45,13.2-25.47,29.1-34.67,46.43-2.07,3.91-4,7.85-4.41,12.24.18,2.45,2,2.63,3.79,2.9,15.75,2.46,30.89,6.6,44.91,13.86a37.86,37.86,0,0,0,3.61,2.07,147.72,147.72,0,0,1,13.1,9.29c9,7.25,16.91,15.8,24.69,24.44,4.07,1.34,6.34-1.85,8.58-4.65A132.87,132.87,0,0,0,642.23,2244.73Z"/><path class="cls-15" d="M705.32,2329.5a154.33,154.33,0,0,0-32.78-32.09c-15.47-11-32-19-52.09-18.52-1.55,0-3.19.17-3.9-1.68-2.49-2.82-4.89-5.73-7.49-8.44-9-9.37-18.23-18.36-29.63-24.62h0l-4.95-2.84h0c-10.05-6.07-21.36-9-32.74-11.87-5.1-1.27-10.52-1.35-15.46-3.19a19.74,19.74,0,0,1-2.23-2.7c-6.87-12.13-16.94-20.73-28.48-27.5-14.87-8.74-31.24-13.94-48.4-16.95-4.93-.87-9.85-2.26-15.13-1.1,2.89,2.53,5.9,4.94,8.65,7.64,9.95,9.75,18.94,20.26,21.86,35.22.34,1.73,1.61,1.83,2.86,2.11a75.51,75.51,0,0,1,24.5,11c12.66,8.3,21.63,19.56,23.64,36.1.28,2.25,1.47,2.23,3.17,2.25,12.6.15,25.12.67,36.48,6l4.8,2.76,0,0a62.55,62.55,0,0,1,5.94,4.23c7.77,6.86,13.73,15.37,19,24.42,1,1.7,1.76,2.73,4.15,1.68,12.51-5.46,24.61-4.9,36.46-.68a79.9,79.9,0,0,1,28.4,18c1.08,1,2,1.94,3.93,1.19,6.23-2.4,12.59-2.85,18.95-2.63,11.64.41,22.58,3.34,33.28,7.12A13.33,13.33,0,0,0,705.32,2329.5Z"/><line class="cls-16" x1="574.75" y1="2247.48" x2="486.02" y2="2399.47"/><path class="cls-1" d="M120.23,2367.67q-42.2,25-64.72,70c-1.5,3-2.65,6.16-4,9.25-2.81,1.16-3.55-1.23-4.5-2.86a67.34,67.34,0,0,0-14.53-16.73c-11.42-9.8-24.87-15.87-39.13-20.43a160.15,160.15,0,0,0-28.94-6.38c-2.5-.31-4.66-1.55-7.14-1.85-2-1.41.22-2,.82-2.57,7.77-7.16,16.68-12.11,26-16.2,20.44-9,41.51-13.79,62.9-16.13,21.7-2.37,43.19-2.52,64.27,1.11C114.39,2365.39,117.59,2365.77,120.23,2367.67Z"/><path class="cls-2" d="M167.49,2465.37a156.21,156.21,0,0,0,12.73-47.44c.46-4.53.54-9,1.11-13.58a3.92,3.92,0,0,0-1.88-1.62c-4.59-7.95-14.19-16.93-26.73-24.13-11.79-6.78-23.66-10.54-32.69-10.95h0a8.75,8.75,0,0,0-5.63,1.58,176.27,176.27,0,0,0-24.52,19c-14.45,13.21-25.47,29.1-34.66,46.44-2.07,3.9-4,7.84-4.41,12.24.17,2.44,2,2.62,3.78,2.89,15.75,2.46,30.89,6.6,44.92,13.86a36.51,36.51,0,0,0,3.6,2.07,147.87,147.87,0,0,1,13.11,9.29c9,7.26,16.9,15.8,24.68,24.44,4.07,1.34,6.34-1.85,8.58-4.64A132.79,132.79,0,0,0,167.49,2465.37Z"/><path class="cls-1" d="M141.81,2497.85c1.45.78,2.61.37,3.82-1a138,138,0,0,0,27.47-51.59,154.31,154.31,0,0,0,6.2-38c0-1.17-.7-3.46,2-2.86,5.8,4.22,10.31,9.81,14.53,15.64,21.4,29.57,35.86,62.79,40.36,101.15a95.17,95.17,0,0,1-1.21,32c-.15.67.65,2.81-1.57,1.93-5.07-3.66-8.49-9-12.63-13.66-11.94-13.33-25.51-24.47-41.47-32.3-9.57-4.69-19.82-7.66-30.92-7.63a20.94,20.94,0,0,1-4.63-.26C142.19,2500.83,140.91,2500.08,141.81,2497.85Z"/><path class="cls-3" d="M230.58,2550.14a154.34,154.34,0,0,0-32.78-32.09c-15.47-11-32.05-19-52.08-18.51-1.56,0-3.2.16-3.91-1.69-2.49-2.82-4.89-5.73-7.48-8.44-9-9.37-18.24-18.36-29.64-24.61h0L99.75,2462h0c-10-6.07-21.35-9-32.74-11.87-5.1-1.26-10.52-1.35-15.45-3.19a18.49,18.49,0,0,1-2.23-2.7c-6.87-12.13-16.94-20.73-28.48-27.5C6,2408-10.41,2402.76-27.56,2399.75c-4.93-.87-9.86-2.26-15.14-1.1,2.89,2.54,5.91,4.94,8.66,7.64,9.94,9.76,18.93,20.26,21.85,35.22.34,1.73,1.62,1.83,2.86,2.11a75.41,75.41,0,0,1,24.5,11c12.67,8.3,21.63,19.56,23.65,36.11.27,2.24,1.46,2.22,3.17,2.24,12.59.15,25.12.68,36.48,6l4.8,2.76,0,0a61.3,61.3,0,0,1,5.94,4.23c7.77,6.86,13.73,15.37,19,24.42,1,1.7,1.76,2.73,4.15,1.68,12.51-5.46,24.62-4.9,36.46-.68a79.82,79.82,0,0,1,28.4,18c1.09,1,2,1.94,3.93,1.19,6.23-2.4,12.59-2.84,18.95-2.62,11.64.4,22.58,3.33,33.28,7.11A13.19,13.19,0,0,0,230.58,2550.14Z"/><path class="cls-5" d="M120.23,1898.6q-42.2,25-64.72,70c-1.5,3-2.65,6.17-4,9.25C48.73,1979,48,1976.6,47,1975a67.16,67.16,0,0,0-14.53-16.73c-11.42-9.8-24.87-15.88-39.13-20.44a159.29,159.29,0,0,0-28.94-6.37c-2.5-.31-4.66-1.56-7.14-1.86-2-1.41.22-2,.82-2.57,7.77-7.15,16.68-12.11,26-16.2,20.44-9,41.51-13.79,62.9-16.13,21.7-2.37,43.19-2.52,64.27,1.11C114.39,1896.33,117.59,1896.71,120.23,1898.6Z"/><path class="cls-2" d="M167.49,1996.31a156.27,156.27,0,0,0,12.73-47.45c.46-4.53.54-9,1.11-13.57a3.89,3.89,0,0,0-1.88-1.63c-4.59-8-14.19-16.92-26.73-24.13-11.79-6.77-23.66-10.54-32.69-11h0a8.76,8.76,0,0,0-5.63,1.59,176.2,176.2,0,0,0-24.52,18.95c-14.45,13.21-25.47,29.11-34.66,46.44-2.07,3.91-4,7.84-4.41,12.24.17,2.45,2,2.62,3.78,2.89,15.75,2.46,30.89,6.6,44.92,13.86a36.59,36.59,0,0,0,3.6,2.08,143.84,143.84,0,0,1,13.11,9.29c9,7.25,16.9,15.79,24.68,24.43,4.07,1.34,6.34-1.85,8.58-4.64A133,133,0,0,0,167.49,1996.31Z"/><path class="cls-1" d="M141.81,2028.79c1.45.77,2.61.37,3.82-1a137.93,137.93,0,0,0,27.47-51.6,154.31,154.31,0,0,0,6.2-38c0-1.16-.7-3.46,2-2.86,5.8,4.22,10.31,9.81,14.53,15.64,21.4,29.57,35.86,62.79,40.36,101.15a95.15,95.15,0,0,1-1.21,32c-.15.67.65,2.81-1.57,1.93-5.07-3.66-8.49-9-12.63-13.66-11.94-13.32-25.51-24.47-41.47-32.29-9.57-4.7-19.82-7.66-30.92-7.63a21.56,21.56,0,0,1-4.63-.27C142.19,2031.77,140.91,2031,141.81,2028.79Z"/><path class="cls-3" d="M230.58,2081.08A154.15,154.15,0,0,0,197.8,2049c-15.47-11-32.05-19-52.08-18.51-1.56,0-3.2.16-3.91-1.68-2.49-2.82-4.89-5.74-7.48-8.45-9-9.36-18.24-18.36-29.64-24.61h0l-4.94-2.84h0c-10-6.06-21.35-9-32.74-11.86-5.1-1.27-10.52-1.35-15.45-3.2a19,19,0,0,1-2.23-2.69c-6.87-12.14-16.94-20.73-28.48-27.51-14.88-8.73-31.25-13.94-48.4-17-4.93-.86-9.86-2.26-15.14-1.1,2.89,2.54,5.91,4.94,8.66,7.64,9.94,9.76,18.93,20.27,21.85,35.23.34,1.72,1.62,1.82,2.86,2.11a75.39,75.39,0,0,1,24.5,11c12.67,8.3,21.63,19.57,23.65,36.11.27,2.24,1.46,2.23,3.17,2.25,12.59.14,25.12.67,36.48,6l4.8,2.76,0-.05a59.71,59.71,0,0,1,5.94,4.24c7.77,6.85,13.73,15.36,19,24.41,1,1.71,1.76,2.73,4.15,1.69,12.51-5.47,24.62-4.91,36.46-.68a79.54,79.54,0,0,1,28.4,18c1.09,1,2,1.94,3.93,1.19,6.23-2.41,12.59-2.85,18.95-2.63,11.64.4,22.58,3.34,33.28,7.11A13.07,13.07,0,0,0,230.58,2081.08Z"/><line class="cls-4" x1="100.01" y1="1999.06" x2="11.28" y2="2151.04"/><path class="cls-6" d="M167.49,1996.31a156.27,156.27,0,0,0,12.73-47.45c.46-4.53.54-9,1.11-13.57a3.89,3.89,0,0,0-1.88-1.63c-4.59-8-14.19-16.92-26.73-24.13-11.79-6.77-23.66-10.54-32.69-11h0a8.76,8.76,0,0,0-5.63,1.59,176.2,176.2,0,0,0-24.52,18.95c-14.45,13.21-25.47,29.11-34.66,46.44-2.07,3.91-4,7.84-4.41,12.24.17,2.45,2,2.62,3.78,2.89,15.75,2.46,30.89,6.6,44.92,13.86a36.59,36.59,0,0,0,3.6,2.08,143.84,143.84,0,0,1,13.11,9.29c9,7.25,16.9,15.79,24.68,24.43,4.07,1.34,6.34-1.85,8.58-4.64A133,133,0,0,0,167.49,1996.31Z"/><path class="cls-5" d="M141.81,2028.79c1.45.77,2.61.37,3.82-1a137.93,137.93,0,0,0,27.47-51.6,154.31,154.31,0,0,0,6.2-38c0-1.16-.7-3.46,2-2.86,5.8,4.22,10.31,9.81,14.53,15.64,21.4,29.57,35.86,62.79,40.36,101.15a95.15,95.15,0,0,1-1.21,32c-.15.67.65,2.81-1.57,1.93-5.07-3.66-8.49-9-12.63-13.66-11.94-13.32-25.51-24.47-41.47-32.29-9.57-4.7-19.82-7.66-30.92-7.63a21.56,21.56,0,0,1-4.63-.27C142.19,2031.77,140.91,2031,141.81,2028.79Z"/><path class="cls-7" d="M230.58,2081.08A154.15,154.15,0,0,0,197.8,2049c-15.47-11-32.05-19-52.08-18.51-1.56,0-3.2.16-3.91-1.68-2.49-2.82-4.89-5.74-7.48-8.45-9-9.36-18.24-18.36-29.64-24.61h0l-4.94-2.84h0c-10-6.06-21.35-9-32.74-11.86-5.1-1.27-10.52-1.35-15.45-3.2a19,19,0,0,1-2.23-2.69c-6.87-12.14-16.94-20.73-28.48-27.51-14.88-8.73-31.25-13.94-48.4-17-4.93-.86-9.86-2.26-15.14-1.1,2.89,2.54,5.91,4.94,8.66,7.64,9.94,9.76,18.93,20.27,21.85,35.23.34,1.72,1.62,1.82,2.86,2.11a75.39,75.39,0,0,1,24.5,11c12.67,8.3,21.63,19.57,23.65,36.11.27,2.24,1.46,2.23,3.17,2.25,12.59.14,25.12.67,36.48,6l4.8,2.76,0-.05a59.71,59.71,0,0,1,5.94,4.24c7.77,6.85,13.73,15.36,19,24.41,1,1.71,1.76,2.73,4.15,1.69,12.51-5.47,24.62-4.91,36.46-.68a79.54,79.54,0,0,1,28.4,18c1.09,1,2,1.94,3.93,1.19,6.23-2.41,12.59-2.85,18.95-2.63,11.64.4,22.58,3.34,33.28,7.11A13.07,13.07,0,0,0,230.58,2081.08Z"/><line class="cls-8" x1="100.01" y1="1999.06" x2="11.28" y2="2151.04"/></g></svg>