<svg id="レイヤー_1" data-name="レイヤー 1" xmlns="http://www.w3.org/2000/svg" viewBox="0 0 1200 630"><defs><style>.cls-1{fill:#8e4d52;}.cls-2,.cls-3{fill:#fff;}.cls-3{fill-rule:evenodd;}</style></defs><rect class="cls-1" width="1200" height="630"/><path class="cls-2" d="M403.76,206.72V180.51h-33v26.21h-3V154.49h3v23.33h33V154.49h3v52.23Z"/><path class="cls-2" d="M420,162.93a2.27,2.27,0,1,1-2.27,2.26A2.3,2.3,0,0,1,420,162.93Zm-1.4,43.79V177l2.88-.43v30.12Z"/><path class="cls-2" d="M435.35,189.31v17.41h-2.87v-29.6l2.52-.44.27,6.88A13.18,13.18,0,0,1,446.58,176v3C440.84,178.6,435.35,183.65,435.35,189.31Z"/><path class="cls-2" d="M467.21,207.85a16,16,0,1,1,15.93-16A15.74,15.74,0,0,1,467.21,207.85Zm0-29.42c-7,0-13,5.31-13,13.4s6,13.49,13,13.49,13.06-5.31,13.06-13.49S474.26,178.43,467.21,178.43Z"/><path class="cls-2" d="M495.07,206.72h-2.88V154.49l2.88-.53v37.61L510.82,177h3.49L500,190.26l14.28,16.46h-3.49L498.11,192l-3,2.79Z"/><path class="cls-2" d="M523.53,162.93a2.27,2.27,0,1,1-2.26,2.26A2.3,2.3,0,0,1,523.53,162.93Zm-1.39,43.79V177l2.87-.43v30.12Z"/><path class="cls-2" d="M584.2,206.72l-23.41-26.55-6,6.52v20h-3V154.49h3v28.37l26.46-28.37h3.49l-21.94,23.59L588,206.72Z"/><path class="cls-2" d="M606.14,207.85a16,16,0,1,1,15.93-16A15.74,15.74,0,0,1,606.14,207.85Zm0-29.42c-7,0-13.06,5.31-13.06,13.4s6,13.49,13.06,13.49S619.2,200,619.2,191.83,613.19,178.43,606.14,178.43Z"/><path class="cls-2" d="M631.12,207V154.49L634,154v28.12A14.82,14.82,0,0,1,646.44,176c7.49,0,14,6,14,15.84s-6.53,15.93-14,15.93A14.68,14.68,0,0,1,634,201.58l-.61,5.4Zm14.71-1.74c6.1,0,11.75-4.36,11.75-13.41s-5.65-13.32-11.75-13.32a14,14,0,0,0-11.84,7v12.71A14,14,0,0,0,645.83,205.24Z"/><path class="cls-2" d="M692.05,205.15a3.14,3.14,0,0,0,1.66-.52v1.83a4.09,4.09,0,0,1-2.44.78c-2.44,0-4-1.22-4-5.14v-1.65c-5.83,5.74-10,7-13.14,7a6.7,6.7,0,0,1-6.88-7c0-7.14,9.23-10.71,20-11.75v-2.79c0-5.57-2.26-7.48-7.74-7.48-2.7,0-7.23,1.65-10.19,3.13V179a27.63,27.63,0,0,1,10.8-3c5.74,0,10,2.26,10,10v16C690.14,204.37,690.57,205.15,692.05,205.15Zm-22-4.88c0,3.75,2.78,4.71,5.22,4.71s7.23-2.35,12-7.06v-7C676.21,191.92,670,195.4,670,200.27Z"/><path class="cls-2" d="M702.93,229.35h-2.87l9.49-23L697.45,177h3L711,203.23,721.65,177h2.87Z"/><path class="cls-2" d="M754.2,205.15a3.14,3.14,0,0,0,1.66-.52v1.83a4.09,4.09,0,0,1-2.44.78c-2.44,0-4-1.22-4-5.14v-1.65c-5.84,5.74-10,7-13.15,7a6.7,6.7,0,0,1-6.88-7c0-7.14,9.23-10.71,20-11.75v-2.79c0-5.57-2.27-7.48-7.75-7.48-2.7,0-7.23,1.65-10.19,3.13V179a27.63,27.63,0,0,1,10.8-3c5.74,0,10,2.26,10,10v16C752.29,204.37,752.72,205.15,754.2,205.15Zm-22-4.88c0,3.75,2.78,4.71,5.22,4.71s7.23-2.35,12-7.06v-7C738.36,191.92,732.18,195.4,732.18,200.27Z"/><path class="cls-2" d="M772.05,207.76a21.31,21.31,0,0,1-9.93-2.7l.52-2.52a19.52,19.52,0,0,0,9.49,2.7c4.62,0,7.75-1.83,7.75-6.18,0-3.4-2.44-4.88-8.27-6.53S763,188.09,763,184c0-4.53,3.49-8,9.84-8a19.75,19.75,0,0,1,8.1,2.09l-.53,2.43a17.22,17.22,0,0,0-7.57-2c-5.05,0-7,2.27-7,5.31,0,3.48,2.35,4.88,7,6.27,6.18,1.65,9.92,4.35,9.92,8.62C782.75,204.71,778.14,207.76,772.05,207.76Z"/><path class="cls-2" d="M814.61,206.72V188.09c0-7.31-3.31-9.49-8.09-9.49-5.31,0-11.84,4.87-11.84,10.53v17.59H791.8V154.49l2.88-.53v29.51A14.77,14.77,0,0,1,807.13,176c7.48,0,10.35,5.13,10.35,11.92v18.81Z"/><path class="cls-2" d="M829.93,162.93a2.27,2.27,0,1,1-2.26,2.26A2.3,2.3,0,0,1,829.93,162.93Zm-1.39,43.79V177l2.87-.43v30.12Z"/><path class="cls-2" d="M477.3,243.54c11,0,15.73,6.62,15.73,14.71S488.33,273,477.3,273h-8.63V243.54Zm12.94,14.71c0-6.42-3.19-12.16-12.89-12.16h-6v24.32h6C487.05,270.41,490.24,264.68,490.24,258.25Z"/><path class="cls-2" d="M505.59,273.55c-4.9,0-8.38-3.92-8.38-9.12,0-5.44,3.92-8.82,8-8.82s7.06,2.74,7.06,6.52a11.17,11.17,0,0,1-.2,1.76H499.75c-.29,3.48,1.33,7.55,6.87,7.55a9.18,9.18,0,0,0,5.05-1.81l.83,1.52A10.42,10.42,0,0,1,505.59,273.55Zm-.3-15.93a5.31,5.31,0,0,0-5.39,4.46h10C510.1,259.53,508.29,257.62,505.29,257.62Z"/><path class="cls-2" d="M522.51,273.6a12,12,0,0,1-6-1.72l.49-2.06a11.42,11.42,0,0,0,5.59,1.67c2.26,0,3.83-.88,3.83-3,0-1.57-1.28-2.3-4.27-3.09-3.43-.88-5-2.79-5-5,0-2.65,1.91-4.85,5.89-4.85a11.49,11.49,0,0,1,5,1.32l-.49,2a9.78,9.78,0,0,0-4.46-1.27c-2.5,0-3.53,1-3.53,2.54s1.22,2.31,3.62,3c3.73.88,5.74,2.69,5.74,5C528.83,271.54,526.28,273.6,522.51,273.6Z"/><path class="cls-2" d="M536.92,249.18a1.72,1.72,0,1,1-1.72-1.71A1.74,1.74,0,0,1,536.92,249.18ZM534,273V256.24l2.5-.44V273Z"/><path class="cls-2" d="M553.44,256.24h3.88v1.92h-3.19a6.37,6.37,0,0,1,1.67,4.26,6.91,6.91,0,0,1-6.33,6.72c-4,.39-5.05,1.22-5.05,2.55,0,1.17,1.18,1.86,4.51,2.15,6,.54,8.39,2.75,8.39,5.79,0,3.72-3.63,6.42-8.44,6.42-5,0-8.38-2.16-8.38-5.15a4.37,4.37,0,0,1,3.43-4.07l1,.54a3.34,3.34,0,0,0-2.2,3.19c0,2.35,3,3.43,6.12,3.43,3.78,0,6-1.62,6-4s-2.05-3.33-6.52-3.82c-3.43-.35-6.17-1.33-6.17-4.32,0-1.22,1-2.74,3.23-3.43a6.77,6.77,0,0,1-3.77-6,7,7,0,0,1,7.06-6.81C550.6,255.61,551.78,256.24,553.44,256.24Zm-4.75,1.23a4.93,4.93,0,1,0,4.7,4.95A4.64,4.64,0,0,0,548.69,257.47Z"/><path class="cls-2" d="M574.87,273V262.81c0-3.58-1.67-4.95-4.17-4.95s-6.17,2.21-6.17,5.15V273H562V256.34l2.06-.44.3,3.38a8.58,8.58,0,0,1,6.81-3.67c4.51,0,6.18,3.13,6.18,7.06V273Z"/><path class="cls-2" d="M601.49,243.54c6.33,0,9.07,4.27,9.07,8.88s-2.74,8.87-9.07,8.87h-6.42V273h-2.69V243.54Zm6.38,8.88c0-3-1.52-6.47-6.38-6.47h-6.42v12.94h6.42C606.35,258.89,607.87,255.51,607.87,252.42Z"/><path class="cls-2" d="M621.06,273.65a9,9,0,1,1,9.22-9.07A9.07,9.07,0,0,1,621.06,273.65Zm0-15.94a6.89,6.89,0,1,0,6.72,6.87A6.52,6.52,0,0,0,621.06,257.71Z"/><path class="cls-2" d="M637.88,263V273h-2.5V256.34l2.06-.44.29,3.38a8.34,8.34,0,0,1,6.52-3.67v2.74C641.16,257.86,637.88,260.07,637.88,263Z"/><path class="cls-2" d="M653.67,273.35c-2.75,0-3.73-1.76-3.73-5.49V258.2h-2.6v-2h2.6v-4.7l2.5-.49v5.19h4.26v2h-4.26v10c0,2,.44,3.13,1.91,3.13a4.74,4.74,0,0,0,2.65-.78l.39,1.32A5,5,0,0,1,653.67,273.35Z"/><path class="cls-2" d="M669.8,243.3v1.81a8.29,8.29,0,0,0-1.42-.19c-2.21,0-3.09.93-3.09,4.75v6.57h4.51v2h-4.51V273h-2.5V258.2h-3.44v-2h3.44v-6.57c0-4.8,1.81-6.71,5.24-6.71A4.85,4.85,0,0,1,669.8,243.3Z"/><path class="cls-2" d="M681.56,273.65a9,9,0,1,1,9.22-9.07A9.07,9.07,0,0,1,681.56,273.65Zm0-15.94a6.89,6.89,0,1,0,6.72,6.87A6.52,6.52,0,0,0,681.56,257.71Z"/><path class="cls-2" d="M698.68,273.3c-1.77,0-2.8-1-2.8-3.28V243.54l2.5-.44v27c0,1,.35,1.47,1.08,1.47a2.3,2.3,0,0,0,1.08-.25v1.28A2.4,2.4,0,0,1,698.68,273.3Z"/><path class="cls-2" d="M708.19,249.18a1.72,1.72,0,1,1-3.43,0,1.72,1.72,0,0,1,3.43,0ZM705.25,273V256.24l2.5-.44V273Z"/><path class="cls-2" d="M722,273.65a9,9,0,1,1,9.22-9.07A9.07,9.07,0,0,1,722,273.65Zm0-15.94a6.89,6.89,0,1,0,6.72,6.87A6.52,6.52,0,0,0,722,257.71Z"/><path class="cls-2" d="M349.64,319.88a9.65,9.65,0,0,0-6.47-2.45c-3.29,0-6,1.76-6.42,4.76-.4,2.69.68,4.9,4.9,6.12,6,1.77,8.19,5.05,7.55,9.42-.79,5.59-5.3,8.14-10.15,8.14a10.74,10.74,0,0,1-8.43-3.68l.88-2.6a9.92,9.92,0,0,0,7.89,3.92c3.73,0,6.62-2.2,7.11-5.73.44-3.29-.88-5.54-6.22-7.16-4.81-1.47-6.82-4.61-6.23-8.53s4.51-7,9.51-7a10.69,10.69,0,0,1,6.91,2.59Z"/><path class="cls-2" d="M360.53,345.82c-5.1,0-8.29-4.07-7.75-9a9.93,9.93,0,0,1,9.61-9c5.2,0,8.33,4,7.79,9A9.94,9.94,0,0,1,360.53,345.82Zm1.81-16c-3.63,0-6.57,2.95-7.06,7s1.67,7,5.29,7,6.62-2.95,7.11-7S366,329.83,362.34,329.83Z"/><path class="cls-2" d="M376.56,328a2.2,2.2,0,0,1,2.26,2.45c0,2.4-1.92,7-1.92,9.81,0,2.2,1.13,3.23,3.09,3.23,2.65,0,6.23-2.5,7.11-7.4l1.37-7.65H391l-2.45,13.68c-.24,1.27,0,1.72.84,1.72a4.39,4.39,0,0,0,1.22-.25v1.18a4.47,4.47,0,0,1-2.4.73c-1.62,0-2.84-1-2-4.12a8.41,8.41,0,0,1-7,4.22,4.43,4.43,0,0,1-4.81-4.8c0-3.14,1.91-7.8,1.91-10.2a.83.83,0,0,0-.93-.93,4.4,4.4,0,0,0-1.22.24v-1.18A4.47,4.47,0,0,1,376.56,328Z"/><path class="cls-2" d="M394.75,345.18l2.45-13.78c.2-1.27,0-1.71-.83-1.71a4.55,4.55,0,0,0-1.23.24v-1.18a4.5,4.5,0,0,1,2.41-.73c1.61,0,2.69,1,2.1,3.58A6.58,6.58,0,0,1,404.9,328c2.16,0,3.14,1.27,3.14,2.7a2.78,2.78,0,0,1-3.19,2.79v-.29a1.7,1.7,0,0,0,.88-1.52c0-.84-.63-1.47-1.76-1.47-2,0-4.56,2.4-5.35,7l-1.37,8Z"/><path class="cls-2" d="M423,331.6a6.91,6.91,0,0,0-4.51-1.67,7.31,7.31,0,0,0-7.25,6.57c-.64,4.36,1.76,7.21,5.68,7.21a7.33,7.33,0,0,0,4-1.38l.79,1.43a8.33,8.33,0,0,1-5.74,2c-5,0-8-4.22-7.25-9.22a9.72,9.72,0,0,1,9.56-8.58,8.39,8.39,0,0,1,5,1.62Z"/><path class="cls-2" d="M428.19,338.76c.2,3.13,2.21,4.95,5.1,4.95a8,8,0,0,0,5.2-1.91l.83,1.42a9.55,9.55,0,0,1-6.62,2.5c-5.1,0-7.55-4.71-6.81-9.12a10.19,10.19,0,0,1,9.75-8.68c2.85,0,4.76,1.62,4.47,3.78C439.81,334.1,436.13,337.73,428.19,338.76Zm7.16-8.88c-3,0-6.18,2.45-7,6.62,0,.2-.1.49-.1.49,5.69-.73,9.27-3.23,9.46-5.2C437.8,330.72,436.92,329.88,435.35,329.88Z"/><path class="cls-2" d="M476,320.86a12.48,12.48,0,0,0-8.77-3.28c-6.28,0-11.77,4.65-12.8,12.6s3.34,13.18,9.66,13.18a15.3,15.3,0,0,0,9.56-3.43l-.44,3a17.22,17.22,0,0,1-9.46,2.9c-7.45,0-13.34-6.08-12.11-15.64s8.19-15.06,15.93-15.06a14.07,14.07,0,0,1,8.88,2.95Z"/><path class="cls-2" d="M485.36,345.82c-5.1,0-8.28-4.07-7.74-9a9.93,9.93,0,0,1,9.61-9c5.19,0,8.33,4,7.79,9A10,10,0,0,1,485.36,345.82Zm1.82-16c-3.63,0-6.57,2.95-7.06,7s1.66,7,5.29,7,6.62-2.95,7.11-7S490.85,329.83,487.18,329.83Z"/><path class="cls-2" d="M513.16,342.14c-.19,1.27.05,1.72.84,1.72a2.94,2.94,0,0,0,1.22-.25v1.18a4.47,4.47,0,0,1-2.4.73c-1.27,0-2.35-.68-2.11-2.94a7.57,7.57,0,0,1-5.93,3c-4.95,0-7.16-4.17-6.23-9.12a10.27,10.27,0,0,1,9.91-8.58,7.81,7.81,0,0,1,4.51,1.37l2.35-13.53,2.6-.44Zm-4.85-12.21c-3.78,0-6.57,3-7.31,6.77s.74,6.91,4.52,6.91a6.09,6.09,0,0,0,5.78-4.95l1.32-7.31A6.47,6.47,0,0,0,508.31,329.93Z"/><path class="cls-2" d="M521.5,338.76c.2,3.13,2.21,4.95,5.1,4.95a8,8,0,0,0,5.2-1.91l.83,1.42a9.56,9.56,0,0,1-6.62,2.5c-5.1,0-7.55-4.71-6.81-9.12a10.19,10.19,0,0,1,9.75-8.68c2.85,0,4.76,1.62,4.46,3.78C533.12,334.1,529.44,337.73,521.5,338.76Zm7.16-8.88c-3,0-6.18,2.45-7,6.62,0,.2-.1.49-.1.49,5.69-.73,9.27-3.23,9.46-5.2C531.11,330.72,530.23,329.88,528.66,329.88Z"/><path class="cls-2" d="M563.42,345.18l-1.81-8.48H548.76l-4.8,8.48h-2.85l16.77-29.42h1.81l6.38,29.42Zm-5.34-25-8,14.17h11Z"/><path class="cls-2" d="M575.63,345.72c-3,0-5-2-5-5.15,0-3.58,2-6.77,2-9.61,0-.78-.39-1.18-1-1.18a3.68,3.68,0,0,0-1.37.35V328.9a4.57,4.57,0,0,1,2.55-.78,2.33,2.33,0,0,1,2.4,2.64c0,2.9-2.06,6-2.06,9.66,0,2.11,1,3.29,2.94,3.29,4.17,0,7.16-5.39,7.16-10.3a8.14,8.14,0,0,0-1.42-5h2.25c1.08,1.08,1.57,3.14,1.57,5C585.68,339.1,581.91,345.72,575.63,345.72Z"/><path class="cls-2" d="M603.63,342.14c-.25,1.27,0,1.72.83,1.72a3,3,0,0,0,1.23-.25v1.18a4.5,4.5,0,0,1-2.41.73c-1.27,0-2.35-.68-2.1-2.94a7.6,7.6,0,0,1-5.94,3c-5,0-7.15-4.17-6.22-9.12a10.26,10.26,0,0,1,9.9-8.58,7.76,7.76,0,0,1,4.76,1.62l.83-1.37h1.62Zm-4.86-12.21c-3.77,0-6.57,3-7.3,6.77s.73,6.91,4.51,6.91a6.09,6.09,0,0,0,5.78-4.95l1.33-7.31A6.5,6.5,0,0,0,598.77,329.93Z"/><path class="cls-2" d="M615,330.47c0,2.11-2.3,10.3-2.3,12.45a.83.83,0,0,0,.93.94,4.17,4.17,0,0,0,1.23-.25v1.18a4.5,4.5,0,0,1-2.41.73,2.19,2.19,0,0,1-2.25-2.45c0-2.11,2.3-10.29,2.3-12.45a.83.83,0,0,0-.93-.93,4.06,4.06,0,0,0-1.22.24v-1.18a4.34,4.34,0,0,1,2.4-.73A2.19,2.19,0,0,1,615,330.47Zm.3-7.55a1.42,1.42,0,0,1-1.42-1.62,1.88,1.88,0,0,1,1.81-1.62,1.42,1.42,0,0,1,1.42,1.62A1.84,1.84,0,0,1,615.3,322.92Z"/><path class="cls-2" d="M621.53,342.14c-.25,1.27,0,1.72.83,1.72a4,4,0,0,0,1.22-.25v1.18a4.47,4.47,0,0,1-2.4.73c-1.62,0-2.6-1-2.15-3.38l4.65-26.38,2.6-.44Z"/><path class="cls-2" d="M642.26,342.14c-.24,1.27,0,1.72.84,1.72a2.94,2.94,0,0,0,1.22-.25v1.18a4.47,4.47,0,0,1-2.4.73c-1.27,0-2.35-.68-2.11-2.94a7.57,7.57,0,0,1-5.93,3c-5,0-7.16-4.17-6.23-9.12a10.28,10.28,0,0,1,9.91-8.58,7.71,7.71,0,0,1,4.75,1.62l.84-1.37h1.61Zm-4.85-12.21c-3.77,0-6.57,3-7.3,6.77s.73,6.91,4.51,6.91a6.09,6.09,0,0,0,5.78-4.95l1.33-7.31A6.5,6.5,0,0,0,637.41,329.93Z"/><path class="cls-2" d="M654.38,345.72c-3.88,0-6.43-2.7-6-6.38,0-.14.44-2.55.53-3l3.63-20.54,2.6-.44-2.74,15.54a8,8,0,0,1,5.83-2.94c4.95,0,7.06,4.17,6.13,9.12A10.25,10.25,0,0,1,654.38,345.72Zm-2.75-10.79-.73,3.73-.15,1.17a3.58,3.58,0,0,0,3.82,3.88c4,0,6.57-3,7.31-6.82s-.64-7-4.42-7A6.32,6.32,0,0,0,651.63,334.93Z"/><path class="cls-2" d="M670.41,342.14c-.24,1.27.05,1.72.83,1.72a4,4,0,0,0,1.23-.25v1.18a4.49,4.49,0,0,1-2.4.73c-1.62,0-2.6-1-2.16-3.38l4.66-26.38,2.6-.44Z"/><path class="cls-2" d="M678.75,338.76a4.84,4.84,0,0,0,5.09,4.95,8,8,0,0,0,5.2-1.91l.84,1.42a9.58,9.58,0,0,1-6.62,2.5c-5.1,0-7.55-4.71-6.82-9.12a10.2,10.2,0,0,1,9.76-8.68c2.84,0,4.75,1.62,4.46,3.78C690.37,334.1,686.69,337.73,678.75,338.76Zm7.15-8.88c-3,0-6.17,2.45-7,6.62,0,.2-.1.49-.1.49,5.69-.73,9.27-3.23,9.47-5.2C688.35,330.72,687.47,329.88,685.9,329.88Z"/><path class="cls-2" d="M708.61,345.82c-5.1,0-8.29-4.07-7.75-9a9.93,9.93,0,0,1,9.61-9c5.2,0,8.33,4,7.79,9A9.94,9.94,0,0,1,708.61,345.82Zm1.81-16c-3.63,0-6.57,2.95-7.06,7s1.67,7,5.29,7,6.62-2.95,7.11-7S714.1,329.83,710.42,329.83Z"/><path class="cls-2" d="M736.5,345.52a2.19,2.19,0,0,1-2.25-2.45c0-2.4,1.67-7,1.67-9.8,0-2.21-1.13-3.24-3.09-3.24-2.65,0-6.28,2.55-7.11,7.4l-1.37,7.75h-2.5l2.45-13.78c.19-1.27,0-1.71-.84-1.71a4.4,4.4,0,0,0-1.22.24v-1.18a4.47,4.47,0,0,1,2.4-.73c1.62,0,2.84,1,2,4.12a8.4,8.4,0,0,1,7-4.22,4.43,4.43,0,0,1,4.81,4.81c0,3.13-1.67,7.79-1.67,10.19a.83.83,0,0,0,.93.94,4.54,4.54,0,0,0,1.23-.25v1.18A4.5,4.5,0,0,1,736.5,345.52Z"/><path class="cls-2" d="M775.92,320.86a12.35,12.35,0,0,0-8.77-3.33c-6.62,0-12.11,4.7-13.14,12.65s3.33,13.18,10,13.18a14.12,14.12,0,0,0,7.31-1.91l1.37-7.65H767l.44-2.45h8.39l-2.06,11.57c-1.86.84-5.1,2.95-10.05,2.95-7.75,0-13.68-6.13-12.46-15.69s8.24-15.1,16.33-15.1a14.12,14.12,0,0,1,8.83,2.94Z"/><path class="cls-2" d="M785.29,330.47c0,2.11-2.3,10.3-2.3,12.45a.83.83,0,0,0,.93.94,4.17,4.17,0,0,0,1.23-.25v1.18a4.5,4.5,0,0,1-2.41.73,2.19,2.19,0,0,1-2.25-2.45c0-2.11,2.3-10.29,2.3-12.45a.83.83,0,0,0-.93-.93,4.06,4.06,0,0,0-1.22.24v-1.18A4.34,4.34,0,0,1,783,328,2.19,2.19,0,0,1,785.29,330.47Zm.3-7.55a1.42,1.42,0,0,1-1.42-1.62,1.88,1.88,0,0,1,1.81-1.62,1.42,1.42,0,0,1,1.42,1.62A1.84,1.84,0,0,1,785.59,322.92Z"/><path class="cls-2" d="M798.68,330.32h-4.27l-1.76,10c-.44,2.25.29,3.28,2,3.28a3.73,3.73,0,0,0,2.16-.69l.39,1.52a5.27,5.27,0,0,1-3.29,1.08c-2.5,0-4.36-1.66-3.72-5.19l1.76-10h-2.5l.3-1.86h2.54l1-5.49,2.59-.44-1.08,5.93H799Z"/><path class="cls-2" d="M822.6,345.18h-2.69l2.55-14.32H806.18l-2.55,14.32h-2.7l5.2-29.42h2.7l-2.26,12.75H822.9l2.2-12.75h2.7Z"/><path class="cls-2" d="M832.27,328a2.19,2.19,0,0,1,2.25,2.45c0,2.4-1.91,7-1.91,9.81,0,2.2,1.13,3.23,3.09,3.23,2.64,0,6.22-2.5,7.11-7.4l1.37-7.65h2.5l-2.45,13.68c-.25,1.27,0,1.72.83,1.72a4.54,4.54,0,0,0,1.23-.25v1.18a4.5,4.5,0,0,1-2.41.73c-1.61,0-2.84-1-2-4.12a8.41,8.41,0,0,1-7,4.22,4.43,4.43,0,0,1-4.8-4.8c0-3.14,1.91-7.8,1.91-10.2a.83.83,0,0,0-.93-.93,4.55,4.55,0,0,0-1.23.24v-1.18A4.5,4.5,0,0,1,832.27,328Z"/><path class="cls-2" d="M856.39,345.72c-3.87,0-6.42-2.7-6-6.38,0-.14.44-2.55.54-3l3.63-20.54,2.59-.44-2.74,15.54a8,8,0,0,1,5.83-2.94c5,0,7.06,4.17,6.13,9.12A10.25,10.25,0,0,1,856.39,345.72Zm-2.75-10.79-.73,3.73-.15,1.17a3.58,3.58,0,0,0,3.83,3.88c4,0,6.57-3,7.3-6.82s-.64-7-4.41-7A6.33,6.33,0,0,0,853.64,334.93Z"/><path class="cls-2" d="M365.87,481.42h34.21v2.72H369v20.47h29.22v2.72H369v22.46h31.43v2.72H365.87Zm37.28,0h3.63l16.11,22.47,16.47-22.47,22.39-28.54L425,506.25l19,26.26h-3.78l-17.25-23.9-17.32,23.9h-3.7L421,506.25Zm42.12,2.72v-2.72h39v2.72h-18v48.37h-3.14V484.14Zm-122.2-2.72H327l54.06,80.89-22.34-29.8-32.36-47.22-.14,47.22h-3.14ZM483.94,529a1.14,1.14,0,1,1,1.13-1.13A1.1,1.1,0,0,1,483.94,529Zm3.09-3h1.67a1.54,1.54,0,0,0,1.67,1.52c1.09,0,1.7-.66,1.7-1.89v-7.79h1.71v7.8a3.15,3.15,0,0,1-3.4,3.49A3.07,3.07,0,0,1,487,526Zm9-.1h1.69c.15,1,1.17,1.71,2.64,1.71s2.38-.71,2.38-1.69-.64-1.34-2.1-1.68l-1.42-.35c-2-.46-2.89-1.43-2.89-3,0-2,1.6-3.26,4-3.26,2.24,0,3.87,1.3,4,3.16h-1.67a2.09,2.09,0,0,0-2.32-1.65c-1.35,0-2.25.65-2.25,1.64,0,.79.58,1.24,2,1.57l1.21.3c2.26.53,3.19,1.44,3.19,3.1,0,2.11-1.63,3.43-4.24,3.43C497.78,529.11,496.14,527.85,496,525.88Z"/><path class="cls-3" d="M773.91,524.19v-2.46a12.6,12.6,0,0,0,6.81,2.13,8.76,8.76,0,0,0,5.57-1.51,5.1,5.1,0,0,0,1.9-4.23,5.5,5.5,0,0,0-1.27-3.81,24,24,0,0,0-5.24-3.71l-.3-.17q-4.77-2.76-6-4.62a7.48,7.48,0,0,1-1.27-4.3,7.26,7.26,0,0,1,2.58-5.61,10,10,0,0,1,6.88-2.3,17.57,17.57,0,0,1,5.59.93v2.26a14.2,14.2,0,0,0-5.87-1.23,7.51,7.51,0,0,0-5.06,1.6,5.2,5.2,0,0,0-1.87,4.09,5.49,5.49,0,0,0,1.28,3.81,25.12,25.12,0,0,0,5.52,3.84c2.92,1.66,4.87,3.12,5.84,4.41a7.11,7.11,0,0,1,1.45,4.42,7.52,7.52,0,0,1-2.5,5.85q-2.5,2.26-7.06,2.26a16.63,16.63,0,0,1-3.73-.5,12.18,12.18,0,0,1-3.22-1.15Zm-77.64-25.67h9v-4.4H682.16v4.4h8.94v26.8h5.17Zm17.22,30.36L723.58,503h-5.11l-5.6,16.23c-.13.49-.23.9-.31,1.21l-.08.35h-.11c-.11-.49-.21-.88-.28-1.16l-.11-.45L706.65,503H701l8.9,22.23-1.51,3.66a4.52,4.52,0,0,1-4.24,2.78,7.14,7.14,0,0,1-2.18-.39v4.2a10.52,10.52,0,0,0,2.66.28q5.69,0,8.83-6.92ZM731.87,522h-.08v13.52h-5.07V503h5.07V507h.08a8.32,8.32,0,0,1,7.6-4.44,8,8,0,0,1,6.63,3,12.44,12.44,0,0,1,2.38,8,13.86,13.86,0,0,1-2.68,8.92,8.91,8.91,0,0,1-7.34,3.35,7.34,7.34,0,0,1-6.59-3.74Zm-.17-5.91v-2.74a7,7,0,0,1,1.65-4.76,5.47,5.47,0,0,1,4.35-1.9,4.94,4.94,0,0,1,4,1.84,8,8,0,0,1,1.49,5.12,10.14,10.14,0,0,1-1.6,6.07,5.21,5.21,0,0,1-4.42,2.17,5.14,5.14,0,0,1-4-1.69,5.82,5.82,0,0,1-1.56-4.11Zm39.59-.56h-15.1a6.4,6.4,0,0,0,1.89,4.76,7,7,0,0,0,5,1.68,10.94,10.94,0,0,0,6.52-2.13v4.07a14.88,14.88,0,0,1-8,1.91,9.9,9.9,0,0,1-7.67-3q-2.77-3-2.78-8.55a11.91,11.91,0,0,1,3.06-8.47,10,10,0,0,1,7.61-3.28,8.7,8.7,0,0,1,7,2.94q2.49,2.94,2.49,8.16Zm-6-7.85a6.64,6.64,0,0,1,1.27,4.25H756.35a7.3,7.3,0,0,1,1.84-4.17,4.81,4.81,0,0,1,3.66-1.6,4.25,4.25,0,0,1,3.45,1.52Zm37.94,18.14a11.32,11.32,0,0,0,6-1.52v-2.08a9.93,9.93,0,0,1-5.88,1.78,7.42,7.42,0,0,1-5.93-2.63,10.32,10.32,0,0,1-2.25-6.95,10.65,10.65,0,0,1,2.46-7.29,8.07,8.07,0,0,1,6.4-2.81,10,10,0,0,1,5.29,1.47v-2.26a12.53,12.53,0,0,0-5-1,10.63,10.63,0,0,0-8.12,3.38,12.21,12.21,0,0,0-3.16,8.68,11.7,11.7,0,0,0,2.81,8.15,9.47,9.47,0,0,0,7.39,3.12Zm19.16-20.79a3.81,3.81,0,0,0-2.34-.73,5.19,5.19,0,0,0-4.41,2.73c-1.18,1.83-1.78,4.41-1.78,7.76v10.51h-2V503h2v5H814a8.18,8.18,0,0,1,2.41-4,5.66,5.66,0,0,1,3.82-1.42,5.92,5.92,0,0,1,2.21.39Zm3.13-8a1.68,1.68,0,0,0,2.39,0,1.71,1.71,0,0,0,.51-1.24,1.5,1.5,0,0,0-.52-1.21,1.77,1.77,0,0,0-2.37,0,1.56,1.56,0,0,0-.52,1.2,1.68,1.68,0,0,0,.51,1.26Zm0,28.28V503h2.1v22.28Zm8.81-4h.09a7.84,7.84,0,0,0,7.39,4.5,8.73,8.73,0,0,0,7.2-3.45,14.13,14.13,0,0,0,2.72-9,12.22,12.22,0,0,0-2.38-7.95,8.07,8.07,0,0,0-6.61-2.92,9.38,9.38,0,0,0-4.9,1.34,8.81,8.81,0,0,0-3.42,3.79h-.09v-4.59h-2v32.49h2Zm.1-8.28v2.8a8.35,8.35,0,0,0,2.13,5.74,7.11,7.11,0,0,0,5.59,2.4,6.67,6.67,0,0,0,5.6-2.92,12.65,12.65,0,0,0,2.15-7.67,10.22,10.22,0,0,0-2-6.62,6.39,6.39,0,0,0-5.26-2.45,7.42,7.42,0,0,0-6.08,2.6A9.35,9.35,0,0,0,834.46,513.07Zm27,12.77a6.74,6.74,0,0,0,2.92-.74v-1.86a5.56,5.56,0,0,1-2.66.8,2.77,2.77,0,0,1-2.45-1,5.87,5.87,0,0,1-.73-3.33V505h5.84v-1.82h-5.84v-6.45q-.48.18-1,.33l-1,.35v5.77h-4V505h4v14.93q0,5.89,4.91,5.9Z"/><path class="cls-2" d="M872.73,540.26H616.89a4.2,4.2,0,0,1-4.19-4.2V477.87a4.2,4.2,0,0,1,4.19-4.19H872.73a4.2,4.2,0,0,1,4.2,4.19v58.19A4.2,4.2,0,0,1,872.73,540.26ZM616.89,474.72a3.16,3.16,0,0,0-3.15,3.15v58.19a3.16,3.16,0,0,0,3.15,3.15H872.73a3.15,3.15,0,0,0,3.15-3.15V477.87a3.16,3.16,0,0,0-3.15-3.15Z"/><path class="cls-2" d="M557.52,508h-5.93v-2.11h5.93V500h2.11v5.93h5.94V508h-5.94V514h-2.11Z"/></svg>